<svg width="101" height="120" viewBox="0 0 101 120" fill="none" xmlns="http://www.w3.org/2000/svg">
<path d="M57.64 -30.9171C58.7897 -31.5864 60.2103 -31.5864 61.36 -30.9171L109.192 -3.06937C110.329 -2.40727 111.029 -1.19054 111.029 0.125393V55.8746C111.029 57.1905 110.329 58.4073 109.192 59.0694L61.36 86.9171C60.2103 87.5864 58.7897 87.5864 57.64 86.9171L9.80826 59.0694C8.67103 58.4073 7.97149 57.1905 7.97149 55.8746V0.125393C7.97149 -1.19054 8.67103 -2.40727 9.80826 -3.06937L57.64 -30.9171Z" fill="#30406A"/>
<path d="M85.1301 56.0965C86.2848 55.4194 87.7152 55.4194 88.8699 56.0965L112.886 70.1788C114.018 70.8423 114.713 72.0559 114.713 73.3678V101.632C114.713 102.944 114.018 104.158 112.886 104.821L88.8699 118.904C87.7152 119.581 86.2848 119.581 85.1301 118.904L61.114 104.821C59.9824 104.158 59.2872 102.944 59.2872 101.632V73.3678C59.2872 72.0559 59.9824 70.8423 61.114 70.1788L85.1301 56.0965Z" fill="#253253"/>
</svg>
