<svg width="189" height="87" viewBox="0 0 189 87" fill="none" xmlns="http://www.w3.org/2000/svg">
<g clip-path="url(#clip0_2382_8703)">
<path d="M21.587 3.20619C24.3178 1.62958 27.6822 1.62958 30.413 3.20619L92.897 39.2813C95.6277 40.858 97.31 43.7716 97.31 46.9248V119.075C97.31 122.228 95.6277 125.142 92.897 126.719L30.413 162.794C27.6822 164.37 24.3178 164.37 21.587 162.794L-40.897 126.719C-43.6277 125.142 -45.31 122.228 -45.31 119.075V46.9248C-45.31 43.7716 -43.6277 40.8579 -40.897 39.2813L21.587 3.20619Z" stroke="#40568E" stroke-width="1.1403"/>
</g>
<path d="M91.1301 2.59647C92.2848 1.9194 93.7152 1.9194 94.8699 2.59647L118.886 16.6788C120.018 17.3423 120.713 18.5559 120.713 19.8678V48.1322C120.713 49.4441 120.018 50.6577 118.886 51.3212L94.8699 65.4035C93.7152 66.0806 92.2848 66.0806 91.1301 65.4035L67.114 51.3212C65.9824 50.6577 65.2872 49.4441 65.2872 48.1322V19.8678C65.2872 18.5559 65.9824 17.3423 67.114 16.6788L91.1301 2.59647Z" fill="#253253"/>
<defs>
<clipPath id="clip0_2382_8703">
<rect width="224" height="166" fill="white" transform="translate(-35)"/>
</clipPath>
</defs>
</svg>
