<?xml version="1.0" encoding="UTF-8"?>
<!-- Generator: visioncortex VTracer 0.6.3 -->
<svg version="1.1" xmlns="http://www.w3.org/2000/svg" width="1280" height="1280">
<path d="M0 0 C0 0.66 0 1.32 0 2 C0.76 2.14 1.53 2.29 2.31 2.44 C5 3 5 3 8 4 C8 4.66 8 5.32 8 6 C8.72 6.28 9.45 6.55 10.2 6.84 C21.23 11.4 31.72 18.33 41.76 24.77 C44.01 26.24 44.01 26.24 47 26 C49.14 27.89 50.72 29.44 52 32 C52.68 32.1 53.36 32.21 54.06 32.31 C57.61 33.14 60.02 34.75 63.04 36.75 C64.97 37.98 66.93 39.01 69 40 C69 40.66 69 41.32 69 42 C69.74 42.14 70.49 42.29 71.25 42.44 C73.52 42.9 75.76 43.42 78 44 C78 44.99 78 45.98 78 47 C78.76 47.1 79.53 47.21 80.31 47.31 C83.34 48.09 83.86 48.86 86 51 C86.94 51.39 87.88 51.78 88.86 52.18 C94.47 54.52 99.67 57.67 104.94 60.69 C106.54 61.6 106.54 61.6 108.17 62.53 C110.78 64.01 113.39 65.51 116 67 C116 67.66 116 68.32 116 69 C116.66 69.07 117.31 69.14 117.99 69.21 C122.17 70.31 125.46 72.44 129.12 74.69 C130.64 75.6 132.15 76.5 133.66 77.41 C134.4 77.85 135.13 78.29 135.89 78.75 C140.19 81.3 144.59 83.66 149 86 C149 86.66 149 87.32 149 88 C149.85 88.25 150.7 88.5 151.57 88.76 C155.24 90.09 158.47 91.83 161.81 93.81 C163.06 94.54 164.3 95.26 165.54 95.98 C166.14 96.33 166.74 96.68 167.35 97.04 C169.42 98.25 171.52 99.41 173.62 100.56 C178.25 103.11 182.78 105.83 187.3 108.55 C189.61 109.79 191.44 110.54 194 111 C194 111.99 194 112.98 194 114 C194.65 114.07 195.31 114.13 195.98 114.2 C200.21 115.32 203.55 117.48 207.25 119.75 C208.78 120.67 210.31 121.59 211.84 122.51 C212.57 122.95 213.3 123.38 214.04 123.83 C216.25 125.15 218.49 126.4 220.75 127.62 C224.37 129.6 227.87 131.76 231.38 133.94 C236.35 137.03 241.39 139.92 246.55 142.68 C248.74 143.86 250.87 145.1 253 146.38 C255.87 148.24 255.87 148.24 259 148 C260.34 149.33 261.67 150.66 263 152 C265.19 153.36 267.36 154.64 269.62 155.88 C270.88 156.57 272.13 157.28 273.39 157.98 C274 158.32 274.61 158.66 275.25 159.01 C277.67 160.38 280.06 161.81 282.44 163.25 C286.26 165.56 290.11 167.8 294 170 C294 170.66 294 171.32 294 172 C295.01 172.12 295.01 172.12 296.04 172.25 C299.88 173.22 303.04 175.08 306.44 177.06 C307.13 177.46 307.82 177.86 308.54 178.27 C309.98 179.09 311.41 179.92 312.85 180.75 C315.6 182.35 318.36 183.92 321.12 185.49 C323.75 186.99 326.38 188.49 329 190 C329 190.66 329 191.32 329 192 C330.65 192.33 332.3 192.66 334 193 C334 193.66 334 194.32 334 195 C335.06 195.15 335.06 195.15 336.14 195.3 C339.47 196.11 341.83 197.47 344.75 199.25 C345.8 199.88 346.84 200.5 347.92 201.15 C349.44 202.06 349.44 202.06 351 203 C352.68 203.97 354.37 204.93 356.06 205.88 C356.75 206.26 357.45 206.65 358.16 207.05 C360.14 208.13 360.14 208.13 363 209 C363 209.66 363 210.32 363 211 C363.72 211.28 364.45 211.55 365.2 211.84 C371.41 214.41 377.21 217.89 382.95 221.39 C383.62 221.8 384.29 222.21 384.98 222.64 C386.31 223.45 387.64 224.27 388.96 225.1 C392.7 227.44 392.7 227.44 397 228 C398.03 228.97 399.02 229.98 400 231 C401.58 232.02 403.19 233 404.81 233.94 C407.68 235.62 410.44 237.3 413.19 239.19 C415.44 240.64 417.36 241.63 419.81 242.62 C423 244 423 244 424 246 C424.93 246.37 425.86 246.74 426.81 247.12 C445.27 254.81 461.2 272.36 468.76 290.66 C474.28 305.52 475.73 319.44 475.63 335.2 C475.64 337.38 475.65 339.56 475.66 341.74 C475.68 347.68 475.67 353.62 475.65 359.57 C475.64 365.99 475.66 372.42 475.67 378.85 C475.7 390.69 475.69 402.54 475.68 414.38 C475.67 425.32 475.66 436.27 475.67 447.21 C475.67 447.94 475.67 448.67 475.67 449.42 C475.67 452.38 475.67 455.33 475.68 458.29 C475.69 485.97 475.68 513.66 475.65 541.34 C475.63 565.9 475.63 590.46 475.65 615.02 C475.68 642.66 475.69 670.3 475.67 697.94 C475.67 700.89 475.67 703.84 475.67 706.79 C475.67 707.51 475.67 708.24 475.67 708.99 C475.66 719.92 475.67 730.85 475.68 741.79 C475.7 754.23 475.69 766.67 475.67 779.11 C475.65 785.45 475.65 791.79 475.66 798.14 C475.68 803.95 475.67 809.77 475.64 815.58 C475.64 817.68 475.64 819.77 475.65 821.86 C475.78 845.63 470.49 868.09 454 886 C453.17 886.94 452.35 887.88 451.5 888.85 C441.02 900.34 427.47 908.1 413.53 914.73 C411.16 915.92 409.06 917.23 406.88 918.75 C402.5 921.79 397.91 924.32 393.25 926.88 C386.69 930.47 380.3 934.23 373.96 938.19 C369.4 940.98 364.71 943.48 360 946 C358.56 946.79 357.12 947.58 355.69 948.38 C354.98 948.77 354.27 949.16 353.54 949.57 C351.49 950.72 349.46 951.9 347.43 953.09 C346.81 953.46 346.18 953.82 345.53 954.2 C344.28 954.93 343.03 955.67 341.78 956.41 C338.96 958.05 337.32 959 334 959 C333.67 959.99 333.34 960.98 333 962 C330.89 963.39 328.84 964.62 326.62 965.81 C325.99 966.17 325.35 966.52 324.7 966.88 C321 968.93 317.28 970.93 313.56 972.94 C308.52 975.66 303.62 978.59 298.74 981.58 C295.12 983.78 291.45 985.86 287.72 987.88 C282.06 990.94 276.52 994.2 271 997.5 C264.62 1001.31 258.21 1005.01 251.67 1008.55 C247.48 1010.83 243.33 1013.19 239.19 1015.56 C238.3 1016.07 237.42 1016.58 236.5 1017.1 C229.7 1021 222.94 1024.95 216.19 1028.94 C215.29 1029.47 214.39 1030 213.46 1030.55 C208.8 1033.31 204.19 1036.12 199.65 1039.07 C198 1040 198 1040 195.38 1040.5 C192.42 1041.12 190.92 1042.66 188.7 1044.62 C186.24 1046.62 183.54 1048 180.75 1049.48 C177.97 1051.02 175.27 1052.65 172.57 1054.31 C166.59 1057.97 160.69 1061.26 154.17 1063.93 C151.92 1065.04 150.74 1066.22 149 1068 C147.51 1068.88 145.98 1069.71 144.44 1070.5 C138.4 1073.71 132.61 1077.25 126.81 1080.87 C121.91 1083.9 116.93 1086.71 111.86 1089.45 C106.98 1092.09 102.15 1094.83 97.31 1097.56 C96.33 1098.11 95.35 1098.66 94.34 1099.23 C89.36 1102.05 84.47 1104.9 79.74 1108.13 C78 1109 78 1109 74 1109 C73.67 1109.99 73.34 1110.98 73 1112 C71.42 1113.15 71.42 1113.15 69.39 1114.23 C68.27 1114.84 68.27 1114.84 67.12 1115.46 C66.32 1115.89 65.51 1116.31 64.69 1116.75 C63.03 1117.64 61.38 1118.54 59.73 1119.44 C58.92 1119.87 58.11 1120.31 57.27 1120.76 C50.72 1124.33 44.32 1128.2 37.94 1132.06 C34.65 1134.05 31.32 1135.93 27.94 1137.75 C23.16 1140.33 18.48 1143.05 13.81 1145.81 C10.88 1147.54 7.94 1149.27 5 1151 C4.3 1151.41 3.6 1151.83 2.88 1152.25 C-19.83 1165.6 -42.77 1171.87 -68.99 1165.53 C-87.61 1160.66 -103.63 1149.76 -119.82 1139.73 C-124.77 1136.69 -129.8 1134.02 -135.04 1131.5 C-139.14 1129.42 -143.04 1127.04 -146.96 1124.66 C-151.92 1121.64 -156.91 1118.71 -161.94 1115.81 C-169.34 1111.54 -176.74 1107.25 -184.12 1102.94 C-185.14 1102.34 -186.16 1101.75 -187.21 1101.14 C-191.78 1098.47 -196.36 1095.79 -200.92 1093.1 C-201.67 1092.65 -202.42 1092.21 -203.19 1091.76 C-204.53 1090.96 -205.87 1090.17 -207.21 1089.37 C-210.83 1087.23 -214.49 1085.18 -218.19 1083.17 C-224.4 1079.8 -230.51 1076.29 -236.62 1072.75 C-237.76 1072.09 -238.9 1071.43 -240.08 1070.76 C-247.12 1066.68 -254.14 1062.58 -261.14 1058.44 C-266.48 1055.28 -271.87 1052.23 -277.3 1049.22 C-280.84 1047.25 -284.32 1045.21 -287.79 1043.12 C-293.13 1039.9 -298.56 1036.85 -304 1033.81 C-312.04 1029.3 -319.99 1024.67 -327.8 1019.78 C-332.49 1016.85 -337.29 1014.17 -342.15 1011.54 C-354.97 1004.6 -367.6 997.35 -379.99 989.68 C-384.66 986.79 -389.38 984.1 -394.23 981.52 C-397.71 979.61 -401.1 977.56 -404.5 975.5 C-409.8 972.29 -415.15 969.22 -420.61 966.29 C-423.78 964.58 -426.89 962.8 -430 961 C-430 960.34 -430 959.68 -430 959 C-430.72 958.9 -431.43 958.79 -432.17 958.69 C-435.35 957.92 -437.52 956.7 -440.31 955 C-441.36 954.37 -442.41 953.74 -443.49 953.09 C-444.06 952.75 -444.62 952.41 -445.2 952.06 C-448.41 950.17 -451.68 948.37 -454.94 946.56 C-460.95 943.21 -466.83 939.7 -472.64 936.02 C-476.4 933.76 -480.22 931.68 -484.08 929.59 C-492.79 924.85 -501.39 919.91 -510 915 C-510.82 914.53 -511.65 914.06 -512.5 913.57 C-538.79 898.52 -560.08 881.93 -568.6 851.52 C-571.54 840.59 -571.7 830.05 -571.63 818.8 C-571.64 816.62 -571.65 814.44 -571.66 812.26 C-571.68 806.32 -571.67 800.38 -571.65 794.43 C-571.64 788.01 -571.66 781.58 -571.67 775.15 C-571.7 763.31 -571.69 751.46 -571.68 739.62 C-571.67 728.68 -571.66 717.73 -571.67 706.79 C-571.67 706.06 -571.67 705.33 -571.67 704.58 C-571.67 701.62 -571.67 698.67 -571.68 695.71 C-571.69 668.03 -571.68 640.34 -571.65 612.66 C-571.63 588.1 -571.63 563.54 -571.65 538.98 C-571.68 511.34 -571.69 483.7 -571.67 456.06 C-571.67 453.11 -571.67 450.16 -571.67 447.21 C-571.67 446.49 -571.67 445.76 -571.67 445.01 C-571.66 434.08 -571.67 423.15 -571.68 412.21 C-571.7 399.77 -571.69 387.33 -571.67 374.89 C-571.65 368.55 -571.65 362.21 -571.66 355.86 C-571.68 350.05 -571.67 344.23 -571.64 338.42 C-571.64 336.32 -571.64 334.23 -571.65 332.14 C-571.75 313.55 -568.67 297.73 -559.77 281.32 C-558.31 278.58 -557.08 275.91 -556 273 C-555.34 273 -554.68 273 -554 273 C-552.5 271.52 -552.5 271.52 -550.94 269.56 C-550.3 268.83 -549.67 268.09 -549.01 267.33 C-547.74 265.86 -546.47 264.37 -545.21 262.89 C-535.76 252.57 -522.47 245.54 -510.13 239.18 C-507.96 238.04 -507.96 238.04 -505.98 236.48 C-503.95 234.96 -501.99 233.95 -499.69 232.88 C-495.16 230.66 -490.86 228.18 -486.56 225.56 C-481.54 222.51 -476.49 219.59 -471.31 216.81 C-466.49 214.17 -461.71 211.46 -456.94 208.75 C-456 208.22 -455.05 207.69 -454.08 207.14 C-452.76 206.38 -452.76 206.38 -451.4 205.61 C-450.6 205.16 -449.8 204.7 -448.98 204.23 C-446.87 203.03 -446.87 203.03 -445 201 C-443.35 200.15 -441.68 199.35 -440 198.56 C-433.4 195.35 -427.24 191.55 -421.06 187.61 C-420.31 187.14 -419.57 186.68 -418.81 186.2 C-418.15 185.77 -417.48 185.35 -416.8 184.91 C-415 184 -415 184 -412 184 C-412 183.34 -412 182.68 -412 182 C-411.43 181.73 -410.86 181.46 -410.27 181.19 C-403.99 178.15 -398.11 174.65 -392.19 170.96 C-388.65 168.79 -385.04 166.81 -381.38 164.85 C-378.47 163.26 -375.59 161.62 -372.71 159.96 C-371.77 159.41 -370.82 158.87 -369.84 158.3 C-367.92 157.19 -366 156.08 -364.08 154.96 C-363.2 154.45 -362.31 153.94 -361.4 153.41 C-360.2 152.72 -360.2 152.72 -358.98 152.01 C-357 151 -357 151 -355 151 C-355 150.34 -355 149.68 -355 149 C-354.33 148.68 -353.66 148.37 -352.97 148.04 C-344.46 143.9 -336.39 139.18 -328.26 134.34 C-323.78 131.68 -319.27 129.08 -314.75 126.48 C-310.48 124.01 -306.2 121.54 -301.94 119.04 C-299.57 117.66 -297.19 116.28 -294.82 114.9 C-293.09 113.89 -291.36 112.88 -289.63 111.86 C-288.57 111.25 -287.51 110.63 -286.41 109.99 C-285.46 109.44 -284.52 108.89 -283.54 108.32 C-281 107 -281 107 -278.72 106.5 C-277.87 106.25 -277.87 106.25 -277 106 C-276.67 105.01 -276.34 104.02 -276 103 C-273.68 102.3 -271.34 101.63 -269 101 C-268.67 100.34 -268.34 99.68 -268 99 C-266.13 97.98 -264.23 97.04 -262.31 96.12 C-258.86 94.45 -255.52 92.82 -252.38 90.62 C-250 89 -250 89 -248 89 C-247.67 88.34 -247.34 87.68 -247 87 C-245.3 85.92 -245.3 85.92 -243.09 84.75 C-242.27 84.31 -241.46 83.87 -240.62 83.41 C-239.76 82.95 -238.89 82.48 -238 82 C-236.29 81.04 -234.58 80.07 -232.88 79.1 C-232.01 78.6 -231.13 78.1 -230.23 77.59 C-229.35 77.08 -228.47 76.58 -227.56 76.06 C-226.25 75.31 -226.25 75.31 -224.9 74.55 C-219.59 71.51 -214.33 68.4 -209.11 65.2 C-207 64 -207 64 -204 63 C-203.34 62.34 -202.68 61.68 -202 61 C-200.46 60.11 -198.89 59.26 -197.31 58.44 C-191.81 55.49 -186.46 52.32 -181.13 49.07 C-178.68 47.59 -176.25 46.13 -173.68 44.86 C-171.8 44.01 -171.8 44.01 -170 42 C-167.7 40.77 -165.4 39.59 -163.06 38.44 C-162.43 38.12 -161.8 37.8 -161.14 37.48 C-158.45 36.15 -155.85 34.95 -153 34 C-152.67 33.34 -152.34 32.68 -152 32 C-150.43 30.99 -150.43 30.99 -148.31 29.88 C-144.21 27.67 -140.16 25.39 -136.12 23.06 C-132.07 20.73 -128 18.45 -123.88 16.25 C-117.35 12.74 -111.04 8.84 -104.73 4.96 C-103.47 4.2 -103.47 4.2 -102.18 3.41 C-101.43 2.95 -100.67 2.48 -99.89 2.01 C-98 1 -98 1 -96 1 C-95.67 0.34 -95.34 -0.32 -95 -1 C-92.34 -2.59 -89.49 -3.82 -86.69 -5.12 C-85.91 -5.5 -85.14 -5.87 -84.35 -6.25 C-83.6 -6.61 -82.85 -6.96 -82.07 -7.32 C-81.39 -7.64 -80.7 -7.97 -80 -8.3 C-78 -9 -78 -9 -74 -9 C-74 -9.66 -74 -10.32 -74 -11 C-46.86 -15.86 -24.03 -14.2 0 0 Z " fill="#27DABD" transform="translate(688,63)"/>
<path d="M0 0 C2.1 0.08 4.2 0.1 6.3 0.11 C17.68 0.31 17.68 0.31 22.28 3.77 C23.27 5.25 23.27 5.25 24.28 6.77 C25.27 7.1 26.26 7.43 27.28 7.77 C28.97 9.41 30.63 11.08 32.28 12.77 C34.36 14.62 36.46 16.46 38.59 18.27 C39.49 19.04 39.49 19.04 40.42 19.83 C48.91 27.04 57.53 34.1 66.33 40.93 C67.3 41.68 67.3 41.68 68.28 42.44 C69.49 43.39 70.71 44.32 71.94 45.25 C74.58 47.3 76.4 48.95 78.28 51.77 C78.53 54.16 78.53 54.16 78.53 57.05 C78.54 58.69 78.54 58.69 78.55 60.37 C78.54 62.17 78.54 62.17 78.53 64.01 C78.54 65.91 78.54 65.91 78.55 67.84 C78.55 71.32 78.55 74.79 78.54 78.26 C78.54 81.89 78.54 85.52 78.55 89.15 C78.55 95.24 78.55 101.33 78.54 107.43 C78.53 114.48 78.53 121.53 78.54 128.58 C78.55 134.63 78.55 140.68 78.55 146.73 C78.54 150.34 78.54 153.96 78.55 157.57 C78.56 161.6 78.55 165.63 78.53 169.66 C78.54 170.86 78.54 172.06 78.55 173.3 C78.54 174.4 78.54 175.49 78.53 176.61 C78.53 178.04 78.53 178.04 78.53 179.5 C78.28 181.77 78.28 181.77 76.28 183.77 C73.71 184.02 73.71 184.02 70.39 184.02 C68.51 184.03 68.51 184.03 66.59 184.04 C65.2 184.04 63.8 184.03 62.4 184.03 C60.94 184.03 59.47 184.03 58.01 184.04 C54.02 184.05 50.04 184.04 46.05 184.04 C41.89 184.03 37.72 184.04 33.56 184.04 C26.56 184.04 19.57 184.04 12.57 184.03 C4.48 184.02 -3.61 184.02 -11.71 184.03 C-18.65 184.04 -25.59 184.04 -32.53 184.04 C-36.68 184.03 -40.83 184.03 -44.98 184.04 C-48.88 184.05 -52.78 184.04 -56.68 184.03 C-58.12 184.03 -59.55 184.03 -60.98 184.03 C-62.94 184.04 -64.89 184.03 -66.84 184.02 C-68.48 184.02 -68.48 184.02 -70.16 184.02 C-72.72 183.77 -72.72 183.77 -74.72 181.77 C-75 179.49 -75 179.49 -75.03 176.58 C-75.05 175.48 -75.07 174.38 -75.08 173.24 C-75.09 172.03 -75.1 170.82 -75.11 169.57 C-75.13 168.29 -75.14 167.02 -75.16 165.71 C-75.21 161.48 -75.24 157.25 -75.27 153.01 C-75.28 151.56 -75.29 150.1 -75.3 148.64 C-75.35 142.57 -75.38 136.51 -75.41 130.44 C-75.44 121.75 -75.51 113.07 -75.62 104.38 C-75.7 98.27 -75.74 92.16 -75.75 86.05 C-75.75 82.4 -75.78 78.75 -75.84 75.1 C-75.91 71.03 -75.91 66.95 -75.89 62.88 C-75.92 61.68 -75.96 60.48 -75.99 59.24 C-75.92 54.23 -75.75 51.04 -72.54 47.05 C-70.03 44.77 -67.48 42.74 -64.72 40.77 C-63.61 39.88 -62.5 38.99 -61.4 38.09 C-60.43 37.36 -59.47 36.64 -58.47 35.89 C-57.36 35.05 -56.25 34.21 -55.14 33.37 C-54.58 32.94 -54.02 32.52 -53.44 32.08 C-50.53 29.86 -47.66 27.6 -44.79 25.33 C-44.21 24.88 -43.63 24.42 -43.03 23.95 C-41.86 23.03 -40.68 22.1 -39.51 21.17 C-37.7 19.75 -35.89 18.33 -34.08 16.91 C-33.48 16.44 -32.87 15.96 -32.25 15.47 C-31.12 14.59 -30 13.71 -28.87 12.82 C-28.08 12.2 -28.08 12.2 -27.27 11.57 C-26.71 11.14 -26.15 10.72 -25.57 10.28 C-23.62 8.74 -23.62 8.74 -21.63 6.68 C-14.91 0.37 -8.92 -0.35 0 0 Z " fill="#02233C" transform="translate(637.724365234375,783.231689453125)"/>
<path d="M0 0 C7.74 0.01 12.43 1.01 18.09 6.34 C25.09 13.74 27.4 19.81 27.31 29.82 C27.32 31.24 27.32 31.24 27.32 32.68 C27.33 35.85 27.32 39.01 27.3 42.18 C27.31 44.47 27.31 46.76 27.31 49.05 C27.32 55.35 27.31 61.65 27.3 67.95 C27.29 74.04 27.29 80.13 27.3 86.23 C27.31 98.69 27.3 111.16 27.29 123.62 C27.27 135.96 27.26 148.3 27.26 160.65 C27.26 161.41 27.26 162.18 27.26 162.97 C27.26 166.09 27.26 169.2 27.26 172.32 C27.26 200.7 27.24 229.09 27.22 257.48 C27.2 284.3 27.18 311.11 27.18 337.93 C27.18 338.75 27.18 339.58 27.18 340.43 C27.18 343.76 27.18 347.1 27.18 350.43 C27.18 352.09 27.18 353.75 27.18 355.41 C27.18 357.07 27.17 358.72 27.17 360.38 C27.17 386.72 27.16 413.07 27.15 439.42 C27.14 447.13 27.14 454.85 27.14 462.57 C27.13 478.81 27.13 495.04 27.11 511.27 C27.1 517.99 27.1 524.71 27.1 531.42 C27.1 537.56 27.09 543.7 27.08 549.83 C27.08 552.06 27.08 554.29 27.08 556.52 C27.08 559.54 27.08 562.55 27.07 565.56 C27.07 566.44 27.07 567.33 27.07 568.24 C27.05 574.2 27.05 574.2 25.94 575.31 C21.56 575.55 17.17 575.54 12.78 575.55 C10.58 575.56 8.38 575.59 6.17 575.62 C4.77 575.63 3.38 575.64 1.98 575.64 C0.7 575.65 -0.58 575.66 -1.89 575.67 C-5.06 575.31 -5.06 575.31 -6.74 574.04 C-8.35 571.94 -8.44 570.91 -8.44 568.28 C-8.44 567.45 -8.45 566.63 -8.46 565.78 C-8.45 564.87 -8.44 563.96 -8.43 563.03 C-8.44 562.06 -8.44 561.09 -8.45 560.1 C-8.45 556.83 -8.44 553.55 -8.43 550.28 C-8.43 547.92 -8.44 545.57 -8.44 543.21 C-8.45 538.07 -8.44 532.93 -8.43 527.79 C-8.42 520.14 -8.42 512.5 -8.42 504.85 C-8.43 492 -8.42 479.14 -8.41 466.28 C-8.4 453.54 -8.39 440.81 -8.39 428.07 C-8.39 427.28 -8.39 426.49 -8.39 425.67 C-8.39 422.46 -8.39 419.25 -8.39 416.04 C-8.38 386.75 -8.37 357.47 -8.34 328.18 C-8.32 300.52 -8.31 272.85 -8.3 245.18 C-8.3 244.33 -8.3 243.48 -8.3 242.6 C-8.3 239.16 -8.3 235.72 -8.3 232.29 C-8.3 230.58 -8.3 228.86 -8.3 227.15 C-8.3 225.44 -8.3 223.73 -8.3 222.03 C-8.3 194.85 -8.28 167.68 -8.27 140.51 C-8.27 132.54 -8.26 124.58 -8.26 116.62 C-8.26 99.87 -8.25 83.12 -8.23 66.36 C-8.23 59.43 -8.22 52.5 -8.22 45.57 C-8.22 39.24 -8.22 32.91 -8.21 26.57 C-8.2 24.27 -8.2 21.97 -8.2 19.67 C-8.21 16.56 -8.2 13.45 -8.19 10.34 C-8.2 9.43 -8.2 8.52 -8.2 7.58 C-8.17 -0.1 -7.58 0.14 0 0 Z " fill="#02253E" transform="translate(747.0625,391.6875)"/>
<path d="M0 0 C1.96 1.52 2.88 2.41 3.37 4.87 C3.37 5.94 3.37 5.94 3.37 7.03 C3.38 7.85 3.39 8.67 3.4 9.52 C3.39 10.88 3.39 10.88 3.37 12.27 C3.38 13.23 3.38 14.2 3.39 15.19 C3.4 18.46 3.39 21.72 3.37 24.99 C3.38 27.34 3.38 29.69 3.39 32.04 C3.39 37.17 3.39 42.3 3.38 47.43 C3.37 55.06 3.37 62.69 3.38 70.32 C3.39 83.94 3.39 97.57 3.38 111.19 C3.37 123.11 3.36 135.03 3.36 146.95 C3.36 147.74 3.36 148.53 3.36 149.34 C3.36 152.55 3.36 155.75 3.36 158.96 C3.37 189.05 3.36 219.14 3.33 249.23 C3.32 275.98 3.31 302.73 3.32 329.48 C3.32 331.2 3.32 332.92 3.32 334.64 C3.32 335.49 3.32 336.34 3.32 337.21 C3.32 341.49 3.32 345.76 3.32 350.03 C3.32 350.88 3.32 351.72 3.32 352.59 C3.32 374.92 3.32 397.25 3.31 419.59 C3.31 421.99 3.31 424.39 3.31 426.79 C3.31 428.38 3.31 429.98 3.31 431.57 C3.3 442.7 3.3 453.82 3.3 464.95 C3.31 479.28 3.3 493.61 3.29 507.95 C3.28 515.54 3.27 523.12 3.28 530.71 C3.28 536.36 3.28 542.01 3.27 547.66 C3.26 549.96 3.26 552.26 3.27 554.55 C3.27 557.66 3.26 560.76 3.25 563.86 C3.26 565.22 3.26 565.22 3.27 566.61 C3.23 572.77 3.23 572.77 1 575 C-3.26 575.4 -7.53 575.33 -11.8 575.32 C-13.93 575.31 -16.05 575.34 -18.17 575.36 C-19.52 575.36 -20.87 575.36 -22.21 575.36 C-23.44 575.37 -24.67 575.37 -25.94 575.37 C-29 575 -29 575 -30.67 573.72 C-33.04 570.66 -32.41 566.74 -32.39 563.02 C-32.39 561.62 -32.39 561.62 -32.4 560.19 C-32.42 557.03 -32.41 553.87 -32.4 550.71 C-32.41 548.44 -32.41 546.16 -32.42 543.88 C-32.44 537.6 -32.44 531.33 -32.44 525.05 C-32.44 518.98 -32.45 512.91 -32.46 506.84 C-32.49 492.88 -32.5 478.93 -32.5 464.98 C-32.5 454.2 -32.51 443.42 -32.52 432.65 C-32.52 429.55 -32.52 426.45 -32.53 423.35 C-32.53 422.58 -32.53 421.81 -32.53 421.01 C-32.55 399.33 -32.56 377.65 -32.56 355.96 C-32.56 355.15 -32.56 354.33 -32.56 353.49 C-32.56 349.34 -32.56 345.19 -32.56 341.05 C-32.56 340.22 -32.56 339.4 -32.56 338.55 C-32.56 336.89 -32.56 335.22 -32.56 333.56 C-32.55 307.66 -32.58 281.76 -32.62 255.86 C-32.66 226.77 -32.69 197.68 -32.69 168.59 C-32.69 165.49 -32.69 162.39 -32.69 159.29 C-32.69 158.52 -32.69 157.76 -32.69 156.97 C-32.69 144.68 -32.71 132.39 -32.73 120.1 C-32.76 107.74 -32.76 95.38 -32.74 83.02 C-32.73 76.33 -32.73 69.64 -32.76 62.94 C-32.78 56.81 -32.77 50.68 -32.75 44.56 C-32.74 42.34 -32.75 40.12 -32.77 37.9 C-32.92 16.18 -32.92 16.18 -24.2 7.13 C-17.36 0.57 -9.3 -1.39 0 0 Z " fill="#02253E" transform="translate(536,392)"/>
<path d="M0 0 C4.47 3.06 6.6 8.31 8.04 13.4 C9.11 20.08 8.83 26.91 8.78 33.66 C8.78 35.71 8.79 37.77 8.8 39.82 C8.81 45.45 8.79 51.07 8.77 56.7 C8.74 62.77 8.76 68.84 8.77 74.92 C8.78 85.43 8.76 95.95 8.74 106.46 C8.71 117.49 8.69 128.52 8.69 139.54 C8.69 140.23 8.69 140.91 8.69 141.62 C8.69 144.41 8.69 147.2 8.69 149.98 C8.68 175.36 8.65 200.73 8.6 226.11 C8.56 250.07 8.53 274.03 8.52 297.99 C8.52 299.1 8.52 299.1 8.52 300.23 C8.52 303.21 8.52 306.19 8.52 309.17 C8.52 310.65 8.52 312.14 8.52 313.62 C8.52 315.1 8.52 316.58 8.51 318.07 C8.51 341.62 8.48 365.18 8.46 388.74 C8.45 395.64 8.45 402.54 8.44 409.43 C8.43 423.94 8.42 438.44 8.38 452.95 C8.37 458.95 8.36 464.94 8.36 470.94 C8.36 476.43 8.35 481.91 8.33 487.39 C8.32 489.38 8.32 491.38 8.32 493.37 C8.33 496.06 8.32 498.75 8.3 501.44 C8.31 502.23 8.31 503.01 8.31 503.83 C8.27 509.17 8.27 509.17 6.04 511.4 C3.09 511.66 3.09 511.66 -0.65 511.66 C-1.63 511.67 -1.63 511.67 -2.64 511.67 C-4.03 511.67 -5.43 511.67 -6.82 511.66 C-8.95 511.65 -11.08 511.66 -13.22 511.67 C-14.57 511.67 -15.92 511.67 -17.27 511.66 C-19.12 511.66 -19.12 511.66 -21.01 511.66 C-23.96 511.4 -23.96 511.4 -25.96 509.4 C-26.16 506.7 -26.24 504.1 -26.23 501.4 C-26.23 500.56 -26.24 499.73 -26.24 498.86 C-26.25 496.01 -26.25 493.17 -26.25 490.32 C-26.26 488.28 -26.27 486.23 -26.27 484.18 C-26.29 478.53 -26.3 472.87 -26.31 467.22 C-26.31 461.14 -26.33 455.05 -26.35 448.96 C-26.38 437.72 -26.4 426.48 -26.42 415.23 C-26.44 404.84 -26.46 394.46 -26.48 384.07 C-26.48 383.38 -26.48 382.69 -26.48 381.98 C-26.49 379.19 -26.5 376.4 -26.5 373.6 C-26.56 347.38 -26.61 321.16 -26.65 294.93 C-26.69 271.62 -26.74 248.32 -26.79 225.01 C-26.86 198.84 -26.91 172.67 -26.96 146.5 C-26.97 143.71 -26.97 140.92 -26.98 138.13 C-26.98 137.44 -26.98 136.76 -26.98 136.05 C-27 125.67 -27.02 115.29 -27.05 104.91 C-27.08 93.11 -27.1 81.3 -27.11 69.5 C-27.12 63.48 -27.13 57.45 -27.15 51.42 C-27.16 45.91 -27.17 40.4 -27.17 34.89 C-27.17 32.89 -27.18 30.89 -27.19 28.89 C-27.2 26.19 -27.2 23.48 -27.2 20.77 C-27.2 19.99 -27.21 19.2 -27.21 18.4 C-27.18 11.87 -25.78 7.7 -21.44 2.76 C-15.63 -2.58 -7.02 -3.15 0 0 Z " fill="#02233D" transform="translate(648.9596581459045,251.6011120080948)"/>
<path d="M0 0 C7.85 0.08 13.62 1.6 19.37 7.1 C28.17 17.75 28.13 29.86 28.04 42.93 C28.05 44.82 28.05 46.7 28.05 48.58 C28.06 53.73 28.05 58.88 28.03 64.03 C28.01 69.6 28.02 75.16 28.02 80.72 C28.02 90.35 28.01 99.99 27.99 109.62 C27.95 123.54 27.94 137.47 27.94 151.39 C27.93 173.99 27.9 196.58 27.86 219.17 C27.83 241.12 27.8 263.06 27.78 285.01 C27.78 285.69 27.78 286.36 27.78 287.06 C27.78 293.86 27.77 300.66 27.77 307.45 C27.72 364.43 27.65 421.4 27.56 478.38 C23.83 476.96 21.31 475.54 18.38 472.81 C15.68 470.29 15.68 470.29 12.56 468.38 C12.56 467.71 12.56 467.06 12.56 466.38 C11.57 466.05 10.58 465.71 9.56 465.38 C9.56 464.71 9.56 464.06 9.56 463.38 C8.76 463.11 7.95 462.84 7.12 462.56 C6.28 462.17 5.43 461.78 4.56 461.38 C4.07 459.89 4.07 459.89 3.56 458.38 C1.55 457.64 1.55 457.64 -0.44 457.38 C-0.44 456.71 -0.44 456.06 -0.44 455.38 C-1.22 455.09 -2 454.8 -2.81 454.5 C-5.44 453.38 -5.44 453.38 -7.44 451.38 C-7.63 448.91 -7.7 446.57 -7.69 444.1 C-7.69 443.34 -7.69 442.58 -7.69 441.8 C-7.7 439.22 -7.69 436.64 -7.68 434.06 C-7.69 432.2 -7.69 430.34 -7.69 428.49 C-7.7 423.36 -7.69 418.24 -7.68 413.11 C-7.68 407.6 -7.68 402.08 -7.69 396.56 C-7.69 385.74 -7.69 374.92 -7.68 364.11 C-7.67 351.52 -7.67 338.94 -7.67 326.35 C-7.67 303.23 -7.66 280.11 -7.64 256.98 C-7.63 235.86 -7.62 214.73 -7.62 193.6 C-7.62 192.24 -7.62 190.89 -7.62 189.53 C-7.62 188.86 -7.62 188.19 -7.62 187.5 C-7.62 184.12 -7.62 180.75 -7.62 177.37 C-7.62 176.71 -7.62 176.04 -7.62 175.35 C-7.62 153.94 -7.62 132.52 -7.61 111.11 C-7.61 102.32 -7.6 93.54 -7.6 84.76 C-7.6 74.06 -7.6 63.37 -7.59 52.67 C-7.59 47.21 -7.58 41.75 -7.58 36.29 C-7.58 31.29 -7.58 26.3 -7.57 21.31 C-7.57 19.5 -7.57 17.68 -7.57 15.87 C-7.58 13.42 -7.57 10.97 -7.57 8.52 C-7.57 7.8 -7.57 7.08 -7.57 6.34 C-7.54 -0.2 -6.38 0.18 0 0 Z " fill="#02223C" transform="translate(688.4375,327.625)"/>
<path d="M0 0 C1.23 -0.01 2.46 -0.01 3.73 -0.02 C6.81 0.25 6.81 0.25 8.81 2.25 C9.02 4.69 9.1 7.02 9.09 9.47 C9.09 10.22 9.1 10.98 9.11 11.76 C9.12 14.32 9.12 16.88 9.13 19.44 C9.14 21.28 9.15 23.12 9.16 24.97 C9.18 30.05 9.19 35.14 9.21 40.23 C9.22 45.7 9.25 51.18 9.27 56.66 C9.32 69.9 9.36 83.14 9.39 96.38 C9.39 100.11 9.4 103.85 9.41 107.59 C9.47 130.79 9.52 153.99 9.55 177.18 C9.55 182.56 9.56 187.94 9.57 193.31 C9.57 193.98 9.57 194.65 9.57 195.34 C9.6 216.99 9.67 238.64 9.76 260.29 C9.86 283.18 9.92 306.07 9.93 328.96 C9.94 341.44 9.96 353.91 10.04 366.39 C10.1 377.02 10.12 387.64 10.1 398.27 C10.09 403.69 10.1 409.12 10.15 414.54 C10.2 419.51 10.2 424.47 10.16 429.44 C10.15 431.23 10.16 433.03 10.2 434.82 C10.43 448.22 10.43 448.22 6.43 453.24 C3.66 455.54 0.9 457.41 -2.19 459.25 C-3.67 460.34 -5.14 461.45 -6.59 462.58 C-8.59 464.05 -10.59 465.52 -12.6 466.98 C-15.61 469.21 -18.44 471.4 -21.04 474.11 C-23.19 476.25 -23.19 476.25 -25.19 476.25 C-26.68 473.27 -26.33 470.21 -26.32 466.94 C-26.33 466.18 -26.33 465.41 -26.33 464.62 C-26.34 462.03 -26.34 459.43 -26.34 456.84 C-26.35 454.97 -26.35 453.11 -26.35 451.24 C-26.37 446.09 -26.37 440.93 -26.38 435.78 C-26.38 430.23 -26.39 424.68 -26.41 419.14 C-26.43 405.72 -26.44 392.31 -26.46 378.9 C-26.46 375.11 -26.46 371.32 -26.47 367.54 C-26.49 344.03 -26.52 320.53 -26.53 297.02 C-26.53 291.57 -26.53 286.13 -26.54 280.68 C-26.54 279.66 -26.54 279.66 -26.54 278.63 C-26.55 256.69 -26.58 234.75 -26.62 212.82 C-26.67 189.63 -26.69 166.44 -26.7 143.25 C-26.7 130.61 -26.71 117.97 -26.75 105.33 C-26.77 94.56 -26.79 83.79 -26.77 73.02 C-26.77 67.53 -26.77 62.04 -26.8 56.54 C-26.82 51.51 -26.82 46.48 -26.8 41.45 C-26.8 39.63 -26.8 37.81 -26.82 35.99 C-26.9 24.99 -26.37 16.29 -18.91 7.59 C-18.17 6.99 -17.44 6.38 -16.69 5.75 C-15.96 5.12 -15.22 4.49 -14.47 3.84 C-9.68 0.5 -5.8 -0.02 0 0 Z " fill="#02253E" transform="translate(589.1875,327.75)"/>
<path d="M0 0 C1.84 0.06 3.67 0.2 5.5 0.38 C6.5 0.47 7.5 0.56 8.53 0.65 C11 1 11 1 12 2 C12.1 3.64 12.13 5.28 12.13 6.91 C12.13 7.99 12.13 9.06 12.13 10.16 C12.13 11.35 12.13 12.54 12.13 13.77 C12.13 15.02 12.13 16.28 12.13 17.57 C12.14 21.06 12.13 24.56 12.13 28.06 C12.13 31.82 12.13 35.58 12.13 39.35 C12.14 46.73 12.14 54.11 12.14 61.49 C12.13 67.49 12.13 73.48 12.13 79.48 C12.13 80.33 12.13 81.18 12.13 82.06 C12.13 83.79 12.13 85.52 12.14 87.25 C12.14 103.49 12.13 119.73 12.13 135.96 C12.12 149.91 12.13 163.86 12.13 177.81 C12.14 193.99 12.14 210.17 12.13 226.35 C12.13 228.08 12.13 229.8 12.13 231.52 C12.13 232.8 12.13 232.8 12.13 234.09 C12.13 240.09 12.13 246.08 12.14 252.07 C12.14 259.37 12.14 266.66 12.13 273.96 C12.13 277.69 12.13 281.41 12.13 285.14 C12.14 289.17 12.13 293.2 12.13 297.23 C12.13 298.42 12.13 299.61 12.13 300.84 C12.13 302.45 12.13 302.45 12.13 304.09 C12.13 305.02 12.13 305.95 12.13 306.91 C12 309 12 309 11 310 C8.74 310.1 6.48 310.13 4.23 310.13 C3.21 310.13 3.21 310.13 2.17 310.14 C0.73 310.14 -0.71 310.13 -2.16 310.13 C-4.36 310.13 -6.56 310.13 -8.77 310.14 C-10.16 310.14 -11.56 310.13 -12.96 310.13 C-14.24 310.13 -15.51 310.13 -16.83 310.13 C-20 310 -20 310 -23 309 C-23.09 272.75 -23.16 236.51 -23.2 200.26 C-23.21 195.98 -23.21 191.69 -23.22 187.41 C-23.22 186.56 -23.22 185.71 -23.22 184.83 C-23.24 171.04 -23.27 157.24 -23.31 143.45 C-23.35 129.29 -23.37 115.14 -23.38 100.98 C-23.38 92.25 -23.4 83.51 -23.43 74.78 C-23.45 68.79 -23.46 62.8 -23.45 56.8 C-23.45 53.35 -23.46 49.9 -23.48 46.44 C-23.5 42.69 -23.49 38.93 -23.48 35.18 C-23.49 34.1 -23.5 33.02 -23.52 31.91 C-23.44 22.67 -21.58 14.56 -15.38 7.5 C-11.61 4.03 -7.95 2.61 -3 1.47 C-1.01 1.19 -1.01 1.19 0 0 Z " fill="#02233D" transform="translate(468,657)"/>
<path d="M0 0 C1.95 0.24 1.95 0.24 4.12 0.88 C4.85 1.08 5.57 1.28 6.32 1.49 C6.87 1.66 7.43 1.83 8 2 C8.33 1.34 8.66 0.68 9 0 C22.17 4.94 22.17 4.94 26 10 C26 10.66 26 11.32 26 12 C26.66 12 27.32 12 28 12 C28.66 13.33 29.3 14.66 29.94 16 C30.48 17.11 30.48 17.11 31.03 18.25 C33.53 25.33 33.14 33.03 33.13 40.44 C33.14 41.58 33.14 42.71 33.14 43.88 C33.15 47.67 33.15 51.47 33.15 55.26 C33.15 57.98 33.15 60.7 33.16 63.42 C33.16 70.04 33.17 76.66 33.17 83.28 C33.17 88.66 33.17 94.04 33.17 99.42 C33.18 114.67 33.19 129.93 33.19 145.19 C33.19 146.01 33.19 146.83 33.19 147.68 C33.19 148.5 33.19 149.32 33.19 150.17 C33.18 163.51 33.19 176.86 33.21 190.21 C33.22 203.92 33.23 217.62 33.23 231.33 C33.23 239.03 33.23 246.72 33.24 254.42 C33.25 260.96 33.25 267.51 33.25 274.06 C33.24 277.4 33.24 280.74 33.25 284.08 C33.26 287.7 33.25 291.32 33.25 294.94 C33.25 295.99 33.26 297.05 33.26 298.14 C33.26 299.6 33.26 299.6 33.25 301.08 C33.25 301.92 33.25 302.75 33.25 303.61 C32.96 306.35 32.12 308.5 31 311 C26.62 311.05 22.24 311.09 17.87 311.11 C16.38 311.12 14.89 311.13 13.4 311.15 C11.26 311.18 9.12 311.19 6.98 311.2 C5.69 311.21 4.4 311.22 3.07 311.23 C0 311 0 311 -2 309 C-2.25 306.79 -2.25 306.79 -2.25 303.96 C-2.26 302.89 -2.26 301.82 -2.27 300.72 C-2.26 299.53 -2.26 298.34 -2.25 297.12 C-2.26 295.86 -2.26 294.61 -2.26 293.32 C-2.27 289.83 -2.27 286.33 -2.26 282.84 C-2.26 279.08 -2.26 275.32 -2.27 271.56 C-2.28 264.18 -2.28 256.81 -2.27 249.44 C-2.27 243.45 -2.27 237.46 -2.27 231.47 C-2.27 230.62 -2.27 229.77 -2.27 228.89 C-2.27 227.16 -2.27 225.43 -2.27 223.7 C-2.28 207.47 -2.27 191.25 -2.26 175.02 C-2.25 161.08 -2.25 147.14 -2.26 133.21 C-2.27 117.04 -2.28 100.87 -2.27 84.7 C-2.27 82.98 -2.27 81.25 -2.27 79.53 C-2.27 78.68 -2.27 77.84 -2.27 76.96 C-2.26 70.98 -2.27 64.99 -2.27 59.01 C-2.28 51.71 -2.28 44.42 -2.27 37.13 C-2.26 33.41 -2.26 29.69 -2.27 25.97 C-2.27 21.94 -2.26 17.91 -2.25 13.88 C-2.26 12.69 -2.26 11.51 -2.27 10.28 C-2.26 8.68 -2.26 8.68 -2.25 7.04 C-2.25 6.1 -2.25 5.17 -2.25 4.21 C-2 2 -2 2 0 0 Z " fill="#02233D" transform="translate(801,656)"/>
<path d="M0 0 C1.64 1.12 1.64 1.12 3 3 C3.37 5.88 3.37 5.88 3.37 9.45 C3.38 10.11 3.38 10.77 3.39 11.45 C3.4 13.66 3.38 15.86 3.37 18.07 C3.37 19.65 3.38 21.24 3.38 22.82 C3.39 27.12 3.38 31.42 3.37 35.72 C3.36 40.21 3.36 44.71 3.36 49.2 C3.37 56.75 3.35 64.3 3.34 71.85 C3.32 80.58 3.31 89.32 3.32 98.05 C3.32 106.44 3.32 114.84 3.31 123.23 C3.3 126.81 3.3 130.38 3.3 133.96 C3.31 138.17 3.3 142.38 3.28 146.58 C3.28 148.13 3.28 149.68 3.28 151.23 C3.28 153.33 3.27 155.44 3.26 157.55 C3.26 158.73 3.26 159.91 3.25 161.12 C3 164 3 164 1 167 C-2.07 167.34 -2.07 167.34 -5.98 167.29 C-6.66 167.29 -7.35 167.28 -8.05 167.28 C-10.24 167.26 -12.43 167.23 -14.62 167.19 C-16.11 167.17 -17.59 167.16 -19.08 167.15 C-22.72 167.11 -26.36 167.06 -30 167 C-31.06 163.83 -31.15 161.52 -31.19 158.19 C-31.2 156.98 -31.22 155.76 -31.23 154.51 C-31.24 153.17 -31.26 151.82 -31.27 150.48 C-31.28 149.06 -31.3 147.64 -31.32 146.23 C-31.37 141.58 -31.41 136.92 -31.46 132.27 C-31.47 130.67 -31.49 129.06 -31.5 127.46 C-31.57 119.93 -31.64 112.39 -31.7 104.86 C-31.77 96.17 -31.86 87.49 -31.96 78.8 C-32.04 72.08 -32.1 65.36 -32.15 58.64 C-32.18 54.63 -32.21 50.62 -32.27 46.61 C-32.32 42.83 -32.35 39.05 -32.36 35.28 C-32.37 33.9 -32.39 32.51 -32.41 31.13 C-32.56 22.05 -31.88 16.24 -26.39 8.83 C-18.92 1.38 -10.64 -1.77 0 0 Z " fill="#02243D" transform="translate(419,800)"/>
<path d="M0 0 C7.02 1.75 12 7.19 16 13 C17.68 17.25 18.25 20.78 18.24 25.34 C18.24 26.59 18.25 27.85 18.25 29.14 C18.24 30.51 18.23 31.89 18.23 33.27 C18.23 34.73 18.23 36.19 18.23 37.64 C18.23 41.59 18.22 45.54 18.2 49.49 C18.19 53.63 18.19 57.76 18.19 61.89 C18.18 69.71 18.16 77.53 18.14 85.35 C18.12 94.25 18.11 103.16 18.1 112.06 C18.08 130.37 18.04 148.69 18 167 C13.64 167.07 9.28 167.13 4.92 167.16 C3.44 167.18 1.95 167.2 0.47 167.23 C-1.66 167.26 -3.79 167.28 -5.93 167.29 C-7.21 167.31 -8.49 167.32 -9.81 167.34 C-13 167 -13 167 -14.92 165.88 C-16.53 163.08 -16.38 160.77 -16.38 157.55 C-16.39 156.56 -16.39 156.56 -16.4 155.55 C-16.41 153.34 -16.4 151.14 -16.39 148.93 C-16.39 147.35 -16.4 145.76 -16.4 144.18 C-16.42 139.88 -16.41 135.58 -16.4 131.28 C-16.4 126.79 -16.4 122.29 -16.41 117.8 C-16.41 110.25 -16.41 102.7 -16.39 95.15 C-16.37 86.42 -16.38 77.68 -16.4 68.95 C-16.41 61.46 -16.41 53.97 -16.4 46.47 C-16.4 42 -16.4 37.52 -16.41 33.04 C-16.42 28.83 -16.41 24.62 -16.39 20.42 C-16.39 18.87 -16.39 17.32 -16.4 15.77 C-16.41 13.67 -16.4 11.56 -16.38 9.45 C-16.38 8.27 -16.38 7.09 -16.38 5.88 C-16 3 -16 3 -14.65 1.12 C-10.61 -1.62 -4.63 -0.47 0 0 Z " fill="#02243D" transform="translate(873,800)"/>
<path d="M0 0 C1.6 -0.04 1.6 -0.04 3.22 -0.08 C4.12 0.03 5.01 0.14 5.94 0.25 C8.18 3.61 8.19 4.69 8.18 8.62 C8.19 9.73 8.19 10.84 8.2 11.99 C8.19 13.21 8.19 14.43 8.18 15.69 C8.18 16.98 8.18 18.26 8.19 19.59 C8.19 23.12 8.18 26.65 8.17 30.18 C8.16 33.86 8.17 37.55 8.17 41.24 C8.17 47.43 8.16 53.63 8.14 59.82 C8.13 66.99 8.12 74.15 8.12 81.32 C8.12 88.21 8.12 95.1 8.11 101.98 C8.11 104.92 8.1 107.85 8.1 110.79 C8.1 114.88 8.09 118.97 8.08 123.07 C8.08 124.29 8.08 125.52 8.08 126.78 C8.08 127.89 8.08 129 8.07 130.14 C8.07 131.11 8.07 132.08 8.07 133.07 C7.94 135.25 7.94 135.25 6.94 136.25 C4.59 136.36 2.26 136.41 -0.09 136.42 C-0.79 136.42 -1.5 136.42 -2.22 136.43 C-3.72 136.43 -5.21 136.44 -6.7 136.44 C-8.99 136.44 -11.27 136.46 -13.56 136.47 C-15.01 136.48 -16.46 136.48 -17.9 136.48 C-18.59 136.49 -19.28 136.49 -19.98 136.5 C-24.83 136.48 -24.83 136.48 -27.06 134.25 C-27.32 132.28 -27.32 132.28 -27.33 129.82 C-27.34 128.89 -27.35 127.96 -27.36 127 C-27.35 125.98 -27.35 124.96 -27.35 123.9 C-27.36 122.82 -27.37 121.75 -27.37 120.64 C-27.39 117.06 -27.4 113.48 -27.4 109.91 C-27.4 107.42 -27.41 104.94 -27.42 102.45 C-27.43 97.23 -27.43 92.02 -27.43 86.8 C-27.43 80.12 -27.46 73.45 -27.49 66.78 C-27.52 61.64 -27.52 56.5 -27.52 51.37 C-27.52 48.91 -27.53 46.45 -27.55 43.99 C-27.57 40.54 -27.56 37.09 -27.55 33.63 C-27.57 32.12 -27.57 32.12 -27.58 30.58 C-27.51 22.34 -25.42 15.82 -20.88 8.94 C-14.9 3.23 -8.26 0.12 0 0 Z " fill="#02253E" transform="translate(357.0625,830.75)"/>
<path d="M0 0 C7.81 2.08 12.47 8.24 16.81 14.69 C18.94 18.82 20.25 22.2 20.25 26.88 C20.25 27.84 20.26 28.8 20.26 29.78 C20.25 30.82 20.25 31.86 20.24 32.92 C20.24 34.03 20.25 35.13 20.25 36.26 C20.25 39.9 20.24 43.54 20.23 47.17 C20.23 49.7 20.23 52.22 20.23 54.74 C20.23 60.03 20.22 65.32 20.21 70.6 C20.19 76.72 20.18 82.84 20.19 88.95 C20.19 94.84 20.18 100.72 20.17 106.6 C20.17 109.11 20.17 111.61 20.17 114.12 C20.16 117.61 20.16 121.1 20.15 124.59 C20.15 125.64 20.15 126.68 20.15 127.76 C20.14 128.7 20.14 129.65 20.13 130.62 C20.13 131.45 20.13 132.28 20.13 133.13 C20 135 20 135 19 136 C16.65 136.11 14.33 136.16 11.97 136.17 C11.27 136.17 10.56 136.17 9.84 136.18 C8.35 136.18 6.85 136.19 5.36 136.19 C3.08 136.19 0.79 136.21 -1.5 136.22 C-2.95 136.23 -4.39 136.23 -5.84 136.23 C-6.53 136.24 -7.21 136.24 -7.92 136.25 C-12.77 136.23 -12.77 136.23 -15 134 C-15.25 131.7 -15.25 131.7 -15.26 128.76 C-15.27 127.1 -15.27 127.1 -15.28 125.4 C-15.28 124.17 -15.28 122.95 -15.27 121.69 C-15.28 120.4 -15.28 119.12 -15.29 117.79 C-15.3 114.27 -15.3 110.74 -15.3 107.21 C-15.3 104.27 -15.31 101.32 -15.31 98.38 C-15.32 91.44 -15.32 84.5 -15.32 77.56 C-15.31 70.39 -15.32 63.23 -15.34 56.06 C-15.36 49.91 -15.37 43.77 -15.36 37.62 C-15.36 33.94 -15.36 30.27 -15.38 26.6 C-15.39 22.5 -15.38 18.41 -15.37 14.31 C-15.38 13.09 -15.39 11.86 -15.4 10.6 C-15.39 9.49 -15.38 8.38 -15.37 7.24 C-15.37 6.27 -15.37 5.3 -15.37 4.3 C-15.25 3.54 -15.13 2.78 -15 2 C-10.3 -1.14 -5.51 -0.55 0 0 Z " fill="#02243D" transform="translate(929,831)"/>
<path d="M0 0 C0.66 0.33 1.32 0.66 2 1 C2.33 165.01 2.66 329.02 3 498 C2.34 498.33 1.68 498.66 1 499 C1 498.34 1 497.68 1 497 C0.34 497 -0.32 497 -1 497 C-1.02 449.84 -1.03 402.67 -1.04 355.51 C-1.04 354.81 -1.04 354.11 -1.04 353.4 C-1.05 338.24 -1.05 323.08 -1.05 307.92 C-1.05 300.49 -1.05 293.06 -1.05 285.62 C-1.06 284.88 -1.06 284.14 -1.06 283.38 C-1.06 259.39 -1.07 235.39 -1.08 211.4 C-1.09 186.75 -1.09 162.1 -1.09 137.45 C-1.09 133.98 -1.09 130.5 -1.09 127.02 C-1.09 126.34 -1.1 125.65 -1.1 124.95 C-1.1 113.91 -1.1 102.87 -1.11 91.83 C-1.11 80.74 -1.11 69.66 -1.11 58.57 C-1.11 52.56 -1.11 46.55 -1.12 40.54 C-1.12 35.04 -1.12 29.55 -1.12 24.06 C-1.12 22.06 -1.12 20.06 -1.12 18.07 C-1.13 15.37 -1.13 12.67 -1.12 9.98 C-1.13 9.19 -1.13 8.4 -1.13 7.59 C-1.11 2.23 -1.11 2.23 0 0 Z " fill="#149389" transform="translate(621,264)"/>
<path d="M0 0 C0.33 0 0.66 0 1 0 C1 149.82 1 299.64 1 454 C0.01 453.67 -0.98 453.34 -2 453 C-1.67 452.34 -1.34 451.68 -1 451 C-0.9 448.56 -0.86 446.15 -0.86 443.71 C-0.86 442.95 -0.86 442.18 -0.85 441.4 C-0.84 438.81 -0.84 436.22 -0.84 433.64 C-0.84 431.78 -0.83 429.91 -0.83 428.05 C-0.81 422.91 -0.81 417.78 -0.8 412.64 C-0.79 407.11 -0.78 401.57 -0.76 396.04 C-0.74 386.45 -0.72 376.86 -0.71 367.27 C-0.69 353.4 -0.66 339.53 -0.63 325.66 C-0.58 303.16 -0.54 280.66 -0.5 258.16 C-0.46 236.3 -0.42 214.44 -0.37 192.58 C-0.37 191.9 -0.37 191.23 -0.37 190.54 C-0.35 183.77 -0.34 177.01 -0.33 170.25 C-0.21 113.5 -0.1 56.75 0 0 Z " fill="#0F5B61" transform="translate(715,352)"/>
<path d="M0 0 C0.66 0.33 1.32 0.66 2 1 C2.33 47.53 2.66 94.06 3 142 C1.68 141.67 0.36 141.34 -1 141 C-1.02 122.91 -1.04 104.82 -1.05 86.73 C-1.06 78.34 -1.06 69.94 -1.08 61.54 C-1.09 54.22 -1.09 46.9 -1.09 39.58 C-1.1 35.71 -1.1 31.83 -1.11 27.95 C-1.11 24.31 -1.11 20.66 -1.11 17.02 C-1.11 15.03 -1.12 13.05 -1.12 11.07 C-1.12 9.9 -1.12 8.73 -1.12 7.52 C-1.12 6.49 -1.12 5.47 -1.12 4.42 C-1 2 -1 2 0 0 Z " fill="#149389" transform="translate(386,824)"/>
<path d="M0 0 C1.96 -0.03 3.92 -0.05 5.88 -0.06 C6.97 -0.07 8.06 -0.09 9.18 -0.1 C12 0 12 0 14 1 C14 1.66 14 2.32 14 3 C7.07 2.5 7.07 2.5 0 2 C0 1.34 0 0.68 0 0 Z " fill="#083D4D" transform="translate(917,831)"/>
<path d="M0 0 C3.12 1.37 5.09 2.87 7.31 5.44 C7.84 6.03 8.38 6.63 8.93 7.25 C9.46 8.11 9.46 8.11 10 9 C9.67 9.99 9.34 10.98 9 12 C6.49 9.67 4.68 7.17 2.81 4.31 C2.28 3.5 1.75 2.7 1.21 1.86 C0.81 1.25 0.41 0.63 0 0 Z " fill="#15968B" transform="translate(938,836)"/>
<path d="M0 0 C1.98 0 3.96 0 6 0 C6 0.33 6 0.66 6 1 C4.02 1 2.04 1 0 1 C0 0.67 0 0.34 0 0 Z " fill="#43FCED" transform="translate(635,47)"/>
<path d="M0 0 C0 0.99 0 1.98 0 3 C-0.66 2.67 -1.32 2.34 -2 2 C-1.34 1.34 -0.68 0.68 0 0 Z " fill="#15948A" transform="translate(613,50)"/>
<path d="M0 0 C3 1 3 1 3 1 Z " fill="#28DBBE" transform="translate(225,272)"/>
<path d="M0 0 C3 1 3 1 3 1 Z " fill="#28DBBE" transform="translate(302,227)"/>
<path d="M0 0 C0.33 0.66 0.66 1.32 1 2 C0.34 1.67 -0.32 1.34 -1 1 C-0.67 0.67 -0.34 0.34 0 0 Z " fill="#28DBBE" transform="translate(369,189)"/>
<path d="M0 0 C0.33 0.66 0.66 1.32 1 2 C0.34 1.67 -0.32 1.34 -1 1 C-0.67 0.67 -0.34 0.34 0 0 Z " fill="#28DBBE" transform="translate(387,179)"/>
<path d="M0 0 C3 1 3 1 3 1 Z " fill="#28DBBE" transform="translate(510,107)"/>
<path d="M0 0 C0.99 0.49 0.99 0.49 2 1 C1.01 1.49 1.01 1.49 0 2 C0 1.34 0 0.68 0 0 Z " fill="#28DBBE" transform="translate(596,57)"/>
<path d="" fill="#28DBBE" transform="translate(0,0)"/>
<path d="M0 0 C2 1 2 1 2 1 Z " fill="#28DBBE" transform="translate(230,270)"/>
<path d="" fill="#28DBBE" transform="translate(0,0)"/>
<path d="M0 0 C2 1 2 1 2 1 Z " fill="#28DBBE" transform="translate(390,177)"/>
<path d="M0 0 C2 1 2 1 2 1 Z " fill="#28DBBE" transform="translate(432,152)"/>
<path d="M0 0 C2 1 2 1 2 1 Z " fill="#28DBBE" transform="translate(457,137)"/>
<path d="M0 0 C2 1 2 1 2 1 Z " fill="#28DBBE" transform="translate(541,89)"/>
<path d="M0 0 C2 1 2 1 2 1 Z " fill="#28DBBE" transform="translate(571,72)"/>
<path d="M0 0 C2 1 2 1 2 1 Z " fill="#28DBBE" transform="translate(585,65)"/>
<path d="" fill="#28DBBE" transform="translate(0,0)"/>
<path d="" fill="#28DBBE" transform="translate(0,0)"/>
<path d="" fill="#28DBBE" transform="translate(0,0)"/>
<path d="" fill="#28DBBE" transform="translate(0,0)"/>
<path d="" fill="#28DBBE" transform="translate(0,0)"/>
<path d="" fill="#28DBBE" transform="translate(0,0)"/>
<path d="" fill="#28DBBE" transform="translate(0,0)"/>
<path d="" fill="#28DBBE" transform="translate(0,0)"/>
<path d="" fill="#28DBBE" transform="translate(0,0)"/>
<path d="" fill="#28DBBE" transform="translate(0,0)"/>
<path d="" fill="#28DBBE" transform="translate(0,0)"/>
<path d="" fill="#28DBBE" transform="translate(0,0)"/>
<path d="" fill="#28DBBE" transform="translate(0,0)"/>
<path d="" fill="#28DBBE" transform="translate(0,0)"/>
<path d="" fill="#28DBBE" transform="translate(0,0)"/>
<path d="" fill="#28DBBE" transform="translate(0,0)"/>
<path d="" fill="#28DBBE" transform="translate(0,0)"/>
<path d="" fill="#28DBBE" transform="translate(0,0)"/>
<path d="" fill="#28DBBE" transform="translate(0,0)"/>
<path d="" fill="#28DBBE" transform="translate(0,0)"/>
<path d="" fill="#28DBBE" transform="translate(0,0)"/>
<path d="" fill="#15948A" transform="translate(0,0)"/>
</svg>
