<svg width="189" height="167" viewBox="0 0 189 167" fill="none" xmlns="http://www.w3.org/2000/svg">
<g id="Frame 344" clip-path="url(#clip0_1798_36165)">
<path id="Polygon 5" d="M6.13556 1.33675C7.28748 0.663961 8.71252 0.663961 9.86444 1.33675L43.4067 20.9276C44.5415 21.5904 45.2391 22.8057 45.2391 24.1198V63.3758C45.2391 64.6899 44.5415 65.9053 43.4068 66.568L9.86444 86.1589C8.71252 86.8316 7.28748 86.8316 6.13556 86.1589L-27.4068 66.568C-28.5415 65.9053 -29.2391 64.6899 -29.2391 63.3758V24.1198C-29.2391 22.8057 -28.5415 21.5904 -27.4068 20.9276L6.13556 1.33675Z" fill="#30406A"/>
<path id="Polygon 4" d="M101.587 3.45399C104.318 1.87738 107.682 1.87739 110.413 3.45399L172.897 39.5291C175.628 41.1058 177.31 44.0194 177.31 47.1726V119.323C177.31 122.476 175.628 125.39 172.897 126.966L110.413 163.042C107.682 164.618 104.318 164.618 101.587 163.042L39.103 126.966C36.3723 125.39 34.69 122.476 34.69 119.323V47.1726C34.69 44.0194 36.3723 41.1058 39.103 39.5291L101.587 3.45399Z" stroke="#40568E" stroke-width="1.1403"/>
</g>
<defs>
<clipPath id="clip0_1798_36165">
<rect width="224" height="166" fill="white" transform="translate(-35 0.247803)"/>
</clipPath>
</defs>
</svg>
