<svg width="116" height="385" viewBox="0 0 116 385" fill="none" xmlns="http://www.w3.org/2000/svg">
<g clip-path="url(#clip0_388_8857)">
<path d="M109.681 84.8711C114.47 82.1059 120.371 82.1059 125.161 84.8711L190.452 122.567C195.241 125.332 198.192 130.442 198.192 135.973V211.364C198.192 216.895 195.241 222.005 190.452 224.77L125.161 262.466C120.371 265.231 114.47 265.231 109.681 262.466L44.39 224.77C39.6005 222.005 36.65 216.895 36.65 211.364V135.973C36.65 130.442 39.6005 125.332 44.39 122.567L109.681 84.8711Z" stroke="#32DBBD" stroke-width="2"/>
<path d="M122.258 288.119C124.264 286.961 126.736 286.961 128.742 288.119L165.126 309.126C167.132 310.284 168.368 312.425 168.368 314.741V356.754C168.368 359.071 167.132 361.211 165.126 362.369L128.742 383.376C126.736 384.534 124.264 384.534 122.258 383.376L85.8737 362.369C83.8676 361.211 82.6317 359.071 82.6317 356.754V314.741C82.6317 312.425 83.8676 310.284 85.8737 309.126L122.258 288.119Z" fill="white"/>
<path d="M46.2581 2.11946C48.2642 0.961238 50.7358 0.961238 52.7419 2.11946L89.1263 23.126C91.1324 24.2842 92.3683 26.4247 92.3683 28.7412V70.7543C92.3683 73.0707 91.1324 75.2112 89.1263 76.3695L52.7419 97.376C50.7358 98.5342 48.2642 98.5342 46.2581 97.376L9.87366 76.3695C7.86756 75.2112 6.63174 73.0707 6.63174 70.7543V28.7412C6.63174 26.4247 7.86756 24.2842 9.87366 23.126L46.2581 2.11946Z" fill="#BFF4EB"/>
</g>
<defs>
<clipPath id="clip0_388_8857">
<rect width="116" height="385" fill="white"/>
</clipPath>
</defs>
</svg>
