<svg width="156" height="325" viewBox="0 0 156 325" fill="none" xmlns="http://www.w3.org/2000/svg">
<g clip-path="url(#clip0_388_8853)">
<path d="M-11.3192 88.8711C-6.52962 86.1059 -0.628685 86.1059 4.16084 88.8711L69.4517 126.567C74.2412 129.332 77.1917 134.442 77.1917 139.973V215.364C77.1917 220.895 74.2412 226.005 69.4517 228.77L4.16084 266.466C-0.628685 269.231 -6.52962 269.231 -11.3192 266.466L-76.61 228.77C-81.3995 226.005 -84.35 220.895 -84.35 215.364V139.973C-84.35 134.442 -81.3995 129.332 -76.61 126.567L-11.3192 88.8711Z" stroke="#32DBBD" stroke-width="2"/>
<path d="M103.258 228.119C105.264 226.961 107.736 226.961 109.742 228.119L146.126 249.126C148.132 250.284 149.368 252.425 149.368 254.741V296.754C149.368 299.071 148.132 301.211 146.126 302.369L109.742 323.376C107.736 324.534 105.264 324.534 103.258 323.376L66.8737 302.369C64.8676 301.211 63.6317 299.071 63.6317 296.754V254.741C63.6317 252.425 64.8676 250.284 66.8737 249.126L103.258 228.119Z" fill="white"/>
<path d="M53.2581 2.11946C55.2642 0.961238 57.7358 0.961238 59.7419 2.11946L96.1263 23.126C98.1324 24.2842 99.3683 26.4247 99.3683 28.7412V70.7543C99.3683 73.0707 98.1324 75.2112 96.1263 76.3695L59.7419 97.376C57.7358 98.5342 55.2642 98.5342 53.2581 97.376L16.8737 76.3695C14.8676 75.2112 13.6317 73.0707 13.6317 70.7543V28.7412C13.6317 26.4247 14.8676 24.2842 16.8737 23.126L53.2581 2.11946Z" fill="#BFF4EB"/>
</g>
<defs>
<clipPath id="clip0_388_8853">
<rect width="156" height="325" fill="white"/>
</clipPath>
</defs>
</svg>
