<svg width="178" height="163" viewBox="0 0 178 163" fill="none" xmlns="http://www.w3.org/2000/svg">
<path d="M41.1356 24.0889C42.2875 23.4162 43.7125 23.4162 44.8644 24.0889L78.4067 43.6798C79.5415 44.3426 80.2391 45.5579 80.2391 46.872V86.128C80.2391 87.4421 79.5415 88.6574 78.4068 89.3202L44.8644 108.911C43.7125 109.584 42.2875 109.584 41.1356 108.911L7.59325 89.3202C6.45851 88.6574 5.76091 87.4421 5.76091 86.128V46.872C5.76091 45.5579 6.45851 44.3426 7.59324 43.6798L41.1356 24.0889Z" fill="#BFF4EB"/>
<path d="M136.587 3.20619C139.318 1.62958 142.682 1.62958 145.413 3.20619L207.897 39.2813C210.628 40.858 212.31 43.7716 212.31 46.9248V119.075C212.31 122.228 210.628 125.142 207.897 126.719L145.413 162.794C142.682 164.37 139.318 164.37 136.587 162.794L74.103 126.719C71.3723 125.142 69.69 122.228 69.69 119.075V46.9248C69.69 43.7716 71.3723 40.8579 74.103 39.2813L136.587 3.20619Z" stroke="#32DBBD" stroke-width="1.1403"/>
<path d="M124.652 140.067C125.795 139.407 127.205 139.407 128.348 140.067L142.405 148.183C143.549 148.843 144.254 150.064 144.254 151.384V167.616C144.254 168.936 143.549 170.157 142.405 170.817L128.348 178.933C127.205 179.593 125.795 179.593 124.652 178.933L110.595 170.817C109.451 170.157 108.746 168.936 108.746 167.616V151.384C108.746 150.064 109.451 148.843 110.595 148.183L124.652 140.067Z" fill="#BFF4EB"/>
</svg>
