<svg width="156" height="218" viewBox="0 0 156 218" fill="none" xmlns="http://www.w3.org/2000/svg">
<g clip-path="url(#clip0_1400_103906)">
<path d="M-11.3192 88.8712C-6.52962 86.106 -0.628685 86.106 4.16084 88.8712L69.4517 126.567C74.2412 129.332 77.1917 134.442 77.1917 139.973V215.364C77.1917 220.895 74.2412 226.005 69.4517 228.77L4.16084 266.466C-0.628685 269.231 -6.52962 269.231 -11.3192 266.466L-76.61 228.77C-81.3995 226.005 -84.35 220.895 -84.35 215.364V139.973C-84.35 134.442 -81.3995 129.332 -76.61 126.567L-11.3192 88.8712Z" stroke="#32DBBD" stroke-width="2"/>
<path d="M53.2581 2.11952C55.2642 0.961299 57.7358 0.961299 59.7419 2.11952L96.1263 23.1261C98.1324 24.2843 99.3683 26.4248 99.3683 28.7412V70.7544C99.3683 73.0708 98.1324 75.2113 96.1263 76.3695L59.7419 97.3761C57.7358 98.5343 55.2642 98.5343 53.2581 97.3761L16.8737 76.3695C14.8676 75.2113 13.6317 73.0708 13.6317 70.7544V28.7412C13.6317 26.4248 14.8676 24.2843 16.8737 23.1261L53.2581 2.11952Z" fill="#BFF4EB"/>
</g>
<defs>
<clipPath id="clip0_1400_103906">
<rect width="156" height="325" fill="white"/>
</clipPath>
</defs>
</svg>
