<svg xmlns="http://www.w3.org/2000/svg" fill="none" viewBox="0 0 578 522">
    <g clip-path="url(#home_illustration_svg__a)">
        <g clip-path="url(#home_illustration_svg__b)">
            <path fill="#fff" stroke="#1A1A1A" stroke-linecap="round" stroke-linejoin="round"
                d="M80.824 179.034v154.751a32.032 32.032 0 0 0 16.003 27.741l133.918 77.376a31.978 31.978 0 0 0 32.006 0l133.917-77.376a32.03 32.03 0 0 0 16.003-27.741V179.034a32.033 32.033 0 0 0-16.003-27.742L262.751 73.916a31.978 31.978 0 0 0-32.006 0L96.827 151.293a32.035 32.035 0 0 0-16.003 27.742Z"></path>
            <mask id="home_illustration_svg__c" width="333" height="375" x="80" y="69"
                maskUnits="userSpaceOnUse" style="mask-type:luminance">
                <path fill="#fff"
                    d="M80.824 179.034v154.751a32.032 32.032 0 0 0 16.003 27.741l133.918 77.376a31.978 31.978 0 0 0 32.006 0l133.917-77.376a32.03 32.03 0 0 0 16.003-27.741V179.034a32.033 32.033 0 0 0-16.003-27.742L262.751 73.916a31.978 31.978 0 0 0-32.006 0L96.827 151.293a32.035 32.035 0 0 0-16.003 27.742Z"></path>
            </mask>
            <g mask="url(#home_illustration_svg__c)">
                <path fill="#fff" stroke="#1A1A1A" stroke-linecap="round" stroke-linejoin="round"
                    stroke-width="0.8"
                    d="M200.378 399.172h-4.305l-3.7-33 11.367-3.343-3.362 36.343ZM88.52 399.172H84.22l-4.284-36.512 12.282 3.512-3.7 33Z"></path>
                <path fill="#fff" stroke="#1A1A1A" stroke-linecap="round" stroke-linejoin="round"
                    stroke-width="0.8"
                    d="M188.405 292.95H95.49c-14.11 0-25.548 11.447-25.548 25.567v23.863c0 14.12 11.438 25.566 25.548 25.566h92.915c14.11 0 25.549-11.446 25.549-25.566v-23.863c0-14.12-11.439-25.567-25.549-25.567Z"></path>
                <path fill="#fff" stroke="#1A1A1A" stroke-linecap="round" stroke-linejoin="round"
                    stroke-width="0.8"
                    d="M195.995 299.764H88.09c-7.203 0-13.041 5.843-13.041 13.051v12.192c0 7.208 5.838 13.051 13.04 13.051h107.906c7.203 0 13.042-5.843 13.042-13.051v-12.192c0-7.208-5.839-13.051-13.042-13.051ZM202.523 342H81.563a6.516 6.516 0 0 0-6.514 6.518v6.089c0 3.6 2.916 6.518 6.513 6.518h120.961a6.516 6.516 0 0 0 6.514-6.518v-6.089c0-3.6-2.917-6.518-6.514-6.518ZM104.206 292.95h-6.929l5.585-23.955h6.929l-5.585 23.955ZM114.37 292.95h-6.929l5.586-23.955h6.928l-5.585 23.955ZM124.535 292.95h-6.929l5.585-23.955h6.929l-5.585 23.955ZM146.805 292.95h6.929l-5.592-23.955h-6.929l5.592 23.955ZM136.641 292.95h6.929l-5.586-23.955h-6.935l5.592 23.955Z"></path>
                <path fill="#fff" stroke="#1A1A1A" stroke-linecap="round" stroke-linejoin="round"
                    stroke-width="0.8"
                    d="M107.983 273.613h-6.219l.218-.922h6.001v.922ZM118.295 273.613h-6.211l.211-.922h6v.922ZM128.614 273.613h-6.218l.218-.922h6v.922ZM142.57 273.613h6.212l-.218-.922h-5.994v.922ZM132.251 273.613h6.211l-.211-.922h-6v.922ZM101.764 290.071a1.773 1.773 0 1 0 0-3.547 1.773 1.773 0 0 0 0 3.547ZM112.084 290.071a1.773 1.773 0 1 0 0-3.547 1.773 1.773 0 0 0 0 3.547ZM121.785 290.071c.979 0 1.772-.794 1.772-1.774a1.773 1.773 0 1 0-3.545 0c0 .98.794 1.774 1.773 1.774ZM149.393 290.071a1.773 1.773 0 1 0 0-3.547 1.773 1.773 0 0 0 0 3.547ZM139.075 290.071c.979 0 1.772-.794 1.772-1.774a1.773 1.773 0 1 0-3.545 0c0 .98.794 1.774 1.773 1.774ZM148.564 304.748h-12.141v2.464h12.141v-2.464ZM148.564 345.428h-12.141v2.463h12.141v-2.463Z"></path>
                <path fill="#D6F037" stroke="#1A1A1A" stroke-linecap="round" stroke-linejoin="round"
                    stroke-width="0.8"
                    d="M171.749 273.705s-.331-8.856 5.036-15.078c5.367-6.23 13.794-3.612 13.794-3.612l-18.83 18.697v-.007ZM171.024 273.803s-1.576-7.25-8.251-14.184c-6.676-6.934-14.209-4.836-14.209-4.836l22.453 19.02h.007Z"></path>
                <path fill="#D6F037" stroke="#1A1A1A" stroke-linecap="round" stroke-linejoin="round"
                    stroke-width="0.8"
                    d="M159.72 227.541s-2.357 12.192 1.069 24.236c3.425 12.045 9.116 21.259 9.116 21.259s-.64-15.465-2.469-25.271c-1.829-9.806-7.723-20.217-7.723-20.217l.007-.007Z"></path>
                <path fill="#D6F037" stroke="#1A1A1A" stroke-linecap="round" stroke-linejoin="round"
                    stroke-width="0.8"
                    d="M169.392 275.711s-1.871-15.409 4.818-30.403c3.834-8.193 8.195-12.157 8.195-12.157s-1.998 13.826-4.453 20.351c-2.462 6.525-8.553 22.216-8.553 22.216l-.007-.007Z"></path>
                <path fill="#D6F037" stroke="#1A1A1A" stroke-linecap="round" stroke-linejoin="round"
                    stroke-width="0.8"
                    d="M168.991 272.6s-7.203-19.703 1.4-35.978c-1.934 11.537.324 29.572-1.4 35.978ZM172.881 272.973s.865-26.355 16.615-30.086c-4.607 3.857-12.577 13.579-16.615 30.086Z"></path>
                <path fill="#fff" stroke="#1A1A1A" stroke-linecap="round" stroke-linejoin="round"
                    stroke-width="0.8" d="M177.593 274.282h-13.161v9.552h13.161v-9.552Z"></path>
                <path fill="#fff" stroke="#1A1A1A" stroke-linecap="round" stroke-linejoin="round"
                    stroke-width="0.8"
                    d="M178.255 272.283h-14.441v2.851h14.441v-2.851ZM177.488 282.187h-12.943l-9.433 10.763h1.97l8.666-8.785h10.53l8.666 8.785h1.977l-9.433-10.763Z"></path>
                <path fill="#32DBBD" stroke="#1A1A1A" stroke-linecap="round" stroke-linejoin="round"
                    stroke-width="0.76"
                    d="M295.783 256.247s13.942.599 15.848 17.035c1.907 16.437 3.44 55.807 2.863 55.807s-11.269 1.148-11.269 1.148l-7.449-73.983.007-.007Z"></path>
                <path fill="#32DBBD" stroke="#1A1A1A" stroke-linecap="round" stroke-linejoin="round"
                    stroke-width="0.76"
                    d="M308.389 321.248c-.092 2.773-.183 5.582-.268 8.405-.337 10.474-.661 21.125-.872 30.811-.338 15.746-.373 28.952.38 34.745-8.209 2.295-46.405 11.657-61.683 6.498-15.279-5.16-30.747-6.498-30.747-6.498l3.82-57.905s-2.912-77.22 14.582-84.766c17.501-7.546 33.75-7.877 37.942-7.23 4.193.641 23.101 5.998 28.447 14.213 5.346 8.222 9.355 31.916 8.399 61.727Z"></path>
                <path fill="#32DBBD"
                    d="M254.154 245.949s-40.489 8.792-46.791 27.904c-6.303 19.111-9.771 57.292-4.235 67.612 4.199-12.037 14.737-23.659 24.859-22.512.57-9.362 1.147-17.394 1.147-17.394"></path>
                <path stroke="#1A1A1A" stroke-linecap="round" stroke-linejoin="round"
                    stroke-width="0.76"
                    d="M254.154 245.949s-40.489 8.792-46.791 27.904c-6.303 19.111-9.771 57.292-4.235 67.612 4.199-12.037 14.737-23.659 24.859-22.512.57-9.362 1.147-17.394 1.147-17.394"></path>
                <path fill="#fff" stroke="#1A1A1A" stroke-linecap="round" stroke-linejoin="round"
                    stroke-width="0.76"
                    d="M227.987 318.953s24.957-3.886 35.27-4.653c10.312-.767 30.043-3.696 39.975-13.889 9.933-10.192 23.298-10.572 23.298-10.572l-19.478 28.283c-4.453-.126-8.406 2.295-16.172 4.59s-47.361 25.355-67.986 26.249c-20.624.894-20.118-9.425-20.118-9.425s10.031-23.385 25.211-20.576v-.007Z"></path>
                <path fill="#fff"
                    d="m283.199 238.543.429 10.785s.19 6.434-11.522 8.024c-11.712 1.591-17.951-13.888-17.951-13.888s8.877-12.234 8.117-21.977c-.766-9.749-3.918-25.989 8.498-28.572 12.415-2.583 33.229.669 33.229 11.467s.289 35.738-13.273 35.161c-13.562-.577-17.093-6.307-17.093-6.307"></path>
                <path stroke="#1A1A1A" stroke-linecap="round" stroke-linejoin="round"
                    stroke-width="0.76"
                    d="m283.199 238.543.429 10.785s.19 6.434-11.522 8.024c-11.712 1.591-17.951-13.888-17.951-13.888s8.877-12.234 8.117-21.977c-.766-9.749-3.918-25.989 8.498-28.572 12.415-2.583 33.229.669 33.229 11.467s.289 35.738-13.273 35.161c-13.562-.577-17.093-6.307-17.093-6.307"></path>
                <path fill="#1A1A1A" stroke="#1A1A1A" stroke-linecap="round" stroke-linejoin="round"
                    stroke-width="0.76"
                    d="M274.392 209.732s-4.009-7.933-7.956-3.661c-3.946 4.266 1.21 11.594 1.21 11.594s-2.511 2.548-3.946 3.182c-1.435.633-2.863-.38-2.863-.38s-5.466-29.262.767-33.824c6.176-4.526 11.205-2.548 11.205-2.548s7.893-13.762 24.064-7.771c16.172 5.99 15.405 9.425 15.912 15.035.506 5.611 5.219 6.878 3.053 10.32-2.167 3.442-11.965 8.151-15.785 5.73-3.82-2.422-4.98-10.003-8.42-10.862-3.44-.858-11.41 1.387-11.079 6.406.331 5.019-1.238 13.234-1.955 14.522-3.292 1.007-4.538 0-4.249-.669.288-.668 1.097-6.068.049-7.074h-.007Z"></path>
                <path fill="#fff" stroke="#1A1A1A" stroke-linecap="round" stroke-linejoin="round"
                    stroke-width="0.76"
                    d="M255.723 239.536s-1.512-2.238-3.257-.605c-1.744 1.633-9.004 9.32-8.159 9.503.844.183 3.693 3.125 4.72 6.694 1.026 3.569 4.466 7.976 9.418 10.27 4.952 2.295 5.797 1.267 5.431-.302-.359-1.57.844-7.145 7.548-7.666-3.574-1.225-6.289-2.766-8.758-6.349-3.777-5.491-6.943-11.538-6.943-11.538v-.007ZM276.671 256.325s6.894 4.674 6.936 10.411c.809 1.943 2.996-2.513 3.622-3.478.577-.886 5.881-7.799 5.452-11.002-1.864-3.773-9.215-6.948-9.215-6.948s.274 3.478.148 4.224c-.127.746-1.091 5.167-6.95 6.8l.007-.007Z"></path>
                <path stroke="#1A1A1A" stroke-linecap="round" stroke-linejoin="round"
                    stroke-width="0.76" d="M143.71 124.212h105.858l42.029-33.627"></path>
                <path stroke="#1A1A1A" stroke-linecap="round" stroke-linejoin="round"
                    stroke-width="0.76"
                    d="M153.136 118.757h96.432l37.943-30.53M92.838 154.023h176.587l53.222-45.495"></path>
                <path stroke="#1A1A1A" stroke-linecap="round" stroke-linejoin="round"
                    stroke-width="0.76"
                    d="M80.824 180.399h206.687l70.019-51.717M205.07 88.847v61.481"></path>
                <path fill="#1A1A1A" stroke="#1A1A1A" stroke-linecap="round" stroke-linejoin="round"
                    stroke-width="0.76" d="M209.402 150.328h-8.912v24.482h8.912v-24.482Z"></path>
                <path stroke="#1A1A1A" stroke-linecap="round" stroke-linejoin="round"
                    stroke-width="0.76" d="M252.558 70.305v57.518"></path>
                <path fill="#1A1A1A" stroke="#1A1A1A" stroke-linecap="round" stroke-linejoin="round"
                    stroke-width="0.76" d="M256.891 127.823h-8.913v30.79h8.913v-30.79Z"></path>
                <path stroke="#1A1A1A" stroke-linecap="round" stroke-linejoin="round"
                    stroke-width="0.76" d="M332.896 114.448v46.136"></path>
                <path fill="#1A1A1A" stroke="#1A1A1A" stroke-linecap="round" stroke-linejoin="round"
                    stroke-width="0.76" d="M337.229 160.584h-8.913v24.482h8.913v-24.482Z"></path>
                <path stroke="#1A1A1A" stroke-linecap="round" stroke-linejoin="round"
                    stroke-width="0.76" d="M375.101 138.924v40.771"></path>
                <path fill="#1A1A1A" stroke="#1A1A1A" stroke-linecap="round" stroke-linejoin="round"
                    stroke-width="0.76" d="M379.434 179.695h-8.912V193h8.912v-13.305Z"></path>
                <path fill="#fff" stroke="#1A1A1A" stroke-linecap="round" stroke-linejoin="round"
                    stroke-width="0.76"
                    d="m357.375 300.869-16.123 25.947a18.3 18.3 0 0 0-.844-2.26c-2.483-5.61-6.429-22.997-1.653-29.304 4.776-6.307 8.019-7.835 11.649-4.012 2.307 2.428 5.381 5.701 6.971 9.629Z"></path>
                <path fill="#1A1A1A" stroke="#1A1A1A" stroke-linecap="round" stroke-linejoin="round"
                    stroke-width="0.76"
                    d="m332.066 269.833-37.071 64.135-2.286-1.295 37.07-64.135 2.287 1.295ZM379.624 265.06l-47.558 4.773-2.286-1.295 47.551-4.773 2.293 1.295Z"></path>
                <path fill="#fff" stroke="#1A1A1A" stroke-linecap="round" stroke-linejoin="round"
                    stroke-width="0.76"
                    d="m379.624 265.06-22.25 35.809c-1.596-3.928-4.67-7.201-6.97-9.63-3.63-3.822-6.873-2.294-11.649 4.013-4.776 6.307-.83 23.694 1.653 29.304.401.908.675 1.647.844 2.26l-1.456 2.344-.661 1.063-31.12 2.64-13.02 1.105 37.07-64.135 47.552-4.78.007.007Z"></path>
                <path fill="#fff" stroke="#1A1A1A" stroke-linecap="round" stroke-linejoin="round"
                    stroke-width="0.76"
                    d="M358.233 308.246c-1.336 7.265-.19 17.965-8.785 25.419-8.237 7.145-28.587 27.636-42.199 26.792.19-8.694.472-18.169.767-27.594l31.119-2.64.662-1.063.612.366s1.744.451.844-2.71a18.3 18.3 0 0 0-.844-2.26c-2.483-5.61-6.43-22.997-1.653-29.304 4.776-6.307 8.019-7.835 11.648-4.012 2.308 2.428 5.381 5.701 6.971 9.629.915 2.26 1.344 4.731.858 7.377Z"></path>
                <path stroke="#1A1A1A" stroke-linecap="round" stroke-linejoin="round"
                    stroke-width="0.76" d="m307.622 395.202.837 17.289"></path>
                <path stroke="#1A1A1A" stroke-linecap="round" stroke-linejoin="round"
                    d="M125.554 378.118h68.155M202.327 378.118h13.829M307.249 378.118l43.148 10.143"></path>
            </g>
            <path fill="#1A1A1A"
                d="M43.93 216.567v21.068c0 3.02 1.611 5.808 4.22 7.314l18.233 10.538a8.45 8.45 0 0 0 8.442 0l18.232-10.538a8.452 8.452 0 0 0 4.22-7.314v-21.068c0-3.02-1.61-5.808-4.22-7.314l-18.233-10.538a8.45 8.45 0 0 0-8.44 0L48.15 209.253a8.452 8.452 0 0 0-4.22 7.314Z"></path>
            <path stroke="#1A1A1A" stroke-linecap="round" stroke-linejoin="round"
                stroke-width="0.76" d="m215.193 395.202-9.152 29.417"></path>
            <path fill="#fff"
                d="M550.719 86.622v78.931a32.035 32.035 0 0 1-16.003 27.742l-68.31 39.469a31.978 31.978 0 0 1-32.006 0l-68.309-39.469a32.035 32.035 0 0 1-16.003-27.742v-78.93a32.035 32.035 0 0 1 16.003-27.743L434.4 19.411a31.979 31.979 0 0 1 32.006 0l68.31 39.47a32.035 32.035 0 0 1 16.003 27.741Z"></path>
            <mask id="home_illustration_svg__d" width="201" height="223" x="350" y="15"
                maskUnits="userSpaceOnUse" style="mask-type:luminance">
                <path fill="#fff"
                    d="M550.719 86.622v78.931a32.035 32.035 0 0 1-16.003 27.742l-68.31 39.469a31.978 31.978 0 0 1-32.006 0l-68.309-39.469a32.035 32.035 0 0 1-16.003-27.742v-78.93a32.035 32.035 0 0 1 16.003-27.743L434.4 19.411a31.979 31.979 0 0 1 32.006 0l68.31 39.47a32.035 32.035 0 0 1 16.003 27.741Z"></path>
            </mask>
            <g mask="url(#home_illustration_svg__d)">
                <path fill="#E6E6E6"
                    d="M348.281 124.557h27.602V93.422l.253-6.927 20.252 7.04v31.944h10.424v-13.065l12.381 3.956v9.841h73.17V87.713l13.288 8.468v30.699h9.024v-18.401l14.927-4.294v24.321h23.361c-.563 2.576-.795 4.702-.795 7.285 0 3.886 3.264 7.124.914 10.883H348.604c.141-8.63-3.025-12.819-.316-22.11l-.007-.007Z"></path>
                <path fill="#fff" stroke="#1A1A1A" stroke-linecap="round" stroke-linejoin="round"
                    stroke-width="0.46"
                    d="M345.868 146.66h214.691a32.514 32.514 0 0 0-2.525 3.28H345.811c0-1.168.014-2.252.057-3.28Z"></path>
                <path fill="#1A1A1A" stroke="#1A1A1A" stroke-linecap="round" stroke-linejoin="round"
                    stroke-width="0.46"
                    d="M550.719 178.104c4.199 8.088-13.858 16.669-14.92 25.715-.759 6.462-4.544 12.347-9.616 16.415-5.071 4.069-11.353 6.434-17.747 7.603-10.495 1.928-20.498 11.291-30.346 7.159-4.298-1.802-12.366 7.461-17.008 7.004-7.189-.711-19.928-2.246-26.794 0-12.141 3.97-16.411-14.149-29.1-15.627-6.289-.733-12.585-1.465-18.873-2.204-4.973-.577-10.059-1.189-14.526-3.449-5.838-2.949-10.164-8.729-11.36-15.17-1.034-5.603-14.111-16.633-12.233-27.453h202.516l.007.007ZM519.669 48.28l-1.308-1.732V146.66h1.308V48.28ZM482.262 24.388l-1.302-.387V146.66h1.302V24.388ZM407.452 42.676l-1.301.246V146.66h1.301V42.676ZM368.75 51.531v95.136h1.301V50.532c-.091.162-.858.633-1.301 1Z"></path>
                <path fill="#fff" stroke="#1A1A1A" stroke-linecap="round" stroke-linejoin="round"
                    stroke-width="0.46"
                    d="m427.69 137.199-7.872 21.59 23.052 1.809.9-24.377s-6.183-4.956-6.106-4.667c.078.288-9.974 5.652-9.974 5.652v-.007Z"></path>
                <path fill="#fff"
                    d="M435.483 141.958s.774 4.406 2.132 6.729c.246 2.788 3.032 14.036 3.032 14.036h20.427s-2.462-6.074-3.074-9.031c-.612-2.956.858-8.046.858-10.918s-2.3-5.582-2.3-5.582l-13.421-.88"></path>
                <path stroke="#1A1A1A" stroke-linecap="round" stroke-linejoin="round"
                    stroke-width="0.46"
                    d="M435.483 141.958s.774 4.406 2.132 6.729c.246 2.788 3.032 14.036 3.032 14.036h20.427s-2.462-6.074-3.074-9.031c-.612-2.956.858-8.046.858-10.918s-2.3-5.582-2.3-5.582l-13.421-.88"></path>
                <path fill="#fff" d="M455.489 146.062s-5.423-.423-6.274-4.534l6.274 4.534Z"></path>
                <path stroke="#1A1A1A" stroke-linecap="round" stroke-linejoin="round"
                    stroke-width="0.46" d="M455.489 146.062s-5.423-.423-6.274-4.534"></path>
                <path fill="#fff" stroke="#1A1A1A" stroke-linecap="round" stroke-linejoin="round"
                    stroke-width="0.46"
                    d="M362.863 212.153a22.367 22.367 0 0 0 3.425 4.533l84.116 27.637 79.465-27.637c2.709-3.118 4.713-6.842 5.586-10.84l-46.539-47.466h-78.087l-47.959 53.78-.007-.007Z"></path>
                <path fill="#fff" stroke="#1A1A1A" stroke-linecap="round" stroke-linejoin="round"
                    stroke-width="0.46"
                    d="M407.417 174.381h26.808c3.686-2.133 6.239-5.414 8.131-9.356h-26.674c-4.037 2.535-6.584 5.751-8.272 9.356h.007Z"></path>
                <path fill="#1A1A1A" stroke="#1A1A1A" stroke-linecap="round" stroke-linejoin="round"
                    stroke-width="0.46"
                    d="M441.949 165.314s-6.317 5.744-7.668 8.412l.042.267s4.017-3.224 4.96-4.491c.942-1.267 2.666-4.188 2.666-4.188Z"></path>
                <path fill="#fff" stroke="#1A1A1A" stroke-linecap="round" stroke-linejoin="round"
                    stroke-width="0.46"
                    d="m423.399 168.672-1.421-.057s-1.843 6.096-4.959 7.103c-3.116 1.007 3.876 2.281 3.876 2.281l.246-.88s-2.772-.43-2.561-1.007c.211-.577 2.111-1.844 3.321-3.942 1.209-2.09 1.498-3.498 1.498-3.498Z"></path>
                <path fill="#1A1A1A" stroke="#1A1A1A" stroke-linecap="round" stroke-linejoin="round"
                    stroke-width="0.46"
                    d="M454.244 136.052s-7.35 2.921-19.358 2.069l-6.971-.542 1.625-2.555s23.157-1.823 23.269-1.492c.113.331 1.435 2.52 1.435 2.52Z"></path>
                <path fill="#fff" stroke="#1A1A1A" stroke-linecap="round" stroke-linejoin="round"
                    stroke-width="0.46"
                    d="M452.816 133.532s-11.62 4.491-24.831 1.485c1.717-4.857 5.262-43.728 5.262-43.728s2.279-.795 3.257-.866c.978-.07 6.246-2.4 9.967 1.436 5.41 3.372 6.338 41.673 6.338 41.673h.007Z"></path>
                <path fill="#32DBBD" stroke="#1A1A1A" stroke-miterlimit="10" stroke-width="0.6"
                    d="M445.304 90.085s10.551 2.929 10.185 7.737c-.366 4.807-3.552 19.921-1.583 27.058 1.97 7.145 3.94 12.685 3.94 12.685s-9.075 2.957-14.259 1.598c-5.184-1.351-6.654-8.743-7.027-15.514-.373-6.772 2.152-22.674 2.983-25.518.83-2.844 1.744-6.687 3.552-7.398 1.808-.71 2.216-.648 2.216-.648h-.007Z"></path>
                <path fill="#fff" stroke="#1A1A1A" stroke-linecap="round" stroke-linejoin="round"
                    stroke-width="0.46"
                    d="m444.973 89.656 2.202.922s-2.258 7.046-2.723 7.243c-4.297 6.068-6.584 9.637-6.584 9.637s.894-8.334 1.766-11.122c.872-2.787 3.369-6.469 4.178-6.68.809-.211 1.161 0 1.161 0Z"></path>
                <path fill="#32DBBD" stroke="#1A1A1A" stroke-miterlimit="10" stroke-width="0.6"
                    d="M430.968 110.767s-7.295 11.544-11.508 9.411c-4.214-2.133-12.577-9.087-13.4-11.326.379-2.844 4.67-2.787 6.358-1.753 1.682 1.042 7.64 4.872 7.64 4.872s5.325-17.409 9.763-19.365c2.962-1.303 1.147 18.161 1.147 18.161Z"></path>
                <path fill="#1A1A1A" stroke="#1A1A1A" stroke-linecap="round" stroke-linejoin="round"
                    stroke-width="0.46"
                    d="M411.87 107.458s.949 1.739-.95 2.647c-1.899.908-2.828.662-3.482.12-.654-.542-.949-1.704.542-2.71 1.491-1.007 3.369-.479 3.89-.057Z"></path>
                <path fill="#32DBBD"
                    d="M427.69 108.838c.386 2.386.738 4.625.844 6.3.38 5.801-2.364 19.879-2.49 21.646-.127 1.767 5.001 1.781 6.52 1.337 1.52-.443 3.644-2.984 3.44-6.553-.197-3.569.689-27.904.929-34.64.161-4.64-1.703-6.624-1.703-6.624s-3.25 1.056-5.824 2.52"></path>
                <path stroke="#1A1A1A" stroke-miterlimit="10" stroke-width="0.6"
                    d="M427.69 108.838c.386 2.386.738 4.625.844 6.3.38 5.801-2.364 19.879-2.49 21.646-.127 1.767 5.001 1.781 6.52 1.337 1.52-.443 3.644-2.984 3.44-6.553-.197-3.569.689-27.904.929-34.64.161-4.64-1.703-6.624-1.703-6.624s-3.25 1.056-5.824 2.52"></path>
                <path fill="#fff" stroke="#1A1A1A" stroke-linecap="round" stroke-linejoin="round"
                    stroke-width="0.46"
                    d="m434.928 90.142-2.687.936 1.716 7.433s2.216 6.082 2.659 7.821c.514-7.398 1.337-12.734-.098-14.705-1.435-1.97-1.59-1.485-1.59-1.485ZM411.286 107.726s-.633 2.668-2.806 2.133c-2.174-.535-3.757-2.506-4.165-3.161-.408-.655-.576-5.786-.576-5.786l6.605 3.118s.492 2.168.288 2.971l.654.725Z"></path>
                <path fill="#fff" stroke="#1A1A1A" stroke-linecap="round" stroke-linejoin="round"
                    stroke-width="0.46"
                    d="m418.721 106.691-17.389-8.87-.872 1.366 17.248 8.743 1.013-1.239ZM427.69 105.1s-4.882-4.8-7.506-5.786c-2.624-.985-5.332 1.232-6.725 1.971-1.392.739-1.188.781-.534 1.147.654.366 4.185-1.027 4.509-1.253-.739 1.662-1.273 2.035-.331 3.098.943 1.063 3.363 1.598 4.551 1.598 1.189 0 3.363 2.217 3.363 2.217l2.666-2.999.007.007Z"></path>
                <path fill="#32DBBD"
                    d="M453.006 93.718s6.852 5.026 2.941 14.212c-4.284 10.066-7.724 14.923-14.941 11.312-7.217-3.611-17.283-10.179-17.283-10.179s2.377-5.033 3.348-5.033c7.098 3.942 11.923 7.103 14.61 6.596 2.687-.507 4.784-8.292 4.784-8.292"></path>
                <path stroke="#1A1A1A" stroke-miterlimit="10" stroke-width="0.6"
                    d="M453.006 93.718s6.852 5.026 2.941 14.212c-4.284 10.066-7.724 14.923-14.941 11.312-7.217-3.611-17.283-10.179-17.283-10.179s2.377-5.033 3.348-5.033c7.098 3.942 11.923 7.103 14.61 6.596 2.687-.507 4.784-8.292 4.784-8.292"></path>
                <path fill="#fff"
                    d="M439.092 85.15s.274 2.317-4.98 1.676c-5.255-.64-4.369-13.501-4.369-13.501 13.562-5.202 12.416 6.94 12.416 6.94l1.913 7.948v1.12l-4.234 2.52h-1.147l-2.3-3.31s.647-.851.394-1.611"></path>
                <path stroke="#1A1A1A" stroke-linecap="round" stroke-linejoin="round"
                    stroke-width="0.46"
                    d="M439.092 85.15s.274 2.317-4.98 1.676c-5.255-.64-4.369-13.501-4.369-13.501 13.562-5.202 12.416 6.94 12.416 6.94l1.913 7.948v1.12l-4.234 2.52h-1.147l-2.3-3.31s.647-.851.394-1.611"></path>
                <path fill="#1A1A1A" stroke="#1A1A1A" stroke-linecap="round" stroke-linejoin="round"
                    stroke-width="0.46"
                    d="M439.127 85.193s.24 2.59-2.3 2.696l.127-1.007c.907.141 1.322-.57 2.18-1.682l-.007-.007Z"></path>
                <path fill="#fff" stroke="#1A1A1A" stroke-linecap="round" stroke-linejoin="round"
                    stroke-width="0.46"
                    d="m444.917 87.7-5.536 4.103-2.954-3.773c-.957-.12-1.604.387-2.146 1.091.57 1.964 1.323 3.703 2.462 4.949.457-1.14 1.386-1.753 2.596-2.056 1.189.45 1.737 1.302 1.829 2.45 2.356-1.077 4.27-2.471 5.304-4.477-.303-.986-.809-1.76-1.555-2.28v-.008Z"></path>
                <path fill="#1A1A1A"
                    d="M443.524 81.87s-2.3 1.599-3.404.536l-1.105-1.93s1.625-2.132.873-3.075c-.753-.944-2.104-.45-2.434.408l-.331.859-.858.084s-1.393-2.302-1.393-3.773c-4.143 1.64-6.183 3.013-8.11-1.09-1.231-3 .443-3.218.443-3.218s5.29.901 7.175-.162c1.885-1.063 4.72-.21 4.678 1.535 2.011-1.007 4.347.148 4.473 2.731.12 2.583 0 6.898 0 6.898"></path>
                <path stroke="#1A1A1A" stroke-linecap="round" stroke-linejoin="round"
                    stroke-width="0.46"
                    d="M443.524 81.87s-2.3 1.599-3.404.536l-1.105-1.93s1.625-2.132.873-3.075c-.753-.944-2.104-.45-2.434.408l-.331.859-.858.084s-1.393-2.302-1.393-3.773c-4.143 1.64-6.183 3.013-8.11-1.09-1.231-3 .443-3.218.443-3.218s5.29.901 7.175-.162c1.885-1.063 4.72-.21 4.678 1.535 2.011-1.007 4.347.148 4.473 2.731.12 2.583 0 6.898 0 6.898"></path>
                <path fill="#32DBBD" stroke="#1A1A1A" stroke-miterlimit="10" stroke-width="0.6"
                    d="M380.912 39.832c0 12.087 9.792 21.885 21.87 21.885 12.077 0 21.869-9.798 21.869-21.885 0-6.68-2.99-12.656-7.703-16.669-2.862.69-5.697 1.485-8.49 2.4-8.603 2.802-16.706 4.203-25.647 5.569-.035 0-.07.014-.105.014a21.797 21.797 0 0 0-1.794 8.686Z"></path>
                <path fill="#fff" stroke="#1A1A1A" stroke-linecap="round" stroke-linejoin="round"
                    stroke-width="0.4"
                    d="M582.218 59.07H463.375v3.83h118.843v-3.83ZM582.218 129.365H463.375v3.829h118.843v-3.829ZM578.251 62.9H469.712v66.464h108.539V62.9Z"></path>
                <path fill="#32DBBD" stroke="#1A1A1A" stroke-miterlimit="10" stroke-width="0.6"
                    d="m500.719 84.651 4.945-11.988a12.962 12.962 0 0 0-4.945-.978c-7.112 0-12.957 5.856-12.957 12.966 0 7.11 5.852 12.966 12.957 12.966 7.104 0 12.957-5.856 12.957-12.966h-12.957Z"></path>
                <path fill="#fff" stroke="#1A1A1A" stroke-linecap="round" stroke-linejoin="round"
                    stroke-width="0.42"
                    d="m502.344 83.764 12.936-.81a13.028 13.028 0 0 0-2.068-6.264 12.923 12.923 0 0 0-4.882-4.435l-5.986 11.502v.007Z"></path>
                <path fill="#fff" stroke="#1A1A1A" stroke-linecap="round" stroke-linejoin="round"
                    stroke-width="0.4"
                    d="M485.025 121.558h-2.356v1.725h2.356v-1.725ZM493.861 119.932h-2.357v3.351h2.357v-3.351ZM502.696 117.468h-2.357v5.815h2.357v-5.815ZM511.531 119.2h-2.357v4.083h2.357V119.2ZM520.373 117.468h-2.357v5.815h2.357v-5.815ZM529.208 115.216h-2.357v8.067h2.357v-8.067ZM538.043 113.744h-2.356v9.538h2.356v-9.538ZM546.878 111.83h-2.356v11.453h2.356V111.83ZM564.548 90.902l-6.071 1.091 1.322 1.57-13.808 11.685-18.24 2.485-16.178 6.504-9.982-5.138-19.26 6.321a1.034 1.034 0 0 0 .64 1.964l18.444-6.054 10.052 5.174 16.812-6.758 18.577-2.527 14.266-12.072 1.322 1.57 2.089-5.808.015-.007Z"></path>
                <path stroke="#1A1A1A" stroke-linecap="round" stroke-linejoin="round"
                    stroke-width="0.42"
                    d="M542.925 73.853h-15.461v1.767h15.461v-1.767ZM542.925 78.421h-15.461v1.767h15.461v-1.767ZM542.925 82.99h-15.461v1.767h15.461V82.99ZM542.925 87.558h-15.461v1.767h15.461v-1.767Z"></path>
            </g>
            <path stroke="#D6F037" stroke-linecap="round" stroke-width="3"
                d="m142.317 96.042 82.747-47.738a40 40 0 0 1 39.092-.496L329.6 83.382"></path>
            <path stroke="#000" stroke-miterlimit="10" stroke-width="0.8"
                d="M550.719 86.622v78.931a32.035 32.035 0 0 1-16.003 27.742l-68.31 39.469a31.978 31.978 0 0 1-32.006 0l-68.309-39.469a32.035 32.035 0 0 1-16.003-27.742v-78.93a32.035 32.035 0 0 1 16.003-27.743L434.4 19.411a31.979 31.979 0 0 1 32.006 0l68.31 39.47a32.035 32.035 0 0 1 16.003 27.741Z"></path>
            <path fill="#fff" stroke="#1A1A1A" stroke-linecap="round" stroke-linejoin="round"
                stroke-width="1.11"
                d="M409.563 334.862c16.044 0 29.051-13.016 29.051-29.072 0-16.057-13.007-29.073-29.051-29.073-16.045 0-29.052 13.016-29.052 29.073 0 16.056 13.007 29.072 29.052 29.072Z"></path>
            <path fill="#D6F037" stroke="#1A1A1A" stroke-linecap="round" stroke-linejoin="round"
                stroke-width="0.76"
                d="M470.289 355.677a6.92 6.92 0 0 0-.633-9.757l-29.059-23.462a6.388 6.388 0 0 0-1.083-.781c6.401-12.086 5.072-27.369-4.481-38.258-12.345-14.079-33.757-15.473-47.825-3.119-14.069 12.354-15.462 33.782-3.117 47.86 12.036 13.72 32.674 15.395 46.743 4.034.204.232.415.45.654.654l29.059 23.462c2.862 2.52 7.231 2.232 9.749-.633h-.007Zm-79.515-31.853a21.772 21.772 0 0 1-.781-.852c-9.468-10.798-8.392-27.291 2.399-36.766 10.79-9.475 27.272-8.398 36.74 2.394.253.288.499.584.745.887 8.659 10.798 7.365 26.657-3.137 35.879-10.495 9.221-26.385 8.454-35.959-1.542h-.007Z"></path>
            <path fill="#E6E6E6"
                d="M414.282 293.041c1.639-5.962-10.418-4.899-13.653-2.766-2.723 1.281-10.573 8.482-5.811 11.319a2.888 2.888 0 0 0 3.89-1.232c1.309-2.407 2.455-3.717 4.411-4.878 2.272-1.295 5.191-1.408 7.491-.711a2.882 2.882 0 0 0 3.672-1.739v.007Z"></path>
            <path fill="#D6F037"
                d="M468.024 221.713v24.806a8.446 8.446 0 0 0 4.22 7.314l21.469 12.403a8.45 8.45 0 0 0 8.441 0l21.468-12.403a8.453 8.453 0 0 0 4.221-7.314v-24.806a8.444 8.444 0 0 0-4.221-7.314l-21.468-12.403a8.445 8.445 0 0 0-8.441 0l-21.469 12.403a8.453 8.453 0 0 0-4.22 7.314Z"></path>
            <path stroke="#1A1A1A" stroke-linecap="round" stroke-linejoin="round"
                d="M80.824 288.001v43.327s-2.406 21.026 18.233 31.48l22.376 12.931"></path>
            <path stroke="#D6F037" stroke-linecap="round" stroke-width="3"
                d="m325.234 436.992-57.215 34.459a39.998 39.998 0 0 1-39.74.878l-65.007-35.337"></path>
            <path fill="#fff" stroke="#1A1A1A" stroke-linecap="round" stroke-linejoin="round"
                d="M331.313 386.213v29.868a8.443 8.443 0 0 0 4.221 7.313l25.851 14.938a8.45 8.45 0 0 0 8.441 0l25.851-14.938a8.453 8.453 0 0 0 4.22-7.313v-29.868a8.446 8.446 0 0 0-4.22-7.314l-25.851-14.937a8.445 8.445 0 0 0-8.441 0l-25.851 14.937a8.453 8.453 0 0 0-4.221 7.314Z"></path>
        </g>
    </g>
    <defs>
        <clipPath id="home_illustration_svg__a">
            <path fill="#fff" d="M0 0h578v521.248H0z"></path>
        </clipPath>
        <clipPath id="home_illustration_svg__b">
            <path fill="#fff" d="M43.656 14.843h538.71v474.1H43.656z"></path>
        </clipPath>
    </defs>
</svg>