<svg xmlns="http://www.w3.org/2000/svg" fill="none" viewBox="0 0 172 41" width="172" height="73">
    <g clip-path="url(#church_logo_svg__a)">
        <g fill="#D6F037" clip-path="url(#church_logo_svg__b)">
            <path
                d="M1.89 40.248H0v-6.119c0-.793.633-1.434 1.417-1.434h.472v7.553ZM5.025 40.248h-1.89V32.36c0-.794.633-1.434 1.417-1.434h.473v9.32ZM8.241 40.248h-1.89V24.402c0-.794.634-1.434 1.418-1.434h.472v17.28ZM11.468 40.248h-1.89V9.612c0-.793.633-1.434 1.417-1.434h.473v32.07ZM14.698 29.708l-1.89 1.477V6.017c0-.793.633-1.434 1.417-1.434h.473v25.125ZM17.933 28.833h-1.89V1.203c0-.525.425-.955.945-.955s.945.43.945.956v27.629ZM21.168 31.309l-1.89-1.53V4.583h.473c.784 0 1.416.64 1.416 1.434V31.31ZM24.384 40.248h-1.89V8.178h.473c.784 0 1.417.64 1.417 1.434v30.636ZM27.643 40.248h-1.89v-17.28h.473c.784 0 1.417.64 1.417 1.434v15.846ZM30.864 40.248h-1.889v-9.321h.472c.784 0 1.417.64 1.417 1.434v7.887ZM34 40.248h-1.89v-7.553h.473c.784 0 1.417.64 1.417 1.434v6.119ZM17.838 30.066l3.33 2.753v7.429h-8.36v-7.505l3.349-2.677h1.681Z"></path>
        </g>
        <path fill="#fff"
            d="M40 28.28V12.633c0-.212.172-.384.384-.384h9.525c.211 0 .383.172.383.385v2.047a.385.385 0 0 1-.383.384H43.47a.384.384 0 0 0-.383.385v3.192c0 .213.172.385.383.385h5.874c.212 0 .384.173.384.385v2.047a.384.384 0 0 1-.384.385H43.47a.384.384 0 0 0-.383.384v6.053a.384.384 0 0 1-.384.385h-2.32a.384.384 0 0 1-.383-.384ZM56.603 28.992c-1.156 0-2.192-.234-3.11-.703a5.258 5.258 0 0 1-2.173-2.038c-.53-.893-.794-1.963-.794-3.215v-.375c0-1.252.265-2.322.794-3.21a5.256 5.256 0 0 1 2.174-2.039c.917-.468 1.958-.703 3.109-.703 1.15 0 2.191.235 3.108.703a5.285 5.285 0 0 1 2.174 2.039c.53.888.794 1.963.794 3.21v.375c0 1.252-.264 2.322-.794 3.215a5.285 5.285 0 0 1-2.174 2.038c-.917.47-1.957.703-3.108.703Zm0-2.626c.904 0 1.653-.292 2.244-.88.591-.588.89-1.428.89-2.52v-.235c0-1.092-.29-1.936-.877-2.52-.586-.583-1.336-.88-2.257-.88-.922 0-1.654.292-2.245.88-.59.588-.89 1.428-.89 2.52v.235c0 1.096.295 1.936.89 2.52.59.588 1.34.88 2.245.88ZM63.989 28.28V17.418c0-.213.172-.385.384-.385h2.134c.212 0 .383.172.383.385v.928h.42c.171-.468.454-.813.855-1.03.397-.221.86-.327 1.393-.327h1.019c.212 0 .384.172.384.384v1.858a.384.384 0 0 1-.384.384H69.51c-.75 0-1.363.2-1.848.597-.485.398-.723 1.013-.723 1.84v6.23a.385.385 0 0 1-.384.384h-2.183a.384.384 0 0 1-.383-.384ZM77.293 28.992c-1.155 0-2.17-.247-3.051-.738a5.205 5.205 0 0 1-2.06-2.087c-.489-.898-.736-1.959-.736-3.179v-.283c0-1.22.243-2.277.723-3.18a5.088 5.088 0 0 1 2.033-2.086c.873-.49 1.888-.739 3.038-.739 1.151 0 2.13.257 2.973.761a5.229 5.229 0 0 1 1.962 2.11c.467.897.701 1.94.701 3.13v.623a.384.384 0 0 1-.384.385h-7.628a.384.384 0 0 0-.38.45c.11.593.388 1.093.838 1.495.56.5 1.248.752 2.06.752.81 0 1.433-.181 1.825-.54.296-.274.534-.566.723-.884a.375.375 0 0 1 .499-.137l1.715.902a.385.385 0 0 1 .145.548 8.278 8.278 0 0 1-.736.964c-.414.478-.961.885-1.65 1.22-.687.337-1.56.505-2.619.505l.01.008Zm-2.341-7.48h4.476c.247 0 .44-.24.374-.478a2.24 2.24 0 0 0-.723-1.141c-.476-.407-1.093-.61-1.86-.61-.768 0-1.43.203-1.897.61-.348.3-.595.676-.745 1.123-.084.243.11.495.366.495h.009Z"></path>
        <path fill="#fff"
            d="m82.757 28.055 3.611-5.027a.386.386 0 0 0 0-.451l-3.563-4.935a.385.385 0 0 1 .31-.61h2.46c.128 0 .242.062.317.168l2.527 3.7h.423l2.527-3.7a.38.38 0 0 1 .318-.168h2.46c.313 0 .494.354.309.61l-3.563 4.935a.386.386 0 0 0 0 .45l3.611 5.028c.181.252 0 .61-.308.61h-2.51a.38.38 0 0 1-.317-.168l-2.527-3.745h-.423l-2.527 3.745a.38.38 0 0 1-.317.168h-2.51a.383.383 0 0 1-.308-.61ZM101.357 28.992c-1.107 0-2.1-.238-2.981-.716a5.197 5.197 0 0 1-2.082-2.052c-.507-.888-.758-1.945-.758-3.165v-.257c0-1.233.251-2.295.758-3.179a5.191 5.191 0 0 1 2.082-2.038c.882-.478 1.874-.717 2.981-.717 1.107 0 2.024.204 2.795.61.772.407 1.381.947 1.826 1.619.37.561.631 1.158.781 1.782a.382.382 0 0 1-.3.45l-1.045.218a.377.377 0 0 1-.446-.28 3.948 3.948 0 0 0-.485-1.189 3.152 3.152 0 0 0-1.204-1.127c-.516-.283-1.146-.42-1.891-.42-.746 0-1.447.172-2.047.517a3.7 3.7 0 0 0-1.424 1.477c-.353.641-.525 1.406-.525 2.3v.212c0 .893.177 1.658.525 2.299a3.702 3.702 0 0 0 1.424 1.477c.6.345 1.284.517 2.047.517 1.137 0 2.006-.296 2.606-.893a3.805 3.805 0 0 0 1.036-1.84.372.372 0 0 1 .437-.287l1.067.234a.384.384 0 0 1 .291.478 6.32 6.32 0 0 1-.834 1.742 4.948 4.948 0 0 1-1.834 1.618c-.772.407-1.702.61-2.796.61h-.004ZM108.677 28.28V12.633c0-.212.171-.384.383-.384h1.081c.211 0 .383.172.383.385v6.393h.326c.155-.345.393-.668.715-.973.317-.305.732-.557 1.239-.76.507-.203 1.151-.305 1.931-.305.856 0 1.628.186 2.302.553a4.12 4.12 0 0 1 1.627 1.596c.406.694.609 1.56.609 2.59v6.558a.384.384 0 0 1-.384.385h-1.08a.384.384 0 0 1-.384-.385v-6.416c0-1.14-.286-1.972-.855-2.485-.569-.517-1.336-.774-2.302-.774-1.107 0-2.006.359-2.699 1.08-.692.72-1.04 1.79-1.04 3.21v5.385a.384.384 0 0 1-.384.385h-1.08a.384.384 0 0 1-.384-.385l-.004-.005ZM125.795 28.873a4.901 4.901 0 0 1-2.28-.54 3.9 3.9 0 0 1-1.636-1.604c-.396-.712-.595-1.575-.595-2.591V17.58c0-.212.172-.384.384-.384h1.08c.212 0 .384.172.384.384v6.416c0 1.14.286 1.968.855 2.485.569.517 1.336.774 2.302.774 1.089 0 1.989-.358 2.69-1.08.701-.72 1.054-1.79 1.054-3.214v-5.385c0-.212.172-.385.384-.385h1.08c.212 0 .384.173.384.385v10.7a.385.385 0 0 1-.384.385h-1.036a.385.385 0 0 1-.384-.385v-1.56h-.326c-.252.548-.679 1.043-1.288 1.49-.608.446-1.495.667-2.668.667ZM134.328 28.28v-10.7c0-.212.172-.384.384-.384h1.036c.212 0 .384.172.384.384v1.022h.326c.203-.5.516-.867.935-1.101.419-.235.974-.35 1.662-.35h.975c.212 0 .384.173.384.385v.92a.385.385 0 0 1-.384.384h-1.089c-.825 0-1.495.23-1.998.69-.507.46-.758 1.176-.758 2.145v6.605a.385.385 0 0 1-.384.385h-1.08a.385.385 0 0 1-.384-.384h-.009ZM146.582 28.992c-1.107 0-2.099-.238-2.981-.716a5.195 5.195 0 0 1-2.081-2.052c-.507-.888-.759-1.945-.759-3.165v-.257c0-1.233.252-2.295.759-3.179a5.19 5.19 0 0 1 2.081-2.038c.882-.478 1.874-.717 2.981-.717 1.107 0 2.024.204 2.796.61.772.407 1.38.947 1.826 1.619.37.561.63 1.158.78 1.782.049.203-.092.407-.3.45l-1.045.218a.377.377 0 0 1-.445-.28 3.948 3.948 0 0 0-.485-1.189 3.159 3.159 0 0 0-1.204-1.127c-.516-.283-1.147-.42-1.892-.42-.745 0-1.446.172-2.046.517-.6.345-1.076.836-1.424 1.477-.353.641-.525 1.406-.525 2.3v.212c0 .893.176 1.658.525 2.299a3.697 3.697 0 0 0 1.424 1.477c.6.345 1.283.517 2.046.517 1.138 0 2.007-.296 2.606-.893a3.815 3.815 0 0 0 1.037-1.84.372.372 0 0 1 .436-.287l1.067.234a.384.384 0 0 1 .291.478 6.288 6.288 0 0 1-.833 1.742 4.95 4.95 0 0 1-1.835 1.618c-.771.407-1.702.61-2.795.61h-.005ZM153.903 28.28V12.633c0-.212.172-.384.384-.384h1.08c.212 0 .384.172.384.385v6.393h.326c.154-.345.393-.668.714-.973.318-.305.732-.557 1.24-.76.507-.203 1.15-.305 1.931-.305.855 0 1.627.186 2.302.553a4.127 4.127 0 0 1 1.627 1.596c.406.694.609 1.56.609 2.59v6.558a.384.384 0 0 1-.384.385h-1.08a.384.384 0 0 1-.384-.385v-6.416c0-1.14-.287-1.972-.856-2.485-.568-.517-1.336-.774-2.301-.774-1.107 0-2.007.359-2.699 1.08-.692.72-1.041 1.79-1.041 3.21v5.385a.384.384 0 0 1-.383.385h-1.081a.384.384 0 0 1-.384-.385l-.004-.005Z"></path>
    </g>
    <defs>
        <clipPath id="church_logo_svg__a">
            <path fill="#fff" d="M0 .248h172v40H0z"></path>
        </clipPath>
        <clipPath id="church_logo_svg__b">
            <path fill="#fff" d="M0 .248h40v40H0z"></path>
        </clipPath>
    </defs>
</svg>