<svg xmlns="http://www.w3.org/2000/svg" width="278" height="44" viewBox="0 0 278 44" fill="none">
    <mask id="mask0_2224_15448" maskUnits="userSpaceOnUse" x="0" y="0" width="278" height="44">
        <path d="M0 12C0 5.37258 5.37258 0 12 0H266C272.627 0 278 5.37258 278 12V44H0V12Z"
            fill="#D9D9D9"></path>
    </mask>
    <g mask="url(#mask0_2224_15448)">
        <rect x="63.9785" y="-4" width="10.7705" height="84.1847"
            transform="rotate(49.4623 63.9785 -4)" fill="url(#paint0_linear_2224_15448)"
            fill-opacity="0.4"></rect>
        <rect x="204.979" y="3.68066" width="10.4716" height="84.1847"
            transform="rotate(49.4623 204.979 3.68066)" fill="url(#paint1_linear_2224_15448)"
            fill-opacity="0.4"></rect>
        <rect x="260.979" y="-4" width="21.9307" height="84.1847"
            transform="rotate(49.4623 260.979 -4)" fill="url(#paint2_linear_2224_15448)"
            fill-opacity="0.4"></rect>
        <rect x="245.547" y="3.68066" width="10.4716" height="84.1847"
            transform="rotate(49.4623 245.547 3.68066)" fill="url(#paint3_linear_2224_15448)"
            fill-opacity="0.4"></rect>
    </g>
    <defs>
        <linearGradient id="paint0_linear_2224_15448" x1="69.3637" y1="-4" x2="69.3637" y2="80.1847"
            gradientUnits="userSpaceOnUse">
            <stop stop-color="#507598" stop-opacity="0"></stop>
            <stop offset="0.370665" stop-color="#507598"></stop>
            <stop offset="1" stop-color="#05223D" stop-opacity="0"></stop>
        </linearGradient>
        <linearGradient id="paint1_linear_2224_15448" x1="210.214" y1="3.68066" x2="210.214"
            y2="87.8653" gradientUnits="userSpaceOnUse">
            <stop stop-color="#507598" stop-opacity="0"></stop>
            <stop offset="0.370665" stop-color="#507598"></stop>
            <stop offset="1" stop-color="#05223D" stop-opacity="0"></stop>
        </linearGradient>
        <linearGradient id="paint2_linear_2224_15448" x1="271.944" y1="-4" x2="271.944" y2="80.1847"
            gradientUnits="userSpaceOnUse">
            <stop stop-color="#507598" stop-opacity="0"></stop>
            <stop offset="0.370665" stop-color="#507598"></stop>
            <stop offset="1" stop-color="#05223D" stop-opacity="0"></stop>
        </linearGradient>
        <linearGradient id="paint3_linear_2224_15448" x1="250.783" y1="3.68066" x2="250.783"
            y2="87.8653" gradientUnits="userSpaceOnUse">
            <stop stop-color="#507598" stop-opacity="0"></stop>
            <stop offset="0.370665" stop-color="#507598"></stop>
            <stop offset="1" stop-color="#05223D" stop-opacity="0"></stop>
        </linearGradient>
    </defs>
</svg>