<svg class="cc-logo hideXs" width="184" height="40">
    <path
        d="M112.254 23.2858C113.887 23.2858 115.254 21.9191 115.254 20.2858C115.254 18.6526 113.887 17.2858 112.254 17.2858C110.621 17.2858 109.254 18.6526 109.254 20.2858C109.254 21.9191 110.621 23.2858 112.254 23.2858Z"
        fill="var(--primary)"></path>
    <path
        d="M170.577 11.2555C168.177 11.2555 166.621 12.1572 165.675 13.5428C164.729 12.0869 163.241 11.2555 161.246 11.2555C158.982 11.2555 157.494 12.1572 156.716 13.3346V11.7408H151.646V29.068H156.716V19.296C156.716 17.2507 157.663 16.0382 159.354 16.0382C160.976 16.0382 161.788 17.1466 161.788 18.8796V29.068H166.858V19.296C166.858 17.2507 167.805 16.0382 169.495 16.0382C171.117 16.0382 171.928 17.1466 171.928 18.8796V29.068H177V18.4295C177 14.097 174.464 11.2555 170.577 11.2555ZM141.167 24.4936C138.968 24.4936 137.278 22.8647 137.278 20.4044C137.278 17.9442 138.968 16.3153 141.167 16.3153C143.363 16.3153 145.054 17.9442 145.054 20.4044C145.054 22.8647 143.363 24.4936 141.167 24.4936ZM141.167 11.2555C136.197 11.2555 132.208 15.2406 132.208 20.4044C132.208 25.5682 136.197 29.5533 141.167 29.5533C146.135 29.5533 150.124 25.5682 150.124 20.4044C150.124 15.2406 146.135 11.2555 141.167 11.2555Z"
        fill="currentColor"></path>
    <path
        d="M125.012 24.7356C122.815 24.7356 121.193 23.1067 121.193 20.7154C121.193 18.3241 122.815 16.6951 125.012 16.6951C126.5 16.6951 127.717 17.4238 128.292 18.6363L132.721 16.0017C131.267 13.3332 128.359 11.5665 125.081 11.5665C119.942 11.5665 116.122 15.5515 116.122 20.7154C116.122 25.8792 119.942 29.8643 125.081 29.8643C128.393 29.8643 131.267 28.0961 132.721 25.3939L128.292 22.7944C127.751 24.0069 126.5 24.7356 125.012 24.7356ZM91.3083 24.9438C88.9755 24.9438 87.285 23.3149 87.285 20.7154C87.285 18.1159 88.9755 16.487 91.3083 16.487C93.641 16.487 95.3315 18.1159 95.3315 20.7154C95.3315 23.3149 93.641 24.9438 91.3083 24.9438ZM95.3315 13.6807C94.2159 12.3641 92.5597 11.5665 90.2942 11.5665C85.8661 11.5665 82.2147 15.5515 82.2147 20.7154C82.2147 25.8792 85.8661 29.8643 90.2942 29.8643C92.5597 29.8643 94.2159 29.0667 95.3315 27.75V29.379H100.402V12.0518H95.3315V13.6807ZM78.3945 7.20023L73.3243 8.7588V12.0518H70.6197V17.0426H73.3243V23.1756C73.3243 28.0272 75.2508 30.0724 81.8772 29.379V24.6667C79.646 24.8045 78.3945 24.6667 78.3945 23.1756V17.0426H81.8772V12.0518H78.3945V7.20023Z"
        fill="currentColor"></path>
    <path d="M64.1368 29.0679H69.2071V11.7408H64.1368V29.0679Z" fill="currentColor"></path>
    <path d="M102.763 29.068H107.833V4L102.763 5.58386V29.068Z" fill="currentColor"></path>
    <path
        d="M53.5228 24.6314C51.1887 24.6314 49.4968 23.0025 49.4968 20.4058C49.4968 17.8035 51.1887 16.1788 53.5228 16.1788C55.8528 16.1788 57.5447 17.8035 57.5447 20.4058C57.5447 23.0025 55.8528 24.6314 53.5228 24.6314ZM54.5369 11.2569C52.27 11.2569 50.6138 12.0517 49.4968 13.3683V11.7422H44.4266V36H49.4968V27.4377C50.6138 28.7543 52.27 29.5533 54.5369 29.5533C58.9663 29.5533 62.615 25.5668 62.615 20.4058C62.615 15.2392 58.9663 11.2569 54.5369 11.2569ZM32.9674 24.6328C30.636 24.6328 28.9455 23.0039 28.9455 20.4044C28.9455 17.8049 30.636 16.176 32.9674 16.176C35.3001 16.176 36.9907 17.8049 36.9907 20.4044C36.9907 23.0039 35.3001 24.6328 32.9674 24.6328ZM36.9907 13.3697C35.8751 12.0531 34.2188 11.2555 31.9533 11.2555C27.5253 11.2555 23.8739 15.2406 23.8739 20.4044C23.8739 25.5682 27.5253 29.5533 31.9533 29.5533C34.2188 29.5533 35.8751 28.7557 36.9907 27.4391V29.068H42.0623V11.7408H36.9907V13.3697ZM15.8904 16.3842C17.3779 16.3842 18.595 17.1128 19.17 18.3254L23.5981 15.6907C22.1449 13.0223 19.2372 11.2555 15.9577 11.2555C10.8202 11.2555 7 15.2406 7 20.4044C7 25.5682 10.8202 29.5533 15.9577 29.5533C19.2715 29.5533 22.1449 27.7851 23.5981 25.083L19.17 22.4835C18.6293 23.696 17.3779 24.4246 15.8904 24.4246C13.6936 24.4246 12.0703 22.7957 12.0703 20.4044C12.0703 18.0131 13.6936 16.3842 15.8904 16.3842Z"
        fill="currentColor"></path>
    <path
        d="M66.7328 10.4495C68.389 10.4495 69.7749 9.02736 69.7749 7.32952C69.7749 5.63169 68.389 4.21097 66.7328 4.21097C65.0765 4.21097 63.6906 5.63169 63.6906 7.32952C63.6906 9.02736 65.0765 10.4495 66.7328 10.4495Z"
        fill="currentColor"></path>
</svg>