<svg width="20" height="20" viewBox="0 0 20 20" fill="none" xmlns="http://www.w3.org/2000/svg">
    <path fill-rule="evenodd" clip-rule="evenodd"
        d="M10.0159 8.03176C11.6873 8.03176 13.0318 6.68727 13.0318 5.01588C13.0318 3.3723 11.6819 2 10.0159 2C8.34449 2 7 3.34449 7 5.01588C7 6.68727 8.34449 8.03176 10.0159 8.03176ZM10.0159 9.03176C12.2396 9.03176 14.0318 7.23955 14.0318 5.01588C14.0318 2.8254 12.2396 1 10.0159 1C7.79221 1 6 2.79221 6 5.01588C6 7.23955 7.79221 9.03176 10.0159 9.03176Z"
        fill="#635AF0"></path>
    <path fill-rule="evenodd" clip-rule="evenodd"
        d="M12.3255 13.4899C12.8809 13.1408 13.0318 12.7841 13.0318 12.5527C13.0318 12.3459 12.8905 11.9954 12.3255 11.6403C11.7793 11.2969 10.9634 11.0458 10.0084 11.0303C9.05762 11.0315 8.24744 11.2752 7.70624 11.6154C7.15085 11.9645 7 12.3212 7 12.5527C7 12.7841 7.15085 13.1408 7.70623 13.4899C8.24885 13.831 9.06185 14.075 10.0159 14.075C10.9699 14.075 11.7829 13.831 12.3255 13.4899ZM10.0159 10.0303C7.79221 10.0303 6 11.1587 6 12.5527C6 13.9466 7.79221 15.075 10.0159 15.075C12.2396 15.075 14.0318 13.9466 14.0318 12.5527C14.0318 11.1919 12.2396 10.0635 10.0159 10.0303Z"
        fill="#635AF0"></path>
    <path fill-rule="evenodd" clip-rule="evenodd"
        d="M10.0233 17.1007H10.0159C8.99028 17.1007 8.10988 17.2555 7.52225 17.4738C7.41138 17.515 7.31816 17.5557 7.24081 17.5943C7.31816 17.6328 7.41138 17.6736 7.52225 17.7147C8.10988 17.933 8.99028 18.0878 10.0159 18.0878C11.0415 18.0878 11.9219 17.933 12.5095 17.7147C12.625 17.6718 12.7213 17.6294 12.8005 17.5895C12.7203 17.548 12.6224 17.5039 12.5048 17.4596C11.9213 17.2395 11.047 17.0855 10.0308 17.1006L10.0233 17.1007ZM13.0819 17.7832C13.0818 17.7832 13.0812 17.7824 13.08 17.7809C13.0813 17.7824 13.0819 17.7832 13.0819 17.7832ZM10.0159 16.1007C7.79221 16.1007 6 16.7645 6 17.5943C6 18.424 7.79221 19.0878 10.0159 19.0878C12.2396 19.0878 14.0318 18.424 14.0318 17.5943C14.0318 16.7645 12.2396 16.0676 10.0159 16.1007ZM6.948 17.4003C6.94708 17.3992 6.94667 17.3987 6.9467 17.3987C6.94673 17.3987 6.94719 17.3992 6.948 17.4003ZM6.948 17.7882C6.94719 17.7893 6.94673 17.7898 6.9467 17.7898C6.94667 17.7898 6.94708 17.7893 6.948 17.7882Z"
        fill="#635AF0"></path>
</svg>