<?xml version="1.0" encoding="UTF-8"?>
<!-- Generator: Adobe Illustrator 23.0.4, SVG Export Plug-In . SVG Version: 6.00 Build 0)  -->
<svg version="1.1" id="Layer_1" xmlns="http://www.w3.org/2000/svg" xmlns:xlink="http://www.w3.org/1999/xlink" x="0px" y="0px" viewBox="0 0 130.56 150" style="enable-background:new 0 0 130.56 150;" xml:space="preserve">
<style type="text/css">
	.st0{fill:#CB2026;}
</style>
<g>
	<path class="st0" d="M33.03,59.34c0-1.59,1.12-3.53,2.49-4.33l27.28-15.84c1.37-0.79,3.6-0.79,4.97,0L91.57,53l33.59-19.37   c-0.25-0.18-0.49-0.38-0.74-0.52L71.35,1.84c-3.34-1.97-8.8-1.97-12.14,0L6.14,33.11C2.76,35.09,0,39.99,0,43.99v61.8l33.03-19.04   V59.34z"/>
	<path class="st0" d="M97.53,63.61v27.4c0,1.59-1.12,3.53-2.49,4.33l-27.28,15.84c-1.37,0.79-3.6,0.79-4.97,0l-23.8-13.82   L5.4,116.73c0.25,0.18,0.49,0.38,0.74,0.53l53.07,31.27c3.34,1.97,8.8,1.97,12.14,0l53.07-31.27c3.38-1.99,6.14-6.89,6.14-10.89   v-61.8L97.53,63.61z"/>
</g>
</svg>