<svg width="24" height="25" viewBox="0 0 24 25" fill="none" xmlns="http://www.w3.org/2000/svg">
<path d="M2.05859 12.2478C2.05859 13.5533 2.31574 14.8461 2.81534 16.0522C3.31494 17.2584 4.04722 18.3543 4.97036 19.2774C5.89351 20.2006 6.98944 20.9329 8.19559 21.4325C9.40174 21.9321 10.6945 22.1892 12 22.1892C13.3055 22.1892 14.5983 21.9321 15.8044 21.4325C17.0106 20.9329 18.1065 20.2006 19.0296 19.2774C19.9528 18.3543 20.6851 17.2584 21.1847 16.0522C21.6843 14.8461 21.9414 13.5533 21.9414 12.2478C21.9414 10.9423 21.6843 9.64954 21.1847 8.44339C20.6851 7.23724 19.9528 6.14131 19.0296 5.21817C18.1065 4.29502 17.0106 3.56274 15.8044 3.06314C14.5983 2.56354 13.3055 2.3064 12 2.3064C10.6945 2.3064 9.40174 2.56354 8.19559 3.06314C6.98944 3.56274 5.89351 4.29502 4.97036 5.21817C4.04722 6.14131 3.31494 7.23724 2.81534 8.44339C2.31574 9.64954 2.05859 10.9423 2.05859 12.2478Z" stroke="#3BB273" stroke-width="2" stroke-linecap="round" stroke-linejoin="round"/>
<path d="M8.68616 12.2478L10.8954 14.457L15.3138 10.0386" stroke="#3BB273" stroke-width="2" stroke-linecap="round" stroke-linejoin="round"/>
</svg>
