<svg width="25" height="25" viewBox="0 0 25 25" fill="none" xmlns="http://www.w3.org/2000/svg">
<path d="M2.55859 12.2478C2.55859 13.5533 2.81574 14.8461 3.31534 16.0522C3.81494 17.2584 4.54722 18.3543 5.47036 19.2774C6.39351 20.2006 7.48944 20.9329 8.69559 21.4325C9.90174 21.9321 11.1945 22.1892 12.5 22.1892C13.8055 22.1892 15.0983 21.9321 16.3044 21.4325C17.5106 20.9329 18.6065 20.2006 19.5296 19.2774C20.4528 18.3543 21.1851 17.2584 21.6847 16.0522C22.1843 14.8461 22.4414 13.5533 22.4414 12.2478C22.4414 10.9423 22.1843 9.64954 21.6847 8.44339C21.1851 7.23724 20.4528 6.14131 19.5296 5.21817C18.6065 4.29502 17.5106 3.56274 16.3044 3.06314C15.0983 2.56354 13.8055 2.3064 12.5 2.3064C11.1945 2.3064 9.90174 2.56354 8.69559 3.06314C7.48944 3.56274 6.39351 4.29502 5.47036 5.21817C4.54722 6.14131 3.81494 7.23724 3.31534 8.44339C2.81574 9.64954 2.55859 10.9423 2.55859 12.2478Z" stroke="#FF0000" stroke-width="2" stroke-linecap="round" stroke-linejoin="round"/>
<path d="M9.83337 9.58118L15.1667 14.9145M15.1667 9.58118L9.83337 14.9145" stroke="#FF0000" stroke-width="2" stroke-linecap="round" stroke-linejoin="round"/>
</svg>
