<svg width="20" height="20" viewBox="0 0 20 20" fill="none" xmlns="http://www.w3.org/2000/svg">
    <path d="M17.7143 13.8571L11.9286 7.10714L7 11L2.28572 6.14285" stroke="currentColor"
        stroke-linecap="round" stroke-linejoin="round" />
    <path
        d="M7.28571 10.6429C7.28571 10.8134 7.21798 10.9769 7.09742 11.0974C6.97686 11.218 6.81334 11.2857 6.64285 11.2857C6.47235 11.2857 6.30884 11.218 6.18828 11.0974C6.06772 10.9769 5.99999 10.8134 5.99999 10.6429C5.99999 10.4724 6.06772 10.3088 6.18828 10.1883C6.30884 10.0677 6.47235 10 6.64285 10C6.81334 10 6.97686 10.0677 7.09742 10.1883C7.21798 10.3088 7.28571 10.4724 7.28571 10.6429Z"
        stroke="currentColor" stroke-linecap="round" stroke-linejoin="round" />
    <path
        d="M12.5714 6.78571C12.5714 6.95621 12.5037 7.11972 12.3831 7.24028C12.2626 7.36084 12.0991 7.42857 11.9286 7.42857C11.7581 7.42857 11.5945 7.36084 11.474 7.24028C11.3534 7.11972 11.2857 6.95621 11.2857 6.78571C11.2857 6.61521 11.3534 6.4517 11.474 6.33114C11.5945 6.21058 11.7581 6.14285 11.9286 6.14285C12.0991 6.14285 12.2626 6.21058 12.3831 6.33114C12.5037 6.4517 12.5714 6.61521 12.5714 6.78571Z"
        stroke="currentColor" stroke-linecap="round" stroke-linejoin="round" />
    <path
        d="M19 13.8571C19 14.1981 18.8645 14.5252 18.6234 14.7663C18.3823 15.0074 18.0553 15.1429 17.7143 15.1429C17.3733 15.1429 17.0463 15.0074 16.8051 14.7663C16.564 14.5252 16.4286 14.1981 16.4286 13.8571C16.4286 13.5161 16.564 13.1891 16.8051 12.948C17.0463 12.7069 17.3733 12.5714 17.7143 12.5714C18.0553 12.5714 18.3823 12.7069 18.6234 12.948C18.8645 13.1891 19 13.5161 19 13.8571Z"
        fill="currentColor" />
    <path
        d="M3.57141 6.14285C3.57141 6.48385 3.43595 6.81087 3.19484 7.05199C2.95372 7.29311 2.62669 7.42857 2.2857 7.42857C1.9447 7.42857 1.61768 7.29311 1.37656 7.05199C1.13544 6.81087 0.999983 6.48385 0.999983 6.14285C0.999983 5.80186 1.13544 5.47484 1.37656 5.23372C1.61768 4.9926 1.9447 4.85714 2.2857 4.85714C2.62669 4.85714 2.95372 4.9926 3.19484 5.23372C3.43595 5.47484 3.57141 5.80186 3.57141 6.14285Z"
        fill="currentColor" />
</svg>