<svg
    xmlns="http://www.w3.org/2000/svg"
    width="25"
    height="18"
    viewBox="0 0 25 18"
    fill="none"
>
    <path
        fillRule="evenodd"
        clipRule="evenodd"
        d="M14.4852 9.7867L22.5702 6.32127C22.8387 6.2061 23.0127 5.94207 23.0127 5.64995C23.0127 5.35783 22.8387 5.0938 22.5702 4.97863L14.4852 1.5132C14.1176 1.35563 13.7015 1.35563 13.3339 1.5132L3.68274 5.64776L13.3339 9.78524C13.7016 9.94208 14.1172 9.94261 14.4852 9.7867V9.7867Z"
        stroke="currentColor"
        strokeWidth="2"
        strokeLinecap="round"
        strokeLinejoin="round"
    />
    <path
        d="M8.06568 7.52808V12.4954C8.06513 12.7724 8.22128 13.0258 8.4689 13.1499L13.2565 15.543C13.6677 15.7484 14.1515 15.7484 14.5626 15.543L19.3502 13.1499C19.5979 13.0258 19.754 12.7724 19.7535 12.4954V7.52808"
        stroke="currentColor"
        strokeWidth="2"
        strokeLinecap="round"
        strokeLinejoin="round"
    />
    <path
        d="M3.68274 5.64917V10.7626"
        stroke="currentColor"
        strokeWidth="2"
        strokeLinecap="round"
        strokeLinejoin="round"
    />
    <path
        d="M3.68278 10.7612L1.67686 16.1142C1.63515 16.2261 1.65097 16.3513 1.71919 16.4492C1.78741 16.5472 1.89936 16.6055 2.01873 16.6051H5.34683C5.46658 16.6056 5.57891 16.5472 5.6472 16.4488C5.7155 16.3505 5.73102 16.2248 5.6887 16.1128L3.68278 10.7612"
        stroke="currentColor"
        strokeWidth="2"
        strokeLinecap="round"
        strokeLinejoin="round"
    />
</svg>