<svg
    xmlns="http://www.w3.org/2000/svg"
    width="24"
    height="24"
    viewBox="0 0 24 24"
    fill="none"
>
    <path
        d="M9 12C9 12.7956 9.31607 13.5587 9.87868 14.1213C10.4413 14.6839 11.2044 15 12 15C12.7956 15 13.5587 14.6839 14.1213 14.1213C14.6839 13.5587 15 12.7956 15 12C15 11.2044 14.6839 10.4413 14.1213 9.87868C13.5587 9.31607 12.7956 9 12 9C11.2044 9 10.4413 9.31607 9.87868 9.87868C9.31607 10.4413 9 11.2044 9 12Z"
        stroke="currentColor"
        strokeLinecap="round"
        strokeLinejoin="round"
    />
    <path d="M12 21V21.01" stroke="currentColor" strokeLinecap="round" strokeLinejoin="round" />
    <path d="M3 9V9.01" stroke="currentColor" strokeLinecap="round" strokeLinejoin="round" />
    <path d="M21 9V9.01" stroke="currentColor" strokeLinecap="round" strokeLinejoin="round" />
    <path
        d="M8 20.1C6.63534 19.4344 5.46126 18.4343 4.58704 17.1929C3.71281 15.9515 3.16686 14.5091 3 13"
        stroke="currentColor"
        strokeLinecap="round"
        strokeLinejoin="round"
    />
    <path
        d="M16 20.1C17.3647 19.4344 18.5387 18.4343 19.413 17.1929C20.2872 15.9515 20.8331 14.5091 21 13"
        stroke="currentColor"
        strokeLinecap="round"
        strokeLinejoin="round"
    />
    <path
        d="M6.19995 4.99999C7.80804 3.68395 9.82199 2.9649 11.9 2.9649C13.9779 2.9649 15.9919 3.68395 17.6 4.99999"
        stroke="currentColor"
        strokeLinecap="round"
        strokeLinejoin="round"
    />
</svg>