<svg
    xmlns="http://www.w3.org/2000/svg"
    width="22"
    height="22"
    viewBox="0 0 22 22"
    fill="none"
>
    <path
        d="M1 7.25C1 6.91848 1.1317 6.60054 1.36612 6.36612C1.60054 6.1317 1.91848 6 2.25 6H4.75C5.08152 6 5.39946 6.1317 5.63388 6.36612C5.8683 6.60054 6 6.91848 6 7.25V11C6 11.3315 5.8683 11.6495 5.63388 11.8839C5.39946 12.1183 5.08152 12.25 4.75 12.25H2.25C1.91848 12.25 1.60054 12.1183 1.36612 11.8839C1.1317 11.6495 1 11.3315 1 11V7.25Z"
        stroke="currentColor"
        strokeLinecap="round"
        strokeLinejoin="round"
    />
    <path d="M3.5 3.5L3.5 6" stroke="currentColor" strokeLinecap="round" strokeLinejoin="round" />
    <path
        d="M3.5 12.25L3.5 21"
        stroke="currentColor"
        strokeLinecap="round"
        strokeLinejoin="round"
    />
    <path
        d="M8.5 11C8.5 10.6685 8.6317 10.3505 8.86612 10.1161C9.10054 9.8817 9.41848 9.75 9.75 9.75H12.25C12.5815 9.75 12.8995 9.8817 13.1339 10.1161C13.3683 10.3505 13.5 10.6685 13.5 11V14.75C13.5 15.0815 13.3683 15.3995 13.1339 15.6339C12.8995 15.8683 12.5815 16 12.25 16H9.75C9.41848 16 9.10054 15.8683 8.86612 15.6339C8.6317 15.3995 8.5 15.0815 8.5 14.75V11Z"
        stroke="currentColor"
        strokeLinecap="round"
        strokeLinejoin="round"
    />
    <path
        d="M11 4.75L11 9.75"
        stroke="currentColor"
        strokeLinecap="round"
        strokeLinejoin="round"
    />
    <path d="M11 16V17.25" stroke="currentColor" strokeLinecap="round" strokeLinejoin="round" />
    <path
        d="M16 3.5C16 3.16848 16.1317 2.85054 16.3661 2.61612C16.6005 2.3817 16.9185 2.25 17.25 2.25H19.75C20.0815 2.25 20.3995 2.3817 20.6339 2.61612C20.8683 2.85054 21 3.16848 21 3.5V8.5C21 8.83152 20.8683 9.14946 20.6339 9.38388C20.3995 9.6183 20.0815 9.75 19.75 9.75H17.25C16.9185 9.75 16.6005 9.6183 16.3661 9.38388C16.1317 9.14946 16 8.83152 16 8.5V3.5Z"
        stroke="currentColor"
        strokeLinecap="round"
        strokeLinejoin="round"
    />
    <path d="M18.5 1V2.25" stroke="currentColor" strokeLinecap="round" strokeLinejoin="round" />
    <path
        d="M18.5 9.75V14.75"
        stroke="currentColor"
        strokeLinecap="round"
        strokeLinejoin="round"
    />
</svg>