<svg width="21" height="20" viewBox="0 0 21 20" fill="none" xmlns="http://www.w3.org/2000/svg">
    <path d="M2.78572 13.8571L8.57143 7.10714L13.3929 11.9286L18.2143 6.14285" stroke="currentColor"
        stroke-linecap="round" stroke-linejoin="round" />
    <path
        d="M13.0714 11.9286C13.0714 12.0991 13.1392 12.2626 13.2597 12.3831C13.3803 12.5037 13.5438 12.5714 13.7143 12.5714C13.8848 12.5714 14.0483 12.5037 14.1689 12.3831C14.2894 12.2626 14.3571 12.0991 14.3571 11.9286C14.3571 11.7581 14.2894 11.5946 14.1689 11.474C14.0483 11.3534 13.8848 11.2857 13.7143 11.2857C13.5438 11.2857 13.3803 11.3534 13.2597 11.474C13.1392 11.5946 13.0714 11.7581 13.0714 11.9286Z"
        stroke="currentColor" stroke-linecap="round" stroke-linejoin="round" />
    <path
        d="M7.92857 6.78571C7.92857 6.95621 7.9963 7.11972 8.11686 7.24028C8.23742 7.36084 8.40093 7.42857 8.57143 7.42857C8.74193 7.42857 8.90544 7.36084 9.026 7.24028C9.14656 7.11972 9.21429 6.95621 9.21429 6.78571C9.21429 6.61521 9.14656 6.4517 9.026 6.33114C8.90544 6.21058 8.74193 6.14285 8.57143 6.14285C8.40093 6.14285 8.23742 6.21058 8.11686 6.33114C7.9963 6.4517 7.92857 6.61521 7.92857 6.78571Z"
        stroke="currentColor" stroke-linecap="round" stroke-linejoin="round" />
    <path
        d="M1.5 13.8571C1.5 14.1981 1.63546 14.5252 1.87658 14.7663C2.1177 15.0074 2.44472 15.1429 2.78571 15.1429C3.12671 15.1429 3.45373 15.0074 3.69485 14.7663C3.93597 14.5252 4.07143 14.1981 4.07143 13.8571C4.07143 13.5161 3.93597 13.1891 3.69485 12.948C3.45373 12.7069 3.12671 12.5714 2.78571 12.5714C2.44472 12.5714 2.1177 12.7069 1.87658 12.948C1.63546 13.1891 1.5 13.5161 1.5 13.8571Z"
        fill="currentColor" stroke="currentColor" stroke-linecap="round" stroke-linejoin="round" />
    <path
        d="M16.9286 6.14285C16.9286 6.48385 17.064 6.81087 17.3051 7.05199C17.5463 7.29311 17.8733 7.42857 18.2143 7.42857C18.5553 7.42857 18.8823 7.29311 19.1234 7.05199C19.3645 6.81087 19.5 6.48385 19.5 6.14285C19.5 5.80186 19.3645 5.47484 19.1234 5.23372C18.8823 4.9926 18.5553 4.85714 18.2143 4.85714C17.8733 4.85714 17.5463 4.9926 17.3051 5.23372C17.064 5.47484 16.9286 5.80186 16.9286 6.14285Z"
        fill="currentColor" stroke="currentColor" stroke-linecap="round" stroke-linejoin="round" />
</svg>