<svg width="25" height="24" viewBox="0 0 25 24" fill="none" xmlns="http://www.w3.org/2000/svg">
    <path
        d="M5.66663 7C5.66663 8.06087 6.08805 9.07828 6.8382 9.82843C7.58834 10.5786 8.60576 11 9.66663 11C10.7275 11 11.7449 10.5786 12.4951 9.82843C13.2452 9.07828 13.6666 8.06087 13.6666 7C13.6666 5.93913 13.2452 4.92172 12.4951 4.17157C11.7449 3.42143 10.7275 3 9.66663 3C8.60576 3 7.58834 3.42143 6.8382 4.17157C6.08805 4.92172 5.66663 5.93913 5.66663 7Z"
        stroke="currentColor" stroke-width="2" stroke-linecap="round" stroke-linejoin="round" />
    <path
        d="M3.66663 21V19C3.66663 17.9391 4.08805 16.9217 4.8382 16.1716C5.58834 15.4214 6.60576 15 7.66663 15H11.6666C12.7275 15 13.7449 15.4214 14.4951 16.1716C15.2452 16.9217 15.6666 17.9391 15.6666 19V21"
        stroke="currentColor" stroke-width="2" stroke-linecap="round" stroke-linejoin="round" />
    <path
        d="M16.6666 3.13C17.527 3.35031 18.2897 3.85071 18.8343 4.55232C19.3789 5.25392 19.6745 6.11683 19.6745 7.005C19.6745 7.89318 19.3789 8.75608 18.8343 9.45769C18.2897 10.1593 17.527 10.6597 16.6666 10.88"
        stroke="currentColor" stroke-width="2" stroke-linecap="round" stroke-linejoin="round" />
    <path
        d="M21.6666 21V19C21.6615 18.1172 21.3645 17.2608 20.8219 16.5644C20.2792 15.868 19.5215 15.3707 18.6666 15.15"
        stroke="currentColor" stroke-width="2" stroke-linecap="round" stroke-linejoin="round" />
</svg>