<svg xmlns="http://www.w3.org/2000/svg" width="80" height="88" viewBox="0 0 80 88" fill="none">
    <g filter="url(#filter0_dd_1986_110000)">
        <path
            d="M37.937 3.10769C39.0808 2.44733 40.49 2.44733 41.6338 3.10769L65.6498 16.9734C66.7936 17.6337 67.4982 18.8541 67.4982 20.1749V47.9062C67.4982 49.2269 66.7936 50.4473 65.6498 51.1077L41.6338 64.9734C40.49 65.6337 39.0808 65.6337 37.937 64.9734L13.921 51.1077C12.7772 50.4473 12.0726 49.2269 12.0726 47.9062V20.1749C12.0726 18.8541 12.7772 17.6337 13.921 16.9734L37.937 3.10769Z"
            fill="#32DBBD"></path>
        <path
            d="M41.1338 3.97372L65.1498 17.8394C65.9842 18.3211 66.4982 19.2114 66.4982 20.1749V47.9062C66.4982 48.8697 65.9842 49.7599 65.1498 50.2417L41.1338 64.1073C40.2994 64.5891 39.2714 64.5891 38.437 64.1073L14.421 50.2417C13.5866 49.7599 13.0726 48.8697 13.0726 47.9062V20.1749C13.0726 19.2114 13.5866 18.3211 14.421 17.8394L38.437 3.97372C39.2714 3.49199 40.2994 3.49199 41.1338 3.97372Z"
            stroke="white" stroke-width="2"></path>
    </g>
    <path d="M39.7854 41.0405L39.7854 27.0405" stroke="white" stroke-width="2"
        stroke-linecap="round" stroke-linejoin="round"></path>
    <path d="M35.3644 31.4616L39.7855 27.0405L44.2065 31.4616" stroke="white" stroke-width="2"
        stroke-linecap="round" stroke-linejoin="round"></path>
    <defs>
        <filter id="filter0_dd_1986_110000" x="0.0725098" y="0.612427" width="79.4258"
            height="86.8562" filterUnits="userSpaceOnUse" color-interpolation-filters="sRGB">
            <feFlood flood-opacity="0" result="BackgroundImageFix"></feFlood>
            <feColorMatrix in="SourceAlpha" type="matrix"
                values="0 0 0 0 0 0 0 0 0 0 0 0 0 0 0 0 0 0 127 0" result="hardAlpha"></feColorMatrix>
            <feMorphology radius="3" operator="erode" in="SourceAlpha"
                result="effect1_dropShadow_1986_110000"></feMorphology>
            <feOffset dy="10"></feOffset>
            <feGaussianBlur stdDeviation="7.5"></feGaussianBlur>
            <feComposite in2="hardAlpha" operator="out"></feComposite>
            <feColorMatrix type="matrix" values="0 0 0 0 0 0 0 0 0 0 0 0 0 0 0 0 0 0 0.1 0"></feColorMatrix>
            <feBlend mode="normal" in2="BackgroundImageFix" result="effect1_dropShadow_1986_110000"></feBlend>
            <feColorMatrix in="SourceAlpha" type="matrix"
                values="0 0 0 0 0 0 0 0 0 0 0 0 0 0 0 0 0 0 127 0" result="hardAlpha"></feColorMatrix>
            <feMorphology radius="2" operator="erode" in="SourceAlpha"
                result="effect2_dropShadow_1986_110000"></feMorphology>
            <feOffset dy="4"></feOffset>
            <feGaussianBlur stdDeviation="3"></feGaussianBlur>
            <feComposite in2="hardAlpha" operator="out"></feComposite>
            <feColorMatrix type="matrix" values="0 0 0 0 0 0 0 0 0 0 0 0 0 0 0 0 0 0 0.05 0"></feColorMatrix>
            <feBlend mode="normal" in2="effect1_dropShadow_1986_110000"
                result="effect2_dropShadow_1986_110000"></feBlend>
            <feBlend mode="normal" in="SourceGraphic" in2="effect2_dropShadow_1986_110000"
                result="shape"></feBlend>
        </filter>
    </defs>
</svg>