<svg xmlns="http://www.w3.org/2000/svg" width="20" height="20" viewBox="0 0 20 20" fill="none">
    <path
        d="M8.9017 6.64094C8.9017 6.17713 9.27769 5.80115 9.7415 5.80115C10.2053 5.80115 10.5813 6.17713 10.5813 6.64094C10.5813 7.10474 10.2053 7.48073 9.7415 7.48073C9.27769 7.48073 8.9017 7.10474 8.9017 6.64094Z"
        fill="currentColor"></path>
    <path
        d="M8.38504 8.96646C8.38504 8.64536 8.64533 8.38506 8.96643 8.38506H9.48323C10.0897 8.38506 10.5814 8.87674 10.5814 9.48325V12.0672C10.5814 12.317 10.7839 12.5194 11.0336 12.5194H11.5504C11.8715 12.5194 12.1318 12.7797 12.1318 13.1008C12.1318 13.4219 11.8715 13.6822 11.5504 13.6822H11.0336C10.1417 13.6822 9.41863 12.9592 9.41863 12.0672V9.54785H8.96643C8.64533 9.54785 8.38504 9.28755 8.38504 8.96646Z"
        fill="currentColor"></path>
    <path fill-rule="evenodd" clip-rule="evenodd"
        d="M9.99996 1.66675C5.39759 1.66675 1.66663 5.39771 1.66663 10.0001C1.66663 14.6025 5.39759 18.3334 9.99996 18.3334C14.6023 18.3334 18.3333 14.6025 18.3333 10.0001C18.3333 5.39771 14.6023 1.66675 9.99996 1.66675ZM2.82942 10.0001C2.82942 6.0399 6.03978 2.82954 9.99996 2.82954C13.9601 2.82954 17.1705 6.0399 17.1705 10.0001C17.1705 13.9603 13.9601 17.1706 9.99996 17.1706C6.03978 17.1706 2.82942 13.9603 2.82942 10.0001Z"
        fill="currentColor"></path>
</svg>