<svg width="84" height="69" viewBox="0 0 84 69" fill="none" xmlns="http://www.w3.org/2000/svg">
<g clip-path="url(#clip0_1400_104589)">
<path d="M41.7939 8.24546C41.7939 17.9364 48.8282 26.8818 59.9351 28.7455C58.084 39.9273 48.0878 51.1091 41.7939 55.5818L55.4924 69C71.4122 55.2091 84 35.8273 84 9.73636C84 -4.05455 74.374 -13 62.1565 -13C50.6794 -13 41.7939 -3.30909 41.7939 8.24546ZM-13 8.24546C-13 17.9364 -5.96565 26.8818 5.14122 28.7455C3.29008 39.9273 -6.7061 51.1091 -13 55.5818L0.698486 69C16.6183 55.2091 29.2061 35.8273 29.2061 9.73637C29.2061 -4.05455 19.5801 -13 7.3626 -13C-4.11451 -13 -13 -3.30909 -13 8.24546Z" fill="#E6E9EC"/>
</g>
<defs>
<clipPath id="clip0_1400_104589">
<path d="M0 12C0 5.37258 5.37258 0 12 0H84V69H0V12Z" fill="white"/>
</clipPath>
</defs>
</svg>
