<?xml version="1.0" encoding="utf-8"?><svg xmlns="http://www.w3.org/2000/svg" xmlns:xlink="http://www.w3.org/1999/xlink"><symbol fill="none" viewBox="0 0 24 25" id="arrow-left" xmlns="http://www.w3.org/2000/svg"><path d="M19 12.248H5M9.421 16.669 5 12.248l4.421-4.421" stroke="currentColor" stroke-width="2" stroke-linecap="round" stroke-linejoin="round"/></symbol><symbol fill="none" viewBox="0 0 24 24" id="arrow-right" xmlns="http://www.w3.org/2000/svg"><path d="M5 12h14M14.579 7.579 19 12l-4.421 4.421" stroke="currentColor" stroke-width="2" stroke-linecap="round" stroke-linejoin="round"/></symbol><symbol fill="none" viewBox="0 0 80 88" id="arrow-top-hexagon" xmlns="http://www.w3.org/2000/svg"><g filter="url(#aca)"><path d="M37.937 3.108a3.697 3.697 0 0 1 3.697 0L65.65 16.973a3.697 3.697 0 0 1 1.848 3.202v27.731c0 1.32-.704 2.541-1.848 3.202L41.634 64.973a3.697 3.697 0 0 1-3.697 0L13.921 51.108a3.697 3.697 0 0 1-1.848-3.202V20.175c0-1.32.704-2.541 1.848-3.202L37.937 3.108Z" fill="#32DBBD"/><path d="M41.134 3.974 65.15 17.839a2.697 2.697 0 0 1 1.348 2.336v27.731c0 .964-.514 1.854-1.348 2.336L41.134 64.107a2.696 2.696 0 0 1-2.697 0L14.421 50.242a2.697 2.697 0 0 1-1.348-2.336V20.175c0-.964.514-1.854 1.348-2.336L38.437 3.974a2.697 2.697 0 0 1 2.697 0Z" stroke="#fff" stroke-width="2"/></g><path d="M39.785 41.04v-14M35.364 31.462l4.422-4.421 4.42 4.42" stroke="#fff" stroke-width="2" stroke-linecap="round" stroke-linejoin="round"/><defs><filter id="aca" x=".073" y=".612" width="79.426" height="86.856" filterUnits="userSpaceOnUse" color-interpolation-filters="sRGB"><feFlood flood-opacity="0" result="BackgroundImageFix"/><feColorMatrix in="SourceAlpha" values="0 0 0 0 0 0 0 0 0 0 0 0 0 0 0 0 0 0 127 0" result="hardAlpha"/><feMorphology radius="3" in="SourceAlpha" result="effect1_dropShadow_1986_110000"/><feOffset dy="10"/><feGaussianBlur stdDeviation="7.5"/><feComposite in2="hardAlpha" operator="out"/><feColorMatrix values="0 0 0 0 0 0 0 0 0 0 0 0 0 0 0 0 0 0 0.1 0"/><feBlend in2="BackgroundImageFix" result="effect1_dropShadow_1986_110000"/><feColorMatrix in="SourceAlpha" values="0 0 0 0 0 0 0 0 0 0 0 0 0 0 0 0 0 0 127 0" result="hardAlpha"/><feMorphology radius="2" in="SourceAlpha" result="effect2_dropShadow_1986_110000"/><feOffset dy="4"/><feGaussianBlur stdDeviation="3"/><feComposite in2="hardAlpha" operator="out"/><feColorMatrix values="0 0 0 0 0 0 0 0 0 0 0 0 0 0 0 0 0 0 0.05 0"/><feBlend in2="effect1_dropShadow_1986_110000" result="effect2_dropShadow_1986_110000"/><feBlend in="SourceGraphic" in2="effect2_dropShadow_1986_110000" result="shape"/></filter></defs></symbol><symbol fill="none" viewBox="0 0 24 24" id="checkbox-deselected" xmlns="http://www.w3.org/2000/svg"><rect x="1" y="1" width="22" height="22" rx="3" fill="#fff" stroke="#32DBBD" stroke-width="2"/></symbol><symbol fill="none" viewBox="0 0 24 24" id="checkbox-selected" xmlns="http://www.w3.org/2000/svg"><rect width="24" height="24" rx="4" fill="#32DBBD"/><path fill-rule="evenodd" clip-rule="evenodd" d="M18.38 7.085c.23.21.245.566.035.795l-8.25 9a.563.563 0 0 1-.813.018l-3.75-3.75a.563.563 0 0 1 .796-.796l3.334 3.335 7.853-8.567a.563.563 0 0 1 .795-.035Z" fill="#fff" stroke="#fff" stroke-linecap="round" stroke-linejoin="round"/></symbol><symbol fill="none" viewBox="0 0 20 20" id="chevron-down" xmlns="http://www.w3.org/2000/svg"><path d="M6.751 8.376 10 11.624l3.248-3.248" stroke="currentColor" stroke-width="1.625" stroke-linecap="round" stroke-linejoin="round"/></symbol><symbol fill="none" viewBox="0 0 24 24" id="chevron-left" xmlns="http://www.w3.org/2000/svg"><path d="M13.95 8.102 10.05 12l3.898 3.898" stroke="currentColor" stroke-width="1.625" stroke-linecap="round" stroke-linejoin="round"/></symbol><symbol fill="none" viewBox="0 0 24 24" id="chevron-right" xmlns="http://www.w3.org/2000/svg"><path d="M10.051 15.898 13.949 12l-3.898-3.898" stroke="currentColor" stroke-width="1.625" stroke-linecap="round" stroke-linejoin="round"/></symbol><symbol fill="none" viewBox="0 0 24 24" id="chevron-up" xmlns="http://www.w3.org/2000/svg"><path d="M8.102 13.95 12 10.05l3.898 3.898" stroke="currentColor" stroke-width="1.625" stroke-linecap="round" stroke-linejoin="round"/></symbol><symbol fill="none" class="ajmin-w-[17px]" viewBox="0 0 17 22" id="clipboard" xmlns="http://www.w3.org/2000/svg"><path clip-rule="evenodd" d="M13.515 15.635c.259-.302.401-.686.402-1.083V5.583H3.083v12.5h7.567c.487 0 .95-.213 1.266-.583l1.599-1.865Z" stroke="currentColor" stroke-linecap="round" stroke-linejoin="round"/><path clip-rule="evenodd" d="M15.583 3.083h-4.54a2.774 2.774 0 0 0-5.083 0H1.417a.833.833 0 0 0-.834.834V19.75c0 .46.373.833.834.833h14.166c.46 0 .834-.373.834-.833V3.917a.833.833 0 0 0-.834-.834Z" stroke="currentColor" stroke-linecap="round" stroke-linejoin="round"/><path d="M11.417 8.083H5.583M11.417 11.417H5.583M9.333 14.75h-3.75" stroke="currentColor" stroke-linecap="round" stroke-linejoin="round"/></symbol><symbol fill="none" viewBox="0 0 25 24" id="close" xmlns="http://www.w3.org/2000/svg"><path d="m6.618 18 12-12m-12 0 12 12" stroke="currentColor" stroke-width="1.336" stroke-linecap="round" stroke-linejoin="round"/></symbol><symbol fill="none" viewBox="0 0 25 25" id="compare-negative-circle" xmlns="http://www.w3.org/2000/svg"><path d="M2.559 12.248a9.941 9.941 0 1 0 19.882 0 9.941 9.941 0 0 0-19.882 0ZM9.833 9.581l5.334 5.334m0-5.334-5.334 5.334" stroke="red" stroke-width="2" stroke-linecap="round" stroke-linejoin="round"/></symbol><symbol fill="none" viewBox="0 0 24 25" id="compare-positive-circle" xmlns="http://www.w3.org/2000/svg"><path d="M2.059 12.248a9.941 9.941 0 1 0 19.882 0 9.941 9.941 0 0 0-19.882 0Z" stroke="#3BB273" stroke-width="2" stroke-linecap="round" stroke-linejoin="round"/><path d="m8.686 12.248 2.21 2.209 4.418-4.418" stroke="#3BB273" stroke-width="2" stroke-linecap="round" stroke-linejoin="round"/></symbol><symbol fill="none" viewBox="0 0 24 24" id="contact" xmlns="http://www.w3.org/2000/svg"><path d="M22 2 9.391 14.609" stroke="currentColor" stroke-width="2" stroke-linecap="round" stroke-linejoin="round"/><path clip-rule="evenodd" d="m13.304 22-3.913-7.391L2 10.696 22 2l-8.696 20Z" stroke="currentColor" stroke-width="2" stroke-linecap="round" stroke-linejoin="round"/></symbol><symbol fill="none" viewBox="0 0 20 20" id="downtrend" xmlns="http://www.w3.org/2000/svg"><path d="m17.714 13.857-5.785-6.75L7 11 2.286 6.143" stroke="currentColor" stroke-linecap="round" stroke-linejoin="round"/><path d="M7.286 10.643a.643.643 0 1 1-1.285 0 .643.643 0 0 1 1.285 0ZM12.571 6.786a.643.643 0 1 1-1.285 0 .643.643 0 0 1 1.285 0Z" stroke="currentColor" stroke-linecap="round" stroke-linejoin="round"/><path d="M19 13.857a1.286 1.286 0 1 1-2.572 0 1.286 1.286 0 0 1 2.572 0ZM3.571 6.143a1.286 1.286 0 1 1-2.571 0 1.286 1.286 0 0 1 2.571 0Z" fill="currentColor"/></symbol><symbol fill="none" viewBox="0 0 24 24" id="dropdown" xmlns="http://www.w3.org/2000/svg"><path d="m8.47 14.835 3.53 3.53 3.53-3.53M8.47 9.165 12 5.635l3.53 3.53" stroke="currentColor" stroke-width="2" stroke-linecap="round" stroke-linejoin="round"/></symbol><symbol fill="none" viewBox="0 0 24 25" id="emptystar" xmlns="http://www.w3.org/2000/svg"><path d="m12 2.89 2.781 6.64 7.219.574-5.5 4.679 1.68 6.995L12 18.029l-6.18 3.749 1.68-6.995L2 10.104l7.219-.575L12 2.89Z" fill="#E6E9EC"/></symbol><symbol fill="currentColor" viewBox="0 0 24 24" id="facebook"><path fill-rule="evenodd" d="M22 12c0-5.523-4.477-10-10-10S2 6.477 2 12c0 4.991 3.657 9.128 8.438 9.878v-6.987h-2.54V12h2.54V9.797c0-2.506 1.492-3.89 3.777-3.89 1.094 0 2.238.195 2.238.195v2.46h-1.26c-1.243 0-1.63.771-1.63 1.562V12h2.773l-.443 2.89h-2.33v6.988C18.343 21.128 22 16.991 22 12z" clip-rule="evenodd"/></symbol><symbol fill="none" viewBox="0 0 24 24" id="fibonacci" xmlns="http://www.w3.org/2000/svg"><circle cx="12" cy="12" r="11.5" stroke="currentColor"/><circle cx="12" cy="9" r="8.5" stroke="currentColor"/><circle cx="14" cy="9" r="6.5" stroke="currentColor"/><circle cx="14" cy="11" r="4.5" stroke="currentColor"/><circle cx="12" cy="11" r="2.5" stroke="currentColor"/></symbol><symbol fill="none" viewBox="0 0 25 24" id="filter" xmlns="http://www.w3.org/2000/svg"><path d="M12.5 6a2 2 0 1 0 4 0 2 2 0 0 0-4 0ZM4.5 6h8M16.5 6h4M6.5 12a2 2 0 1 0 4 0 2 2 0 0 0-4 0ZM4.5 12h2M10.5 12h10M15.5 18a2 2 0 1 0 4 0 2 2 0 0 0-4 0ZM4.5 18h11M19.5 18h1" stroke="currentColor" stroke-width="1.5" stroke-linecap="round" stroke-linejoin="round"/></symbol><symbol fill="none" viewBox="0 0 40 40" id="filter-advanced" xmlns="http://www.w3.org/2000/svg"><path d="M2 14a4 4 0 1 0 8 0 4 4 0 0 0-8 0ZM6 2v8M6 18v16M18 22a4 4 0 0 0-2.084 7.414M18 2v20M26 8a4 4 0 1 0 8 0 4 4 0 0 0-8 0ZM30 2v2M30 12v4M24 30a6 6 0 1 0 12 0 6 6 0 0 0-12 0ZM34.4 34.4 38 38" stroke="currentColor" stroke-width="2.4" stroke-linecap="round" stroke-linejoin="round"/></symbol><symbol fill="none" viewBox="0 0 24 24" id="fullstar" xmlns="http://www.w3.org/2000/svg"><path d="m12 2.556 2.781 6.64L22 9.77l-5.5 4.678 1.68 6.996-6.18-3.75-6.18 3.75 1.68-6.996L2 9.771l7.219-.575L12 2.556Z" fill="#FFCB45"/></symbol><symbol fill="none" viewBox="0 0 24 24" id="guide" xmlns="http://www.w3.org/2000/svg"><path d="M3 6a2 2 0 0 1 2-2h14a2 2 0 0 1 2 2v12a2 2 0 0 1-2 2H5a2 2 0 0 1-2-2V6ZM7 8h10M7 12h10M7 16h10" stroke="currentColor" stroke-width="2" stroke-linecap="round" stroke-linejoin="round"/></symbol><symbol fill="none" viewBox="0 0 24 25" id="halfstar" xmlns="http://www.w3.org/2000/svg"><path d="m12 3.445 2.781 6.64 7.219.574-5.5 4.68 1.68 6.995-6.18-3.75-6.18 3.75 1.68-6.996L2 10.66l7.219-.575L12 3.445Z" fill="#E6E9EC"/><mask id="axa" style="mask-type:alpha" maskUnits="userSpaceOnUse" x="2" y="3" width="20" height="20"><path d="m12 3.445 2.781 6.64 7.219.574-5.5 4.68 1.68 6.995-6.18-3.75-6.18 3.75 1.68-6.996L2 10.66l7.219-.575L12 3.445Z" fill="#FFCB45"/></mask><g mask="url(#axa)"><path fill="#FFCB45" d="M2 3.445h10v19H2z"/></g></symbol><symbol fill="none" viewBox="0 0 25 24" id="hamburger" xmlns="http://www.w3.org/2000/svg"><rect x="4.118" y="5" width="9" height="2" rx="1" fill="currentColor"/><rect x="4.118" y="17" width="14" height="2" rx="1" fill="currentColor"/><rect x="4.118" y="11" width="17" height="2" rx="1" fill="currentColor"/></symbol><symbol fill="none" viewBox="0 0 24 24" id="holiday" xmlns="http://www.w3.org/2000/svg"><path d="M13.5 21H6a2 2 0 0 1-2-2V7a2 2 0 0 1 2-2h12a2 2 0 0 1 2 2v5M16 3v4M8 3v4M4 11h16M19 16l-2 3h4l-2 3" stroke="currentColor"/></symbol><symbol fill="none" viewBox="0 0 20 20" id="home" xmlns="http://www.w3.org/2000/svg"><path d="M10.707 2.293a1 1 0 0 0-1.414 0l-7 7a1 1 0 0 0 1.414 1.414L4 10.414V17a1 1 0 0 0 1 1h2a1 1 0 0 0 1-1v-2a1 1 0 0 1 1-1h2a1 1 0 0 1 1 1v2a1 1 0 0 0 1 1h2a1 1 0 0 0 1-1v-6.586l.293.293a1 1 0 0 0 1.414-1.414l-7-7Z" fill="currentColor"/></symbol><symbol fill="none" viewBox="0 0 24 24" id="hour" xmlns="http://www.w3.org/2000/svg"><path d="M3 12a9 9 0 1 0 18.001 0A9 9 0 0 0 3 12ZM12 12l-3 2M12 7v5" stroke="currentColor"/></symbol><symbol fill="none" viewBox="0 0 20 20" id="info-circle" xmlns="http://www.w3.org/2000/svg"><path d="M8.902 6.64a.84.84 0 1 1 1.68 0 .84.84 0 0 1-1.68 0ZM8.385 8.966c0-.32.26-.58.581-.58h.517c.607 0 1.098.49 1.098 1.097v2.584c0 .25.203.452.453.452h.516a.581.581 0 1 1 0 1.163h-.516a1.615 1.615 0 0 1-1.615-1.615v-2.52h-.453a.581.581 0 0 1-.581-.58Z" fill="currentColor"/><path fill-rule="evenodd" clip-rule="evenodd" d="M10 1.667a8.333 8.333 0 1 0 0 16.666 8.333 8.333 0 0 0 0-16.666ZM2.83 10a7.17 7.17 0 1 1 14.34 0 7.17 7.17 0 0 1-14.34 0Z" fill="currentColor"/></symbol><symbol fill="currentColor" viewBox="0 0 24 24" id="instagram"><path fill-rule="evenodd" d="M12.315 2c2.43 0 2.784.013 3.808.06 1.064.049 1.791.218 2.427.465a4.902 4.902 0 0 1 1.772 1.153 4.902 4.902 0 0 1 1.153 1.772c.247.636.416 1.363.465 2.427.048 1.067.06 1.407.06 4.123v.08c0 2.643-.012 2.987-.06 4.043-.049 1.064-.218 1.791-.465 2.427a4.902 4.902 0 0 1-1.153 1.772 4.902 4.902 0 0 1-1.772 1.153c-.636.247-1.363.416-2.427.465-1.067.048-1.407.06-4.123.06h-.08c-2.643 0-2.987-.012-4.043-.06-1.064-.049-1.791-.218-2.427-.465a4.902 4.902 0 0 1-1.772-1.153 4.902 4.902 0 0 1-1.153-1.772c-.247-.636-.416-1.363-.465-2.427-.047-1.024-.06-1.379-.06-3.808v-.63c0-2.43.013-2.784.06-3.808.049-1.064.218-1.791.465-2.427a4.902 4.902 0 0 1 1.153-1.772A4.902 4.902 0 0 1 5.45 2.525c.636-.247 1.363-.416 2.427-.465C8.901 2.013 9.256 2 11.685 2h.63zm-.081 1.802h-.468c-2.456 0-2.784.011-3.807.058-.975.045-1.504.207-1.857.344-.467.182-.8.398-1.15.748-.35.35-.566.683-.748 1.15-.137.353-.3.882-.344 1.857-.047 1.023-.058 1.351-.058 3.807v.468c0 2.456.011 2.784.058 3.807.045.975.207 1.504.344 1.857.182.466.399.8.748 1.15.35.35.683.566 1.15.748.353.137.882.3 1.857.344 1.054.048 1.37.058 4.041.058h.08c2.597 0 2.917-.01 3.96-.058.976-.045 1.505-.207 1.858-.344.466-.182.8-.398 1.15-.748.35-.35.566-.683.748-1.15.137-.353.3-.882.344-1.857.048-1.055.058-1.37.058-4.041v-.08c0-2.597-.01-2.917-.058-3.96-.045-.976-.207-1.505-.344-1.858a3.097 3.097 0 0 0-.748-1.15 3.098 3.098 0 0 0-1.15-.748c-.353-.137-.882-.3-1.857-.344-1.023-.047-1.351-.058-3.807-.058zM12 6.865a5.135 5.135 0 1 1 0 10.27 5.135 5.135 0 0 1 0-10.27zm0 1.802a3.333 3.333 0 1 0 0 6.666 3.333 3.333 0 0 0 0-6.666zm5.338-3.205a1.2 1.2 0 1 1 0 2.4 1.2 1.2 0 0 1 0-2.4z" clip-rule="evenodd"/></symbol><symbol fill="none" viewBox="0 0 24 24" id="margin" xmlns="http://www.w3.org/2000/svg"><path d="M10 3.2A9 9 0 1 0 20.8 14a1 1 0 0 0-1-1H13a2 2 0 0 1-2-2V4a.902.902 0 0 0-1-.8Z" stroke="currentColor"/><path d="M15 3.5A9 9 0 0 1 20.5 9H16a1 1 0 0 1-1-1V3.5Z" stroke="currentColor"/></symbol><symbol fill="none" viewBox="0 0 25 18" id="methodology" xmlns="http://www.w3.org/2000/svg"><path d="M14.485 9.787 22.57 6.32a.73.73 0 0 0 0-1.342l-8.085-3.466a1.461 1.461 0 0 0-1.151 0L3.683 5.648l9.65 4.137c.369.157.784.158 1.152.002Z" stroke="currentColor"/><path d="M8.066 7.528v4.967c0 .277.155.53.403.655l4.788 2.393c.41.205.895.205 1.306 0l4.787-2.393a.73.73 0 0 0 .403-.655V7.528M3.683 5.65v5.113M3.683 10.761l-2.006 5.353a.364.364 0 0 0 .342.491h3.328a.364.364 0 0 0 .342-.492L3.683 10.76" stroke="currentColor"/></symbol><symbol fill="none" viewBox="0 0 14 2" id="minus" xmlns="http://www.w3.org/2000/svg"><path d="M1.4 1.8a.8.8 0 0 1 0-1.6h11.2a.8.8 0 1 1 0 1.6H1.4Z" fill="currentColor"/></symbol><symbol fill="none" viewBox="0 0 24 24" id="pip" xmlns="http://www.w3.org/2000/svg"><path d="M9 12a3 3 0 1 0 6 0 3 3 0 0 0-6 0ZM12 21v.01M3 9v.01M21 9v.01M8 20.1A9 9 0 0 1 3 13M16 20.1a9 9 0 0 0 5-7.1M6.2 5a9 9 0 0 1 11.4 0" stroke="currentColor"/></symbol><symbol fill="none" viewBox="0 0 22 22" id="pivotpoint" xmlns="http://www.w3.org/2000/svg"><path d="M1 7.25A1.25 1.25 0 0 1 2.25 6h2.5A1.25 1.25 0 0 1 6 7.25V11a1.25 1.25 0 0 1-1.25 1.25h-2.5A1.25 1.25 0 0 1 1 11V7.25ZM3.5 3.5V6M3.5 12.25V21M8.5 11a1.25 1.25 0 0 1 1.25-1.25h2.5A1.25 1.25 0 0 1 13.5 11v3.75A1.25 1.25 0 0 1 12.25 16h-2.5a1.25 1.25 0 0 1-1.25-1.25V11ZM11 4.75v5M11 16v1.25M16 3.5a1.25 1.25 0 0 1 1.25-1.25h2.5A1.25 1.25 0 0 1 21 3.5v5a1.25 1.25 0 0 1-1.25 1.25h-2.5A1.25 1.25 0 0 1 16 8.5v-5ZM18.5 1v1.25M18.5 9.75v5" stroke="currentColor"/></symbol><symbol fill="none" viewBox="0 0 16 16" id="plus" xmlns="http://www.w3.org/2000/svg"><path fill-rule="evenodd" clip-rule="evenodd" d="M8 0a1 1 0 0 0-1 1v6H1a1 1 0 0 0 0 2h6v6a1 1 0 1 0 2 0V9h6a1 1 0 1 0 0-2H9V1a1 1 0 0 0-1-1Z" fill="currentColor"/></symbol><symbol fill="none" viewBox="0 0 84 69" id="quote" xmlns="http://www.w3.org/2000/svg"><g clip-path="url(#bka)"><path d="M41.794 8.245c0 9.691 7.034 18.637 18.141 20.5-1.851 11.182-11.847 22.364-18.141 26.837L55.492 69C71.412 55.21 84 35.827 84 9.736 84-4.054 74.374-13 62.157-13 50.678-13 41.794-3.31 41.794 8.245Zm-54.794 0c0 9.691 7.034 18.637 18.141 20.5C3.291 39.928-6.706 51.11-13 55.582L.698 69c15.92-13.79 28.508-33.173 28.508-59.264C29.206-4.054 19.58-13 7.363-13-4.115-13-13-3.31-13 8.245Z" fill="#E6E9EC"/></g><defs><clipPath id="bka"><path d="M0 12C0 5.373 5.373 0 12 0h72v69H0V12Z" fill="#fff"/></clipPath></defs></symbol><symbol fill="none" viewBox="0 0 20 20" id="radio-check" xmlns="http://www.w3.org/2000/svg"><g clip-path="url(#bla)"><circle cx="10" cy="10" r="10" fill="#32DBBD"/><path d="m7 10.21 2.21 2.208L13.627 8" stroke="#fff" stroke-width="2" stroke-linecap="round" stroke-linejoin="round"/></g><defs><clipPath id="bla"><path fill="#fff" d="M0 0h20v20H0z"/></clipPath></defs></symbol><symbol fill="none" viewBox="0 0 24 24" id="radio-deselected" xmlns="http://www.w3.org/2000/svg"><circle cx="12" cy="12" r="11.25" fill="#fff" stroke="#32DBBD" stroke-width="1.5"/></symbol><symbol fill="none" viewBox="0 0 24 24" id="radio-selected" xmlns="http://www.w3.org/2000/svg"><circle cx="12" cy="12" r="8" fill="#fff" stroke="#32DBBD" stroke-width="8"/></symbol><symbol fill="none" viewBox="0 0 24 24" id="search" xmlns="http://www.w3.org/2000/svg"><path d="M3 10a7 7 0 1 0 14 0 7 7 0 0 0-14 0ZM21 21l-6-6" stroke="currentColor" stroke-width="2" stroke-linecap="round" stroke-linejoin="round"/></symbol><symbol fill="none" viewBox="0 0 24 24" id="spreads" xmlns="http://www.w3.org/2000/svg"><path d="M4 4h6v8H4V4ZM4 16h6v4H4v-4ZM14 12h6v8h-6v-8ZM14 4h6v4h-6V4Z" stroke="currentColor"/></symbol><symbol fill="none" class="bqabsolute bqinset-x-0 bqtop-[-20px] bqz-[1] bqmx-auto bqh-40 bqw-40 bqmin-w-[40px]" viewBox="0 0 64 64" id="star-hexagon" xmlns="http://www.w3.org/2000/svg"><defs><linearGradient id="bqb" x1="32" y1="0" x2="32" y2="64" gradientUnits="userSpaceOnUse"><stop stop-color="#32DBBD"/><stop offset="1" stop-color="#29BFA5"/></linearGradient><linearGradient id="bqc" x1="32" y1="0" x2="32" y2="64" gradientUnits="userSpaceOnUse"><stop stop-color="#7CFFE8"/><stop offset="1" stop-color="#32DBBD"/></linearGradient><clipPath id="bqa"><path fill="#fff" d="M0 0h64v64H0z"/></clipPath></defs><g clip-path="url(#bqa)"><path d="M31.152 2.8a1.697 1.697 0 0 1 1.696 0l24.016 13.865c.525.303.849.863.849 1.47v27.73c0 .607-.324 1.167-.849 1.47L32.848 61.201a1.697 1.697 0 0 1-1.696 0L7.136 47.335a1.697 1.697 0 0 1-.849-1.47v-27.73c0-.607.324-1.167.849-1.47L31.152 2.799Z" stroke-width="4" fill="url(#bqb)" stroke="url(#bqc)"/><path d="m32 17.778 4.978 9.718 9.955 1.215-6.836 7.483 1.858 10.74L32 42.073l-9.956 4.86 1.875-10.74-6.852-7.483 9.955-1.215L32 17.778Z" fill="#fff"/></g></symbol><symbol fill="none" viewBox="0 0 24 24" id="swaps" xmlns="http://www.w3.org/2000/svg"><path d="M4 6a2 2 0 1 0 4 0 2 2 0 0 0-4 0ZM16 18a2 2 0 1 0 4 0 2 2 0 0 0-4 0Z" stroke="currentColor"/><path d="M11 6h5a2 2 0 0 1 2 2v8" stroke="currentColor"/><path d="m14 9-3-3 3-3M13 18H8a2 2 0 0 1-2-2V8" stroke="currentColor"/><path d="m10 15 3 3-3 3" stroke="currentColor"/></symbol><symbol fill="currentColor" viewBox="0 0 24 24" id="twitter"><path d="M8.29 20.251c7.547 0 11.675-6.253 11.675-11.675 0-.178 0-.355-.012-.53A8.348 8.348 0 0 0 22 5.92a8.19 8.19 0 0 1-2.357.646 4.118 4.118 0 0 0 1.804-2.27 8.224 8.224 0 0 1-2.605.996 4.107 4.107 0 0 0-6.993 3.743 11.65 11.65 0 0 1-8.457-4.287 4.106 4.106 0 0 0 1.27 5.477A4.072 4.072 0 0 1 2.8 9.713v.052a4.105 4.105 0 0 0 3.292 4.022 4.095 4.095 0 0 1-1.853.07 4.108 4.108 0 0 0 3.834 2.85A8.233 8.233 0 0 1 2 18.407a11.616 11.616 0 0 0 6.29 1.84"/></symbol><symbol fill="none" viewBox="0 0 21 20" id="uptrend" xmlns="http://www.w3.org/2000/svg"><path d="m2.786 13.857 5.785-6.75 4.822 4.822 4.821-5.786" stroke="currentColor" stroke-linecap="round" stroke-linejoin="round"/><path d="M13.071 11.929a.643.643 0 1 0 1.286 0 .643.643 0 0 0-1.286 0ZM7.929 6.786a.643.643 0 1 0 1.285 0 .643.643 0 0 0-1.285 0Z" stroke="currentColor" stroke-linecap="round" stroke-linejoin="round"/><path d="M1.5 13.857a1.286 1.286 0 1 0 2.572 0 1.286 1.286 0 0 0-2.572 0ZM16.929 6.143a1.286 1.286 0 1 0 2.571 0 1.286 1.286 0 0 0-2.571 0Z" fill="currentColor" stroke="currentColor" stroke-linecap="round" stroke-linejoin="round"/></symbol><symbol fill="none" viewBox="0 0 15 18" id="user" xmlns="http://www.w3.org/2000/svg"><path clip-rule="evenodd" d="M7.5 8.33a3.772 3.772 0 1 0 0-7.545 3.772 3.772 0 0 0 0 7.545ZM1.287 17.215a6.213 6.213 0 1 1 12.426 0H1.287Z" stroke="currentColor" stroke-linecap="round" stroke-linejoin="round"/></symbol><symbol fill="none" viewBox="0 0 25 24" id="users" xmlns="http://www.w3.org/2000/svg"><path d="M5.667 7a4 4 0 1 0 8 0 4 4 0 0 0-8 0ZM3.667 21v-2a4 4 0 0 1 4-4h4a4 4 0 0 1 4 4v2M16.667 3.13a4 4 0 0 1 0 7.75M21.667 21v-2a4 4 0 0 0-3-3.85" stroke="currentColor" stroke-width="2" stroke-linecap="round" stroke-linejoin="round"/></symbol></svg>