<?xml version="1.0" encoding="UTF-8"?><svg id="Layer_2" xmlns="http://www.w3.org/2000/svg" viewBox="0 0 1080.65839 219.3301"><defs><style>.cls-1{fill:#fff;}</style></defs><g id="Layer_1-2"><path class="cls-1" d="m567.15508,53.6263c-21.37108.65661-41.12165,11.55345-53.07373,29.28206-4.83157-16.76398-18.52089-29.28206-42.67861-29.28206-19.84333.95267-38.30927,10.42581-50.65794,25.98783v-10.02911c0-8.08602-6.55502-14.64103-14.64103-14.64103s-14.64103,6.555-14.64103,14.64103v132.79412c0,8.08601,6.55502,14.64103,14.64103,14.64103s14.64103-6.55502,14.64103-14.64103v-99.7786c8.68501-13.1407,22.8885-21.60349,38.57908-22.98641,19.98503,0,27.30554,11.85922,27.30554,30.38013v92.38488c-1.27452,7.98495,4.16532,15.49122,12.15024,16.76577,7.98492,1.27455,15.49125-4.16529,16.76577-12.15021.24401-1.52884.24401-3.08672,0-4.61556v-100.14462c8.94924-13.16124,23.43528-21.49675,39.31118-22.62039,19.32615,0,27.45193,11.85924,27.45193,30.38013v92.01886c-.10109,8.08601,6.37199,14.72296,14.458,14.82402,8.08601.10109,14.72296-6.37199,14.82405-14.458v-101.24271c.36605-31.91743-15.15346-47.51013-44.43552-47.51013Z"/><path class="cls-1" d="m915.39458,51.5151h-22.1485V12.81181c-.5645-7.61908-7.19867-13.33792-14.81776-12.77336-6.83383.50636-12.26703,5.93955-12.77339,12.77336v38.70327h-22.6777c-7.6191-.5644-14.25315,5.15458-14.81753,12.77368-.56438,7.6191,5.15464,14.25312,12.77374,14.81752.6803.05039,1.36349.05039,2.04379,0h22.6777v126.39041c-.04175,7.5981,6.08386,13.79145,13.68196,13.83321.02526.00014.05064.0002.0759.0002,7.43478-.07345,13.51229-5.95164,13.83341-13.37985v-126.84396h22.1485c7.6191.5644,14.25315-5.15458,14.81753-12.77368s-5.15464-14.25312-12.77374-14.81752c-.6803-.05039-1.36349-.05039-2.04379,0h-.00012Z"/><path class="cls-1" d="m791.4181,78.36015c-30.85406-31.3413-80.81708-33.12225-113.82442-4.05736l.14907-.00008c-5.74176,4.89802-6.42575,13.52314-1.52781,19.2649,4.89802,5.74176,13.52314,6.42575,19.2649,1.52781,23.17675-20.01461,58.19019-17.45128,78.20488,5.72546,20.01453,23.17667,17.45121,58.19019-5.72554,78.2048-21.99343,18.99285-54.91947,17.78343-75.46038-2.77171-14.08709-13.66399-19.77483-33.82735-14.90512-52.83879,1.87277-7.30578-2.53161-14.74648-9.83739-16.61925-7.30586-1.87277-14.74656,2.53161-16.61925,9.83739-6.73559,28.21,1.54592,57.89948,21.91055,78.55016,15.54285,15.51058,36.61915,24.1985,58.57723,24.14639,21.95563-.04104,43.04743-8.55783,58.87537-23.77375,32.61627-32.10927,33.02727-84.5797.91792-117.19597Zm-105.02365,16.30023c-5.22756,0-9.46531-4.23783-9.46531-9.46539s4.23775-9.46539,9.46531-9.46539,9.46539,4.23783,9.46539,9.46539-4.23783,9.46539-9.46539,9.46539Z"/><path class="cls-1" d="m211.64158,194.59622c30.85406,31.3413,80.81708,33.12225,113.82442,4.05736l-.14907.00008c5.74176-4.89802,6.42575-13.52314,1.52781-19.2649-4.89802-5.74176-13.52314-6.42575-19.2649-1.52781-23.17675,20.01461-58.19019,17.45128-78.20488-5.72546-20.01453-23.17667-17.45121-58.19019,5.72554-78.2048,21.99343-18.99285,54.91947-17.78343,75.46038,2.77171,14.08709,13.66399,19.77483,33.82735,14.90512,52.83879-1.87277,7.30578,2.53161,14.74648,9.83739,16.61925,7.30586,1.87277,14.74656-2.53161,16.61925-9.83739,6.73559-28.21-1.54592-57.89948-21.91055-78.55016-15.54285-15.51058-36.61915-24.1985-58.57723-24.14639-21.95563.04104-43.04743,8.55783-58.87537,23.77375-32.61627,32.10927-33.02727,84.5797-.91792,117.19597Zm105.02365-16.30023c5.22756,0,9.46531,4.23783,9.46531,9.46539s-4.23775,9.46539-9.46531,9.46539-9.46539-4.23783-9.46539-9.46539,4.23783-9.46539,9.46539-9.46539Z"/><path class="cls-1" d="m152.97787,120.98368V13.15836C152.97787,5.89694,147.08095.00002,139.81953.00002s-13.15833,5.89692-13.15833,13.15833v108.21521c.2193,7.09083.5361,27.43751-.5361,36.25853-2.388,19.49385-24.22112,35.35698-48.68582,35.35698-28.19299,0-51.12261-23.00277-51.12261-51.26883s23.02704-51.26883,51.34191-51.26883c3.26519,0,6.4573.80412,10.50225,1.80318l1.43773.36552c7.06648,1.75446,14.20611-2.55858,15.93621-9.6007,1.75446-7.06656-2.55858-14.18175-9.60078-15.93621l-1.3645-.34116c-4.8735-1.21836-10.38046-2.60729-16.88655-2.60729C34.84523,64.13474,0,98.93126,0,141.72024s34.74772,77.60986,77.46363,77.60986c37.93992,0,70.78704-25.68313,74.80762-58.48154,1.51073-12.40293.80404-37.45253.70661-39.86488Zm-60.14908-50.16246c5.22756,0,9.46539,4.23775,9.46539,9.46539s-4.23783,9.46531-9.46539,9.46531-9.46531-4.23775-9.46531-9.46531,4.23775-9.46539,9.46531-9.46539Zm47.00672-48.19985c-5.22756,0-9.46531-4.23783-9.46531-9.46539s4.23775-9.46539,9.46531-9.46539,9.46539,4.23783,9.46539,9.46539-4.23775,9.46539-9.46539,9.46539Z"/><path class="cls-1" d="m1066.29468,191.3671h-70.82946l82.506-115.23178c3.11125-4.34333,3.55512-10.05455,1.15227-14.82651-2.32973-4.73731-7.16601-7.72262-12.44501-7.6821h-98.48469c-7.74292.57357-13.55489,7.31543-12.98132,15.05843.51447,6.94509,6.03623,12.46686,12.98132,12.98132h70.90593l-82.5827,115.2317c-3.04808,4.33754-3.48975,9.99145-1.15227,14.74963,2.34391,4.72443,7.17114,7.70419,12.44493,7.68218h98.48469c7.71251-.12342,13.93485-6.34584,14.05827-14.05835-.04231-7.72156-6.33631-13.94692-14.05795-13.90453Zm-97.0705-113.73958c-5.38857,0-9.75684-4.36836-9.75684-9.75692s4.36828-9.75684,9.75684-9.75684,9.75692,4.36828,9.75692,9.75684-4.36836,9.75692-9.75692,9.75692Zm97.2315,137.42997c-5.38857,0-9.75684-4.36836-9.75684-9.75692s4.36828-9.75684,9.75684-9.75684,9.75692,4.36828,9.75692,9.75684-4.36828,9.75692-9.75692,9.75692Z"/></g></svg>