<?xml version="1.0" encoding="UTF-8"?>
<!DOCTYPE svg PUBLIC "-//W3C//DTD SVG 1.1//EN" "http://www.w3.org/Graphics/SVG/1.1/DTD/svg11.dtd">
<svg xmlns="http://www.w3.org/2000/svg" version="1.1" width="1225px" height="1225px"
    style="shape-rendering:geometricPrecision; text-rendering:geometricPrecision; image-rendering:optimizeQuality; fill-rule:evenodd; clip-rule:evenodd"
    xmlns:xlink="http://www.w3.org/1999/xlink">
    <style>
        #circle { stroke: black; fill: black }

        @media (prefers-color-scheme: dark) {
        #circle { stroke: white; fill: white }
        }
    </style>
    <g>
        <path id="circle"
            d="M 1224.5,603.5 C 1224.5,609.167 1224.5,614.833 1224.5,620.5C 1216.84,810.337 1138.84,963.837 990.5,1081C 845.359,1187.78 683.359,1227.12 504.5,1199C 348.152,1169.96 220.652,1093.79 122,970.5C 47.0835,871.94 6.25015,760.607 -0.5,636.5C -0.5,620.167 -0.5,603.833 -0.5,587.5C 9.15096,426.888 72.151,291.555 188.5,181.5C 190.027,181.573 191.027,180.906 191.5,179.5C 290.941,88.3034 408.275,35.1367 543.5,20C 727.83,2.78373 889.496,54.4504 1028.5,175C 1153.2,290.265 1218.54,433.098 1224.5,603.5 Z M 582.5,252.5 C 698.035,248.612 798.702,284.779 884.5,361C 978.582,451.926 1012.75,561.759 987,690.5C 960.324,787.154 904.158,861.32 818.5,913C 711.298,973.691 598.298,987.358 479.5,954C 382.277,924.363 307.11,866.529 254,780.5C 204.332,691.821 195.332,599.154 227,502.5C 263.72,407.11 328.22,337.276 420.5,293C 472.018,269.12 526.018,255.62 582.5,252.5 Z" />
    </g>
    <g>
        <path style="opacity:1" fill="#818284"
            d="M 191.5,179.5 C 191.027,180.906 190.027,181.573 188.5,181.5C 188.973,180.094 189.973,179.427 191.5,179.5 Z" />
    </g>
    <g>
        <path style="opacity:1" fill="#385caa"
            d="M 341.5,384.5 C 339.585,384.784 337.919,384.451 336.5,383.5C 339.833,379.5 343.5,375.833 347.5,372.5C 349.749,371.92 351.415,370.587 352.5,368.5C 364.903,356.469 378.569,346.135 393.5,337.5C 395.027,337.573 396.027,336.906 396.5,335.5C 398.027,335.573 399.027,334.906 399.5,333.5C 406.672,328.411 414.339,324.077 422.5,320.5C 424.027,320.573 425.027,319.906 425.5,318.5C 475.131,292.075 527.298,278.075 582,276.5C 556.347,302.165 527.847,323.999 496.5,342C 477.27,352.782 457.603,362.782 437.5,372C 416.72,373.254 396.387,376.921 376.5,383C 364.824,383.398 353.157,383.898 341.5,384.5 Z" />
    </g>
    <g>
        <path style="opacity:1" fill="#3359a8"
            d="M 634.5,275.5 C 713.124,281.667 783.124,309.167 844.5,358C 852.344,365.011 860.01,372.178 867.5,379.5C 856.855,387.832 845.188,394.665 832.5,400C 800.844,413.218 768.177,423.218 734.5,430C 702.038,436.744 669.372,441.744 636.5,445C 626.234,434.892 615.568,425.392 604.5,416.5C 604.027,415.094 603.027,414.427 601.5,414.5C 601.027,413.094 600.027,412.427 598.5,412.5C 598.027,411.094 597.027,410.427 595.5,410.5C 562.678,391.281 527.345,379.114 489.5,374C 490.745,373.209 492.078,372.709 493.5,372.5C 495.027,372.573 496.027,371.906 496.5,370.5C 497.514,369.326 498.847,368.66 500.5,368.5C 502.027,368.573 503.027,367.906 503.5,366.5C 506.24,364.44 509.24,362.774 512.5,361.5C 514.027,361.573 515.027,360.906 515.5,359.5C 515.842,358.662 516.508,358.328 517.5,358.5C 519.027,358.573 520.027,357.906 520.5,356.5C 520.842,355.662 521.508,355.328 522.5,355.5C 524.027,355.573 525.027,354.906 525.5,353.5C 525.842,352.662 526.508,352.328 527.5,352.5C 529.027,352.573 530.027,351.906 530.5,350.5C 531.899,349.11 533.566,348.11 535.5,347.5C 537.027,347.573 538.027,346.906 538.5,345.5C 540.822,343.336 543.489,341.669 546.5,340.5C 548.027,340.573 549.027,339.906 549.5,338.5C 551.027,338.573 552.027,337.906 552.5,336.5C 554.027,336.573 555.027,335.906 555.5,334.5C 557.027,334.573 558.027,333.906 558.5,332.5C 560.027,332.573 561.027,331.906 561.5,330.5C 563.027,330.573 564.027,329.906 564.5,328.5C 566.027,328.573 567.027,327.906 567.5,326.5C 569.531,324.478 571.865,322.811 574.5,321.5C 576.027,321.573 577.027,320.906 577.5,319.5C 577.5,318.833 577.833,318.5 578.5,318.5C 580.027,318.573 581.027,317.906 581.5,316.5C 585.614,312.936 589.948,309.603 594.5,306.5C 596.027,306.573 597.027,305.906 597.5,304.5C 597.833,303.5 598.5,302.833 599.5,302.5C 601.027,302.573 602.027,301.906 602.5,300.5C 602.833,299.5 603.5,298.833 604.5,298.5C 606.404,298.262 607.738,297.262 608.5,295.5C 608.833,294.5 609.5,293.833 610.5,293.5C 612.749,292.92 614.415,291.587 615.5,289.5C 616.833,287.5 618.5,285.833 620.5,284.5C 624.235,282.275 627.568,279.442 630.5,276C 631.793,275.51 633.127,275.343 634.5,275.5 Z" />
    </g>
    <g>
        <path style="opacity:1" fill="#a5b3d6"
            d="M 634.5,275.5 C 633.127,275.343 631.793,275.51 630.5,276C 627.568,279.442 624.235,282.275 620.5,284.5C 623.296,281.203 626.296,278.036 629.5,275C 631.387,274.22 633.054,274.387 634.5,275.5 Z" />
    </g>
    <g>
        <path style="opacity:1" fill="#9aaad2"
            d="M 615.5,289.5 C 614.415,291.587 612.749,292.92 610.5,293.5C 611.585,291.413 613.251,290.08 615.5,289.5 Z" />
    </g>
    <g>
        <path style="opacity:1" fill="#a0afd3"
            d="M 608.5,295.5 C 607.738,297.262 606.404,298.262 604.5,298.5C 605.262,296.738 606.596,295.738 608.5,295.5 Z" />
    </g>
    <g>
        <path style="opacity:1" fill="#96a7d1"
            d="M 602.5,300.5 C 602.027,301.906 601.027,302.573 599.5,302.5C 599.973,301.094 600.973,300.427 602.5,300.5 Z" />
    </g>
    <g>
        <path style="opacity:1" fill="#96a7d1"
            d="M 597.5,304.5 C 597.027,305.906 596.027,306.573 594.5,306.5C 594.973,305.094 595.973,304.427 597.5,304.5 Z" />
    </g>
    <g>
        <path style="opacity:1" fill="#a4b2d4"
            d="M 581.5,316.5 C 581.027,317.906 580.027,318.573 578.5,318.5C 578.973,317.094 579.973,316.427 581.5,316.5 Z" />
    </g>
    <g>
        <path style="opacity:1" fill="#a4b2d4"
            d="M 425.5,318.5 C 425.027,319.906 424.027,320.573 422.5,320.5C 422.973,319.094 423.973,318.427 425.5,318.5 Z" />
    </g>
    <g>
        <path style="opacity:1" fill="#96a7d1"
            d="M 577.5,319.5 C 577.027,320.906 576.027,321.573 574.5,321.5C 574.973,320.094 575.973,319.427 577.5,319.5 Z" />
    </g>
    <g>
        <path style="opacity:1" fill="#a4b2d4"
            d="M 567.5,326.5 C 567.027,327.906 566.027,328.573 564.5,328.5C 564.973,327.094 565.973,326.427 567.5,326.5 Z" />
    </g>
    <g>
        <path style="opacity:1" fill="#a4b2d4"
            d="M 564.5,328.5 C 564.027,329.906 563.027,330.573 561.5,330.5C 561.973,329.094 562.973,328.427 564.5,328.5 Z" />
    </g>
    <g>
        <path style="opacity:1" fill="#a4b2d4"
            d="M 561.5,330.5 C 561.027,331.906 560.027,332.573 558.5,332.5C 558.973,331.094 559.973,330.427 561.5,330.5 Z" />
    </g>
    <g>
        <path style="opacity:1" fill="#a4b2d4"
            d="M 558.5,332.5 C 558.027,333.906 557.027,334.573 555.5,334.5C 555.973,333.094 556.973,332.427 558.5,332.5 Z" />
    </g>
    <g>
        <path style="opacity:1" fill="#a4b2d4"
            d="M 399.5,333.5 C 399.027,334.906 398.027,335.573 396.5,335.5C 396.973,334.094 397.973,333.427 399.5,333.5 Z" />
    </g>
    <g>
        <path style="opacity:1" fill="#a4b2d4"
            d="M 555.5,334.5 C 555.027,335.906 554.027,336.573 552.5,336.5C 552.973,335.094 553.973,334.427 555.5,334.5 Z" />
    </g>
    <g>
        <path style="opacity:1" fill="#a4b2d4"
            d="M 396.5,335.5 C 396.027,336.906 395.027,337.573 393.5,337.5C 393.973,336.094 394.973,335.427 396.5,335.5 Z" />
    </g>
    <g>
        <path style="opacity:1" fill="#a4b2d4"
            d="M 552.5,336.5 C 552.027,337.906 551.027,338.573 549.5,338.5C 549.973,337.094 550.973,336.427 552.5,336.5 Z" />
    </g>
    <g>
        <path style="opacity:1" fill="#a4b2d4"
            d="M 549.5,338.5 C 549.027,339.906 548.027,340.573 546.5,340.5C 546.973,339.094 547.973,338.427 549.5,338.5 Z" />
    </g>
    <g>
        <path style="opacity:1" fill="#a4b2d4"
            d="M 538.5,345.5 C 538.027,346.906 537.027,347.573 535.5,347.5C 535.973,346.094 536.973,345.427 538.5,345.5 Z" />
    </g>
    <g>
        <path style="opacity:1" fill="#96a6cc"
            d="M 530.5,350.5 C 530.027,351.906 529.027,352.573 527.5,352.5C 527.973,351.094 528.973,350.427 530.5,350.5 Z" />
    </g>
    <g>
        <path style="opacity:1" fill="#a4b2d4"
            d="M 525.5,353.5 C 525.027,354.906 524.027,355.573 522.5,355.5C 522.973,354.094 523.973,353.427 525.5,353.5 Z" />
    </g>
    <g>
        <path style="opacity:1" fill="#a4b2d4"
            d="M 520.5,356.5 C 520.027,357.906 519.027,358.573 517.5,358.5C 517.973,357.094 518.973,356.427 520.5,356.5 Z" />
    </g>
    <g>
        <path style="opacity:1" fill="#96a6cc"
            d="M 515.5,359.5 C 515.027,360.906 514.027,361.573 512.5,361.5C 512.973,360.094 513.973,359.427 515.5,359.5 Z" />
    </g>
    <g>
        <path style="opacity:1" fill="#96a6cc"
            d="M 503.5,366.5 C 503.027,367.906 502.027,368.573 500.5,368.5C 500.973,367.094 501.973,366.427 503.5,366.5 Z" />
    </g>
    <g>
        <path style="opacity:1" fill="#96a7d1"
            d="M 352.5,368.5 C 351.415,370.587 349.749,371.92 347.5,372.5C 348.585,370.413 350.251,369.08 352.5,368.5 Z" />
    </g>
    <g>
        <path style="opacity:1" fill="#96a6cc"
            d="M 496.5,370.5 C 496.027,371.906 495.027,372.573 493.5,372.5C 493.973,371.094 494.973,370.427 496.5,370.5 Z" />
    </g>
    <g>
        <path style="opacity:1" fill="#b0bbd9"
            d="M 336.5,383.5 C 337.919,384.451 339.585,384.784 341.5,384.5C 339.372,385.629 337.039,385.796 334.5,385C 335.044,384.283 335.711,383.783 336.5,383.5 Z" />
    </g>
    <g>
        <path style="opacity:1" fill="#3d5eab"
            d="M 459.5,405.5 C 459.027,404.094 458.027,403.427 456.5,403.5C 452.577,402.205 448.91,400.372 445.5,398C 448.328,395.42 451.662,394.254 455.5,394.5C 499.169,398.11 539.169,411.944 575.5,436C 581.123,439.955 586.457,444.288 591.5,449C 564.247,452.229 536.914,453.396 509.5,452.5C 495.987,433.316 479.321,417.649 459.5,405.5 Z" />
    </g>
    <g>
        <path style="opacity:1" fill="#99a9d0"
            d="M 886.5,402.5 C 888.709,401.024 890.042,401.691 890.5,404.5C 889.395,403.4 888.062,402.733 886.5,402.5 Z" />
    </g>
    <g>
        <path style="opacity:1" fill="#3258a8"
            d="M 886.5,402.5 C 888.062,402.733 889.395,403.4 890.5,404.5C 896.784,410.397 902.117,417.064 906.5,424.5C 906.427,426.027 907.094,427.027 908.5,427.5C 911.66,431.148 914.327,435.148 916.5,439.5C 916.427,441.027 917.094,442.027 918.5,442.5C 921.335,446.164 923.668,450.164 925.5,454.5C 925.427,456.027 926.094,457.027 927.5,457.5C 953.306,504.05 966.639,554.05 967.5,607.5C 876.167,607.5 784.833,607.5 693.5,607.5C 692.972,569.695 685.472,533.361 671,498.5C 666.469,488.6 661.302,479.1 655.5,470C 711.463,463.342 766.13,451.009 819.5,433C 837.419,426.039 855.086,418.539 872.5,410.5C 874.027,410.573 875.027,409.906 875.5,408.5C 877.181,406.992 879.181,405.992 881.5,405.5C 883.027,405.573 884.027,404.906 884.5,403.5C 884.842,402.662 885.508,402.328 886.5,402.5 Z" />
    </g>
    <g>
        <path style="opacity:1" fill="#abb7d3"
            d="M 456.5,403.5 C 458.027,403.427 459.027,404.094 459.5,405.5C 457.973,405.573 456.973,404.906 456.5,403.5 Z" />
    </g>
    <g>
        <path style="opacity:1" fill="#96a6cc"
            d="M 884.5,403.5 C 884.027,404.906 883.027,405.573 881.5,405.5C 881.973,404.094 882.973,403.427 884.5,403.5 Z" />
    </g>
    <g>
        <path style="opacity:1" fill="#96a6cc"
            d="M 875.5,408.5 C 875.027,409.906 874.027,410.573 872.5,410.5C 872.973,409.094 873.973,408.427 875.5,408.5 Z" />
    </g>
    <g>
        <path style="opacity:1" fill="#b2bdd7"
            d="M 595.5,410.5 C 597.027,410.427 598.027,411.094 598.5,412.5C 596.973,412.573 595.973,411.906 595.5,410.5 Z" />
    </g>
    <g>
        <path style="opacity:1" fill="#b2bdd7"
            d="M 598.5,412.5 C 600.027,412.427 601.027,413.094 601.5,414.5C 599.973,414.573 598.973,413.906 598.5,412.5 Z" />
    </g>
    <g>
        <path style="opacity:1" fill="#b2bdd7"
            d="M 601.5,414.5 C 603.027,414.427 604.027,415.094 604.5,416.5C 602.973,416.573 601.973,415.906 601.5,414.5 Z" />
    </g>
    <g>
        <path style="opacity:1" fill="#b2bdd7"
            d="M 906.5,424.5 C 907.906,424.973 908.573,425.973 908.5,427.5C 907.094,427.027 906.427,426.027 906.5,424.5 Z" />
    </g>
    <g>
        <path style="opacity:1" fill="#b2bdd7"
            d="M 916.5,439.5 C 917.906,439.973 918.573,440.973 918.5,442.5C 917.094,442.027 916.427,441.027 916.5,439.5 Z" />
    </g>
    <g>
        <path style="opacity:1" fill="#b2bdd7"
            d="M 925.5,454.5 C 926.906,454.973 927.573,455.973 927.5,457.5C 926.094,457.027 925.427,456.027 925.5,454.5 Z" />
    </g>
    <g>
        <path style="opacity:1" fill="#3359a9"
            d="M 618.5,478.5 C 618.427,480.027 619.094,481.027 620.5,481.5C 622.326,483.147 623.66,485.147 624.5,487.5C 624.427,489.027 625.094,490.027 626.5,490.5C 628.924,493.008 630.59,496.008 631.5,499.5C 631.427,501.027 632.094,502.027 633.5,502.5C 650.136,535.38 658.803,570.38 659.5,607.5C 622.5,607.5 585.5,607.5 548.5,607.5C 549.13,563.608 541.463,521.274 525.5,480.5C 527.833,479.833 530.167,479.167 532.5,478.5C 560.119,477.905 587.619,476.238 615,473.5C 616.669,474.846 617.836,476.513 618.5,478.5 Z" />
    </g>
    <g>
        <path style="opacity:1" fill="#b6c0d5"
            d="M 532.5,478.5 C 530.167,479.167 527.833,479.833 525.5,480.5C 524.957,480.44 524.624,480.107 524.5,479.5C 527.086,478.52 529.753,478.187 532.5,478.5 Z" />
    </g>
    <g>
        <path style="opacity:1" fill="#b2bdd7"
            d="M 618.5,478.5 C 619.906,478.973 620.573,479.973 620.5,481.5C 619.094,481.027 618.427,480.027 618.5,478.5 Z" />
    </g>
    <g>
        <path style="opacity:1" fill="#b2bdd7"
            d="M 624.5,487.5 C 625.906,487.973 626.573,488.973 626.5,490.5C 625.094,490.027 624.427,489.027 624.5,487.5 Z" />
    </g>
    <g>
        <path style="opacity:1" fill="#abb7d3"
            d="M 631.5,499.5 C 632.906,499.973 633.573,500.973 633.5,502.5C 632.094,502.027 631.427,501.027 631.5,499.5 Z" />
    </g>
    <g>
        <path style="opacity:1" fill="#acb8cf"
            d="M 659.5,634.5 C 622.67,633.502 585.67,633.168 548.5,633.5C 548.737,634.791 548.404,635.791 547.5,636.5C 547.5,635.167 547.5,633.833 547.5,632.5C 585.173,632.167 622.839,632.5 660.5,633.5C 660.376,634.107 660.043,634.44 659.5,634.5 Z" />
    </g>
    <g>
        <path style="opacity:1" fill="#acb8cf"
            d="M 966.5,640.5 C 966.5,638.167 966.5,635.833 966.5,633.5C 875.5,633.5 784.5,633.5 693.5,633.5C 693.802,636.059 693.468,638.393 692.5,640.5C 692.5,637.833 692.5,635.167 692.5,632.5C 784.167,632.5 875.833,632.5 967.5,632.5C 967.806,635.385 967.473,638.052 966.5,640.5 Z" />
    </g>
    <g>
        <path style="opacity:1" fill="#3359a9"
            d="M 659.5,634.5 C 659.654,673.888 649.82,710.555 630,744.5C 625.23,752.37 619.73,759.703 613.5,766.5C 611.5,766.833 609.5,767.167 607.5,767.5C 581.873,765.169 556.206,763.503 530.5,762.5C 527.833,761.833 525.167,761.167 522.5,760.5C 538.001,720.66 546.335,679.327 547.5,636.5C 548.404,635.791 548.737,634.791 548.5,633.5C 585.67,633.168 622.67,633.502 659.5,634.5 Z" />
    </g>
    <g>
        <path style="opacity:1" fill="#3259a8"
            d="M 966.5,640.5 C 959.47,718.362 927.804,784.029 871.5,837.5C 870.5,837.5 869.5,837.5 868.5,837.5C 867.508,837.672 866.842,837.338 866.5,836.5C 866.027,835.094 865.027,834.427 863.5,834.5C 860.515,833.674 857.849,832.341 855.5,830.5C 855.027,829.094 854.027,828.427 852.5,828.5C 786.951,798.655 718.284,779.988 646.5,772.5C 646.351,771.448 646.517,770.448 647,769.5C 650.764,764.944 654.264,760.277 657.5,755.5C 658.906,755.027 659.573,754.027 659.5,752.5C 659.328,751.508 659.662,750.842 660.5,750.5C 661.906,750.027 662.573,749.027 662.5,747.5C 680.122,714.019 690.122,678.352 692.5,640.5C 693.468,638.393 693.802,636.059 693.5,633.5C 784.5,633.5 875.5,633.5 966.5,633.5C 966.5,635.833 966.5,638.167 966.5,640.5 Z" />
    </g>
    <g>
        <path style="opacity:1" fill="#b2bdd7"
            d="M 662.5,747.5 C 662.573,749.027 661.906,750.027 660.5,750.5C 660.427,748.973 661.094,747.973 662.5,747.5 Z" />
    </g>
    <g>
        <path style="opacity:1" fill="#b2bdd7"
            d="M 659.5,752.5 C 659.573,754.027 658.906,755.027 657.5,755.5C 657.427,753.973 658.094,752.973 659.5,752.5 Z" />
    </g>
    <g>
        <path style="opacity:1" fill="#b5bfd4"
            d="M 522.5,760.5 C 525.167,761.167 527.833,761.833 530.5,762.5C 527.428,762.817 524.428,762.484 521.5,761.5C 521.624,760.893 521.957,760.56 522.5,760.5 Z" />
    </g>
    <g>
        <path style="opacity:1" fill="#3f5fac"
            d="M 580.5,791.5 C 581.5,792.167 582.5,792.833 583.5,793.5C 549.495,816.788 511.829,830.955 470.5,836C 463.011,836.932 455.511,837.766 448,838.5C 446.293,838.492 444.793,838.158 443.5,837.5C 443.833,836.833 444.167,836.167 444.5,835.5C 470.485,826.667 491.152,810.834 506.5,788C 531.225,787.874 555.892,789.04 580.5,791.5 Z" />
    </g>
    <g>
        <path style="opacity:1" fill="#b5bfd4"
            d="M 580.5,791.5 C 581.978,791.238 583.311,791.571 584.5,792.5C 584.376,793.107 584.043,793.44 583.5,793.5C 582.5,792.833 581.5,792.167 580.5,791.5 Z" />
    </g>
    <g>
        <path style="opacity:1" fill="#3359a9"
            d="M 577.5,923.5 C 577.027,922.094 576.027,921.427 574.5,921.5C 573.5,921.167 572.833,920.5 572.5,919.5C 572.027,918.094 571.027,917.427 569.5,917.5C 563.525,913.519 557.858,909.186 552.5,904.5C 552.027,903.094 551.027,902.427 549.5,902.5C 547.77,901.974 546.436,900.974 545.5,899.5C 545.027,898.094 544.027,897.427 542.5,897.5C 542.027,896.094 541.027,895.427 539.5,895.5C 533.205,891.859 527.205,887.859 521.5,883.5C 521.027,882.094 520.027,881.427 518.5,881.5C 518.027,880.094 517.027,879.427 515.5,879.5C 513.566,878.89 511.899,877.89 510.5,876.5C 510.027,875.094 509.027,874.427 507.5,874.5C 503.827,873 500.494,871 497.5,868.5C 497.027,867.094 496.027,866.427 494.5,866.5C 493.508,866.672 492.842,866.338 492.5,865.5C 492.027,864.094 491.027,863.427 489.5,863.5C 487.326,863.25 485.659,862.25 484.5,860.5C 485.5,859.833 486.5,859.167 487.5,858.5C 517.82,853.171 546.82,843.837 574.5,830.5C 576.027,830.573 577.027,829.906 577.5,828.5C 579.181,826.992 581.181,825.992 583.5,825.5C 585.027,825.573 586.027,824.906 586.5,823.5C 586.842,822.662 587.508,822.328 588.5,822.5C 590.027,822.573 591.027,821.906 591.5,820.5C 595.205,817.474 599.205,814.808 603.5,812.5C 605.027,812.573 606.027,811.906 606.5,810.5C 606.5,809.833 606.833,809.5 607.5,809.5C 609.027,809.573 610.027,808.906 610.5,807.5C 610.833,806.5 611.5,805.833 612.5,805.5C 614.027,805.573 615.027,804.906 615.5,803.5C 616.167,802.167 617.167,801.167 618.5,800.5C 620.404,800.262 621.738,799.262 622.5,797.5C 622.866,796.305 623.699,795.639 625,795.5C 682.812,801.662 739.312,813.829 794.5,832C 813.615,838.891 831.615,847.891 848.5,859C 789.586,907.995 721.919,937.662 645.5,948C 631.856,949.356 618.189,949.69 604.5,949C 595.906,939.902 586.906,931.402 577.5,923.5 Z" />
    </g>
    <g>
        <path style="opacity:1" fill="#96a7d1"
            d="M 622.5,797.5 C 621.738,799.262 620.404,800.262 618.5,800.5C 619.262,798.738 620.596,797.738 622.5,797.5 Z" />
    </g>
    <g>
        <path style="opacity:1" fill="#96a7d1"
            d="M 615.5,803.5 C 615.027,804.906 614.027,805.573 612.5,805.5C 612.973,804.094 613.973,803.427 615.5,803.5 Z" />
    </g>
    <g>
        <path style="opacity:1" fill="#96a7d1"
            d="M 610.5,807.5 C 610.027,808.906 609.027,809.573 607.5,809.5C 607.973,808.094 608.973,807.427 610.5,807.5 Z" />
    </g>
    <g>
        <path style="opacity:1" fill="#96a7d1"
            d="M 606.5,810.5 C 606.027,811.906 605.027,812.573 603.5,812.5C 603.973,811.094 604.973,810.427 606.5,810.5 Z" />
    </g>
    <g>
        <path style="opacity:1" fill="#a4b2d4"
            d="M 591.5,820.5 C 591.027,821.906 590.027,822.573 588.5,822.5C 588.973,821.094 589.973,820.427 591.5,820.5 Z" />
    </g>
    <g>
        <path style="opacity:1" fill="#a4b2d4"
            d="M 586.5,823.5 C 586.027,824.906 585.027,825.573 583.5,825.5C 583.973,824.094 584.973,823.427 586.5,823.5 Z" />
    </g>
    <g>
        <path style="opacity:1" fill="#96a6cc"
            d="M 577.5,828.5 C 577.027,829.906 576.027,830.573 574.5,830.5C 574.973,829.094 575.973,828.427 577.5,828.5 Z" />
    </g>
    <g>
        <path style="opacity:1" fill="#abb7d3"
            d="M 852.5,828.5 C 854.027,828.427 855.027,829.094 855.5,830.5C 853.973,830.573 852.973,829.906 852.5,828.5 Z" />
    </g>
    <g>
        <path style="opacity:1" fill="#3a5daa"
            d="M 551.5,942.5 C 550.791,943.404 549.791,943.737 548.5,943.5C 502.028,936.897 458.028,922.897 416.5,901.5C 416.027,900.094 415.027,899.427 413.5,899.5C 410.515,898.674 407.849,897.341 405.5,895.5C 405.027,894.094 404.027,893.427 402.5,893.5C 401.508,893.672 400.842,893.338 400.5,892.5C 400.027,891.094 399.027,890.427 397.5,890.5C 395.566,889.89 393.899,888.89 392.5,887.5C 392.027,886.094 391.027,885.427 389.5,885.5C 389.027,884.094 388.027,883.427 386.5,883.5C 386.027,882.094 385.027,881.427 383.5,881.5C 383.027,880.094 382.027,879.427 380.5,879.5C 362.093,867.759 347.426,852.426 336.5,833.5C 338.003,832.443 339.67,831.776 341.5,831.5C 357.9,836.546 374.567,840.38 391.5,843C 446.622,864.54 496.622,894.207 541.5,932C 545.037,935.369 548.371,938.869 551.5,942.5 Z" />
    </g>
    <g>
        <path style="opacity:1" fill="#abb7d3"
            d="M 863.5,834.5 C 865.027,834.427 866.027,835.094 866.5,836.5C 864.973,836.573 863.973,835.906 863.5,834.5 Z" />
    </g>
    <g>
        <path style="opacity:1" fill="#a4b2d4"
            d="M 444.5,835.5 C 444.167,836.167 443.833,836.833 443.5,837.5C 441.207,836.699 441.54,836.032 444.5,835.5 Z" />
    </g>
    <g>
        <path style="opacity:1" fill="#abb7d7"
            d="M 868.5,837.5 C 869.5,837.5 870.5,837.5 871.5,837.5C 870.5,840.167 869.5,840.167 868.5,837.5 Z" />
    </g>
    <g>
        <path style="opacity:1" fill="#b5bfd8"
            d="M 487.5,858.5 C 486.5,859.167 485.5,859.833 484.5,860.5C 482.621,860.607 482.288,860.107 483.5,859C 484.793,858.51 486.127,858.343 487.5,858.5 Z" />
    </g>
    <g>
        <path style="opacity:1" fill="#abb7d3"
            d="M 489.5,863.5 C 491.027,863.427 492.027,864.094 492.5,865.5C 490.973,865.573 489.973,864.906 489.5,863.5 Z" />
    </g>
    <g>
        <path style="opacity:1" fill="#b2bdd7"
            d="M 494.5,866.5 C 496.027,866.427 497.027,867.094 497.5,868.5C 495.973,868.573 494.973,867.906 494.5,866.5 Z" />
    </g>
    <g>
        <path style="opacity:1" fill="#b2bdd7"
            d="M 507.5,874.5 C 509.027,874.427 510.027,875.094 510.5,876.5C 508.973,876.573 507.973,875.906 507.5,874.5 Z" />
    </g>
    <g>
        <path style="opacity:1" fill="#b2bdd7"
            d="M 380.5,879.5 C 382.027,879.427 383.027,880.094 383.5,881.5C 381.973,881.573 380.973,880.906 380.5,879.5 Z" />
    </g>
    <g>
        <path style="opacity:1" fill="#b2bdd7"
            d="M 515.5,879.5 C 517.027,879.427 518.027,880.094 518.5,881.5C 516.973,881.573 515.973,880.906 515.5,879.5 Z" />
    </g>
    <g>
        <path style="opacity:1" fill="#b2bdd7"
            d="M 383.5,881.5 C 385.027,881.427 386.027,882.094 386.5,883.5C 384.973,883.573 383.973,882.906 383.5,881.5 Z" />
    </g>
    <g>
        <path style="opacity:1" fill="#b2bdd7"
            d="M 518.5,881.5 C 520.027,881.427 521.027,882.094 521.5,883.5C 519.973,883.573 518.973,882.906 518.5,881.5 Z" />
    </g>
    <g>
        <path style="opacity:1" fill="#b2bdd7"
            d="M 386.5,883.5 C 388.027,883.427 389.027,884.094 389.5,885.5C 387.973,885.573 386.973,884.906 386.5,883.5 Z" />
    </g>
    <g>
        <path style="opacity:1" fill="#b2bdd7"
            d="M 389.5,885.5 C 391.027,885.427 392.027,886.094 392.5,887.5C 390.973,887.573 389.973,886.906 389.5,885.5 Z" />
    </g>
    <g>
        <path style="opacity:1" fill="#b2bdd7"
            d="M 397.5,890.5 C 399.027,890.427 400.027,891.094 400.5,892.5C 398.973,892.573 397.973,891.906 397.5,890.5 Z" />
    </g>
    <g>
        <path style="opacity:1" fill="#b2bdd7"
            d="M 402.5,893.5 C 404.027,893.427 405.027,894.094 405.5,895.5C 403.973,895.573 402.973,894.906 402.5,893.5 Z" />
    </g>
    <g>
        <path style="opacity:1" fill="#b2bdd7"
            d="M 539.5,895.5 C 541.027,895.427 542.027,896.094 542.5,897.5C 540.973,897.573 539.973,896.906 539.5,895.5 Z" />
    </g>
    <g>
        <path style="opacity:1" fill="#b2bdd7"
            d="M 542.5,897.5 C 544.027,897.427 545.027,898.094 545.5,899.5C 543.973,899.573 542.973,898.906 542.5,897.5 Z" />
    </g>
    <g>
        <path style="opacity:1" fill="#abb7d3"
            d="M 413.5,899.5 C 415.027,899.427 416.027,900.094 416.5,901.5C 414.973,901.573 413.973,900.906 413.5,899.5 Z" />
    </g>
    <g>
        <path style="opacity:1" fill="#b2bdd7"
            d="M 549.5,902.5 C 551.027,902.427 552.027,903.094 552.5,904.5C 550.973,904.573 549.973,903.906 549.5,902.5 Z" />
    </g>
    <g>
        <path style="opacity:1" fill="#b2bdd7"
            d="M 569.5,917.5 C 571.027,917.427 572.027,918.094 572.5,919.5C 570.973,919.573 569.973,918.906 569.5,917.5 Z" />
    </g>
    <g>
        <path style="opacity:1" fill="#b2bdd7"
            d="M 574.5,921.5 C 576.027,921.427 577.027,922.094 577.5,923.5C 575.973,923.573 574.973,922.906 574.5,921.5 Z" />
    </g>
    <g>
        <path style="opacity:1" fill="#c3cbdc"
            d="M 551.5,942.5 C 552.289,942.783 552.956,943.283 553.5,944C 551.613,944.78 549.946,944.613 548.5,943.5C 549.791,943.737 550.791,943.404 551.5,942.5 Z" />
    </g>
</svg>