<?xml version="1.0" standalone="no"?>
<!DOCTYPE svg PUBLIC "-//W3C//DTD SVG 20010904//EN" "http://www.w3.org/TR/2001/REC-SVG-20010904/DTD/svg10.dtd">
<svg version="1.0" xmlns="http://www.w3.org/2000/svg"
    width="1225.000000pt" height="1225.000000pt" viewBox="0 0 1225.000000 1225.000000"
    preserveAspectRatio="xMidYMid meet">
    <style>
        .custom-fill { fill: black }

        @media (prefers-color-scheme: dark) {
        .custom-fill { fill: white }
        }
    </style>

    <g transform="translate(0.000000,1225.000000) scale(0.100000,-0.100000)"
        style="custom-fill" stroke="none">
        <path
            d="M5870 12073 c-1547 -65 -2983 -679 -4069 -1738 -708 -691 -1211
-1493 -1509 -2406 -196 -600 -284 -1158 -285 -1799 0 -307 9 -462 44 -740 110
-885 432 -1746 935 -2503 773 -1162 1961 -2040 3312 -2448 332 -100 641 -167
986 -213 317 -43 451 -51 851 -51 407 1 559 11 905 61 1817 263 3437 1334
4368 2886 676 1128 951 2430 787 3733 -185 1469 -933 2825 -2089 3788 -1179
982 -2700 1496 -4236 1430z m660 -2378 c1166 -144 2170 -722 2808 -1615 356
-498 572 -1082 623 -1689 16 -192 6 -543 -20 -721 -77 -521 -247 -967 -536
-1405 -522 -792 -1368 -1376 -2340 -1615 -601 -148 -1216 -166 -1823 -54 -675
124 -1292 405 -1827 831 -150 119 -451 421 -571 573 -536 677 -795 1465 -753
2291 55 1101 650 2102 1636 2755 555 368 1227 598 1938 663 159 15 707 6 865
-14z" />
        <path
            d="M5765 9483 c-737 -62 -1439 -323 -2011 -748 -119 -88 -297 -239 -354
-300 l-35 -38 45 7 c25 4 110 9 190 12 117 4 167 11 255 34 127 34 256 56 407
69 l108 9 222 110 c372 184 659 361 913 565 129 104 329 287 310 285 -5 -1
-28 -3 -50 -5z" />
        <path
            d="M6201 9384 c-259 -237 -645 -509 -1099 -774 l-180 -105 132 -23 c487
-84 912 -288 1227 -589 l96 -93 194 25 c906 117 1586 308 2017 567 45 27 82
53 82 58 0 13 -226 207 -349 299 -559 417 -1249 678 -1941 735 l-65 5 -114
-105z" />
        <path
            d="M4492 8277 c-21 -12 -20 -14 35 -41 200 -98 392 -260 543 -459 l46
-61 110 3 c99 2 191 6 547 27 65 4 120 10 122 14 7 11 -173 142 -281 206 -255
150 -575 258 -911 309 -123 18 -180 19 -211 2z" />
        <path
            d="M8753 8151 c-462 -256 -1178 -466 -1992 -585 -96 -14 -176 -28 -179
-30 -2 -3 12 -31 31 -63 186 -309 304 -731 325 -1168 l7 -130 1364 -3 1364 -2
-6 127 c-29 593 -244 1202 -597 1693 -82 113 -178 230 -188 229 -4 0 -62 -31
-129 -68z" />
        <path
            d="M6045 7489 c-116 -10 -404 -26 -617 -35 l-166 -6 20 -47 c125 -291
208 -730 208 -1096 l0 -135 552 0 551 0 -6 98 c-25 406 -156 823 -352 1115
-69 103 -80 117 -91 116 -5 -1 -49 -5 -99 -10z" />
        <path
            d="M5485 5818 c-33 -468 -96 -788 -214 -1089 l-38 -96 146 -7 c169 -8
550 -33 665 -44 l78 -8 51 60 c243 292 384 694 421 1199 l6 77 -554 0 -554 0
-7 -92z" />
        <path
            d="M6932 5776 c-39 -432 -164 -811 -369 -1119 -37 -56 -71 -107 -75
-113 -5 -7 56 -20 180 -38 760 -115 1473 -328 1925 -577 59 -32 112 -59 116
-59 5 0 51 44 101 98 349 368 618 830 751 1292 51 178 109 511 109 627 l0 23
-1363 0 -1363 0 -12 -134z" />
        <path
            d="M5037 4307 c-111 -152 -313 -313 -480 -384 -131 -55 -131 -54 -32
-48 215 13 521 76 750 155 142 49 367 157 480 231 l80 52 -35 8 c-19 4 -159
14 -310 23 -151 9 -305 18 -341 20 l-66 5 -46 -62z" />
        <path
            d="M6175 4219 c-38 -33 -126 -98 -195 -144 -281 -189 -592 -315 -983
-399 l-147 -32 132 -80 c389 -232 741 -487 989 -716 l96 -88 119 0 c708 0
1545 312 2196 819 l98 75 -53 33 c-423 265 -1166 469 -2142 588 -37 4 -45 0
-110 -56z" />
        <path
            d="M3392 3912 c-20 -14 77 -152 178 -252 316 -316 879 -602 1495 -759
164 -41 443 -96 451 -88 2 2 -33 38 -78 79 -319 289 -741 561 -1198 773 -261
121 -353 155 -464 171 -55 8 -153 29 -216 46 -150 39 -153 40 -168 30z" />
    </g>
</svg>